<svg version="1.1" xmlns="http://www.w3.org/2000/svg" xmlns:xlink="http://www.w3.org/1999/xlink" width="893" height="893" viewBox="0 0 893 893"><defs/><g><rect fill="rgb(20,20,20)" stroke="none" x="0" y="0" width="893" height="893" transform="matrix(1 0 0 1 0 0)" fill-opacity="1"/><path fill="none" stroke="rgb(255,255,255)" paint-order="fill stroke markers" d=" M 446.5 463.5095238095238 L 475.96135945064776 463.5095238095238 L 417.03864054935224 463.5095238095238 L 446.5 463.5095238095238 L 475.9613594506477 463.5095238095238 L 417.0386405493522 463.5095238095238 L 446.5 463.5095238095238 L 446.5 463.5095238095238 L 446.5 463.5095238095238 Z" stroke-opacity="1" stroke-linecap="round" stroke-linejoin="round" stroke-miterlimit="10" stroke-width="2" stroke-dasharray=""/><path fill="none" stroke="rgb(255,255,255)" paint-order="fill stroke markers" d=" M 446.5 418.8595238095238 L 475.96135945064776 418.8595238095238 L 417.03864054935224 418.8595238095238 L 446.5 418.8595238095238 L 475.9613594506477 418.8595238095238 L 417.0386405493522 418.8595238095238 L 446.5 418.8595238095238 L 446.5 418.8595238095238 L 446.5 418.8595238095238 Z" stroke-opacity="1" stroke-linecap="round" stroke-linejoin="round" stroke-miterlimit="10" stroke-width="2" stroke-dasharray=""/><path fill="none" stroke="rgb(255,255,255)" paint-order="fill stroke markers" d=" M 407.8319657210248 441.1845238095238 L 437.29332517167256 441.1845238095238 L 378.37060627037704 441.1845238095238 L 407.8319657210248 441.1845238095238 L 437.2933251716725 441.1845238095238 L 378.370606270377 441.1845238095238 L 407.8319657210248 441.1845238095238 L 407.8319657210248 441.1845238095238 L 407.8319657210248 441.1845238095238 Z" stroke-opacity="1" stroke-linecap="round" stroke-linejoin="round" stroke-miterlimit="10" stroke-width="2" stroke-dasharray=""/><path fill="none" stroke="rgb(255,255,255)" paint-order="fill stroke markers" d=" M 407.8319657210248 485.8345238095238 L 437.29332517167256 485.8345238095238 L 378.37060627037704 485.8345238095238 L 407.8319657210248 485.8345238095238 L 437.2933251716725 485.8345238095238 L 378.370606270377 485.8345238095238 L 407.8319657210248 485.8345238095238 L 407.8319657210248 485.8345238095238 L 407.8319657210248 485.8345238095238 Z" stroke-opacity="1" stroke-linecap="round" stroke-linejoin="round" stroke-miterlimit="10" stroke-width="2" stroke-dasharray=""/><path fill="none" stroke="rgb(255,255,255)" paint-order="fill stroke markers" d=" M 446.5 508.1595238095238 L 475.96135945064776 508.1595238095238 L 417.03864054935224 508.1595238095238 L 446.5 508.1595238095238 L 475.9613594506477 508.1595238095238 L 417.0386405493522 508.1595238095238 L 446.5 508.1595238095238 L 446.5 508.1595238095238 L 446.5 508.1595238095238 Z" stroke-opacity="1" stroke-linecap="round" stroke-linejoin="round" stroke-miterlimit="10" stroke-width="2" stroke-dasharray=""/><path fill="none" stroke="rgb(255,255,255)" paint-order="fill stroke markers" d=" M 485.1680342789752 485.83452380952383 L 514.629393729623 485.83452380952383 L 455.70667482832744 485.83452380952383 L 485.1680342789752 485.83452380952383 L 514.629393729623 485.83452380952383 L 455.7066748283274 485.83452380952383 L 485.1680342789752 485.83452380952383 L 485.1680342789752 485.83452380952383 L 485.1680342789752 485.83452380952383 Z" stroke-opacity="1" stroke-linecap="round" stroke-linejoin="round" stroke-miterlimit="10" stroke-width="2" stroke-dasharray=""/><path fill="none" stroke="rgb(255,255,255)" paint-order="fill stroke markers" d=" M 485.1680342789752 441.18452380952385 L 514.629393729623 441.18452380952385 L 455.70667482832744 441.18452380952385 L 485.1680342789752 441.18452380952385 L 514.629393729623 441.18452380952385 L 455.7066748283274 441.18452380952385 L 485.1680342789752 441.18452380952385 L 485.1680342789752 441.18452380952385 L 485.1680342789752 441.18452380952385 Z" stroke-opacity="1" stroke-linecap="round" stroke-linejoin="round" stroke-miterlimit="10" stroke-width="2" stroke-dasharray=""/><path fill="none" stroke="rgb(255,255,255)" paint-order="fill stroke markers" d=" M 485.1680342789752 396.5345238095239 L 514.629393729623 396.5345238095239 L 455.70667482832744 396.5345238095239 L 485.1680342789752 396.5345238095239 L 514.629393729623 396.5345238095239 L 455.7066748283274 396.5345238095239 L 485.1680342789752 396.5345238095239 L 485.1680342789752 396.5345238095239 L 485.1680342789752 396.5345238095239 Z" stroke-opacity="1" stroke-linecap="round" stroke-linejoin="round" stroke-miterlimit="10" stroke-width="2" stroke-dasharray=""/><path fill="none" stroke="rgb(255,255,255)" paint-order="fill stroke markers" d=" M 446.5 374.20952380952383 L 475.96135945064776 374.20952380952383 L 417.03864054935224 374.20952380952383 L 446.5 374.20952380952383 L 475.9613594506477 374.20952380952383 L 417.0386405493522 374.20952380952383 L 446.5 374.20952380952383 L 446.5 374.20952380952383 L 446.5 374.20952380952383 Z" stroke-opacity="1" stroke-linecap="round" stroke-linejoin="round" stroke-miterlimit="10" stroke-width="2" stroke-dasharray=""/><path fill="none" stroke="rgb(255,255,255)" paint-order="fill stroke markers" d=" M 407.8319657210248 396.5345238095238 L 437.29332517167256 396.5345238095238 L 378.37060627037704 396.5345238095238 L 407.8319657210248 396.5345238095238 L 437.2933251716725 396.5345238095238 L 378.370606270377 396.5345238095238 L 407.8319657210248 396.5345238095238 L 407.8319657210248 396.5345238095238 L 407.8319657210248 396.5345238095238 Z" stroke-opacity="1" stroke-linecap="round" stroke-linejoin="round" stroke-miterlimit="10" stroke-width="2" stroke-dasharray=""/><path fill="none" stroke="rgb(255,255,255)" paint-order="fill stroke markers" d=" M 369.1639314420496 418.8595238095238 L 398.62529089269736 418.8595238095238 L 339.70257199140184 418.8595238095238 L 369.1639314420496 418.8595238095238 L 398.6252908926973 418.8595238095238 L 339.7025719914018 418.8595238095238 L 369.1639314420496 418.8595238095238 L 369.1639314420496 418.8595238095238 L 369.1639314420496 418.8595238095238 Z" stroke-opacity="1" stroke-linecap="round" stroke-linejoin="round" stroke-miterlimit="10" stroke-width="2" stroke-dasharray=""/><path fill="none" stroke="rgb(255,255,255)" paint-order="fill stroke markers" d=" M 369.1639314420496 463.5095238095238 L 398.62529089269736 463.5095238095238 L 339.70257199140184 463.5095238095238 L 369.1639314420496 463.5095238095238 L 398.6252908926973 463.5095238095238 L 339.7025719914018 463.5095238095238 L 369.1639314420496 463.5095238095238 L 369.1639314420496 463.5095238095238 L 369.1639314420496 463.5095238095238 Z" stroke-opacity="1" stroke-linecap="round" stroke-linejoin="round" stroke-miterlimit="10" stroke-width="2" stroke-dasharray=""/><path fill="none" stroke="rgb(255,255,255)" paint-order="fill stroke markers" d=" M 369.1639314420496 508.15952380952376 L 398.62529089269736 508.15952380952376 L 339.70257199140184 508.15952380952376 L 369.1639314420496 508.15952380952376 L 398.6252908926973 508.15952380952376 L 339.7025719914018 508.15952380952376 L 369.1639314420496 508.15952380952376 L 369.1639314420496 508.15952380952376 L 369.1639314420496 508.15952380952376 Z" stroke-opacity="1" stroke-linecap="round" stroke-linejoin="round" stroke-miterlimit="10" stroke-width="2" stroke-dasharray=""/><path fill="none" stroke="rgb(255,255,255)" paint-order="fill stroke markers" d=" M 407.83196572102474 530.4845238095238 L 437.2933251716725 530.4845238095238 L 378.370606270377 530.4845238095238 L 407.83196572102474 530.4845238095238 L 437.29332517167245 530.4845238095238 L 378.3706062703769 530.4845238095238 L 407.83196572102474 530.4845238095238 L 407.83196572102474 530.4845238095238 L 407.83196572102474 530.4845238095238 Z" stroke-opacity="1" stroke-linecap="round" stroke-linejoin="round" stroke-miterlimit="10" stroke-width="2" stroke-dasharray=""/><path fill="none" stroke="rgb(255,255,255)" paint-order="fill stroke markers" d=" M 446.4999999999999 552.8095238095239 L 475.96135945064765 552.8095238095239 L 417.0386405493521 552.8095238095239 L 446.4999999999999 552.8095238095239 L 475.9613594506476 552.8095238095239 L 417.03864054935207 552.8095238095239 L 446.4999999999999 552.8095238095239 L 446.4999999999999 552.8095238095239 L 446.4999999999999 552.8095238095239 Z" stroke-opacity="1" stroke-linecap="round" stroke-linejoin="round" stroke-miterlimit="10" stroke-width="2" stroke-dasharray=""/><path fill="none" stroke="rgb(255,255,255)" paint-order="fill stroke markers" d=" M 485.1680342789751 530.4845238095239 L 514.6293937296228 530.4845238095239 L 455.7066748283273 530.4845238095239 L 485.1680342789751 530.4845238095239 L 514.6293937296228 530.4845238095239 L 455.70667482832727 530.4845238095239 L 485.1680342789751 530.4845238095239 L 485.1680342789751 530.4845238095239 L 485.1680342789751 530.4845238095239 Z" stroke-opacity="1" stroke-linecap="round" stroke-linejoin="round" stroke-miterlimit="10" stroke-width="2" stroke-dasharray=""/><path fill="none" stroke="rgb(255,255,255)" paint-order="fill stroke markers" d=" M 523.8360685579503 508.159523809524 L 553.297428008598 508.159523809524 L 494.3747091073025 508.159523809524 L 523.8360685579503 508.159523809524 L 553.297428008598 508.159523809524 L 494.37470910730246 508.159523809524 L 523.8360685579503 508.159523809524 L 523.8360685579503 508.159523809524 L 523.8360685579503 508.159523809524 Z" stroke-opacity="1" stroke-linecap="round" stroke-linejoin="round" stroke-miterlimit="10" stroke-width="2" stroke-dasharray=""/><path fill="none" stroke="rgb(255,255,255)" paint-order="fill stroke markers" d=" M 523.8360685579503 463.509523809524 L 553.297428008598 463.509523809524 L 494.3747091073025 463.509523809524 L 523.8360685579503 463.509523809524 L 553.297428008598 463.509523809524 L 494.37470910730246 463.509523809524 L 523.8360685579503 463.509523809524 L 523.8360685579503 463.509523809524 L 523.8360685579503 463.509523809524 Z" stroke-opacity="1" stroke-linecap="round" stroke-linejoin="round" stroke-miterlimit="10" stroke-width="2" stroke-dasharray=""/><path fill="none" stroke="rgb(255,255,255)" paint-order="fill stroke markers" d=" M 523.8360685579503 418.85952380952403 L 553.297428008598 418.85952380952403 L 494.3747091073025 418.85952380952403 L 523.8360685579503 418.85952380952403 L 553.297428008598 418.85952380952403 L 494.37470910730246 418.85952380952403 L 523.8360685579503 418.85952380952403 L 523.8360685579503 418.85952380952403 L 523.8360685579503 418.85952380952403 Z" stroke-opacity="1" stroke-linecap="round" stroke-linejoin="round" stroke-miterlimit="10" stroke-width="2" stroke-dasharray=""/><path fill="none" stroke="rgb(255,255,255)" paint-order="fill stroke markers" d=" M 523.8360685579503 374.20952380952406 L 553.297428008598 374.20952380952406 L 494.3747091073025 374.20952380952406 L 523.8360685579503 374.20952380952406 L 553.297428008598 374.20952380952406 L 494.37470910730246 374.20952380952406 L 523.8360685579503 374.20952380952406 L 523.8360685579503 374.20952380952406 L 523.8360685579503 374.20952380952406 Z" stroke-opacity="1" stroke-linecap="round" stroke-linejoin="round" stroke-miterlimit="10" stroke-width="2" stroke-dasharray=""/><path fill="none" stroke="rgb(255,255,255)" paint-order="fill stroke markers" d=" M 485.16803427897514 351.884523809524 L 514.6293937296228 351.884523809524 L 455.7066748283274 351.884523809524 L 485.16803427897514 351.884523809524 L 514.6293937296228 351.884523809524 L 455.7066748283273 351.884523809524 L 485.16803427897514 351.884523809524 L 485.16803427897514 351.884523809524 L 485.16803427897514 351.884523809524 Z" stroke-opacity="1" stroke-linecap="round" stroke-linejoin="round" stroke-miterlimit="10" stroke-width="2" stroke-dasharray=""/><path fill="none" stroke="rgb(255,255,255)" paint-order="fill stroke markers" d=" M 446.5 329.55952380952397 L 475.96135945064776 329.55952380952397 L 417.03864054935224 329.55952380952397 L 446.5 329.55952380952397 L 475.9613594506477 329.55952380952397 L 417.0386405493522 329.55952380952397 L 446.5 329.55952380952397 L 446.5 329.55952380952397 L 446.5 329.55952380952397 Z" stroke-opacity="1" stroke-linecap="round" stroke-linejoin="round" stroke-miterlimit="10" stroke-width="2" stroke-dasharray=""/><path fill="none" stroke="rgb(255,255,255)" paint-order="fill stroke markers" d=" M 407.8319657210248 351.8845238095239 L 437.29332517167256 351.8845238095239 L 378.37060627037704 351.8845238095239 L 407.8319657210248 351.8845238095239 L 437.2933251716725 351.8845238095239 L 378.370606270377 351.8845238095239 L 407.8319657210248 351.8845238095239 L 407.8319657210248 351.8845238095239 L 407.8319657210248 351.8845238095239 Z" stroke-opacity="1" stroke-linecap="round" stroke-linejoin="round" stroke-miterlimit="10" stroke-width="2" stroke-dasharray=""/><path fill="none" stroke="rgb(255,255,255)" paint-order="fill stroke markers" d=" M 369.1639314420496 374.20952380952383 L 398.62529089269736 374.20952380952383 L 339.70257199140184 374.20952380952383 L 369.1639314420496 374.20952380952383 L 398.6252908926973 374.20952380952383 L 339.7025719914018 374.20952380952383 L 369.1639314420496 374.20952380952383 L 369.1639314420496 374.20952380952383 L 369.1639314420496 374.20952380952383 Z" stroke-opacity="1" stroke-linecap="round" stroke-linejoin="round" stroke-miterlimit="10" stroke-width="2" stroke-dasharray=""/><path fill="none" stroke="rgb(255,255,255)" paint-order="fill stroke markers" d=" M 330.4958971630744 396.53452380952376 L 359.95725661372217 396.53452380952376 L 301.03453771242664 396.53452380952376 L 330.4958971630744 396.53452380952376 L 359.9572566137221 396.53452380952376 L 301.0345377124266 396.53452380952376 L 330.4958971630744 396.53452380952376 L 330.4958971630744 396.53452380952376 L 330.4958971630744 396.53452380952376 Z" stroke-opacity="1" stroke-linecap="round" stroke-linejoin="round" stroke-miterlimit="10" stroke-width="2" stroke-dasharray=""/><path fill="none" stroke="rgb(255,255,255)" paint-order="fill stroke markers" d=" M 330.4958971630743 441.18452380952374 L 359.95725661372205 441.18452380952374 L 301.0345377124265 441.18452380952374 L 330.4958971630743 441.18452380952374 L 359.957256613722 441.18452380952374 L 301.03453771242647 441.18452380952374 L 330.4958971630743 441.18452380952374 L 330.4958971630743 441.18452380952374 L 330.4958971630743 441.18452380952374 Z" stroke-opacity="1" stroke-linecap="round" stroke-linejoin="round" stroke-miterlimit="10" stroke-width="2" stroke-dasharray=""/><path fill="none" stroke="rgb(255,255,255)" paint-order="fill stroke markers" d=" M 330.4958971630742 485.8345238095237 L 359.95725661372194 485.8345238095237 L 301.0345377124264 485.8345238095237 L 330.4958971630742 485.8345238095237 L 359.9572566137219 485.8345238095237 L 301.03453771242636 485.8345238095237 L 330.4958971630742 485.8345238095237 L 330.4958971630742 485.8345238095237 L 330.4958971630742 485.8345238095237 Z" stroke-opacity="1" stroke-linecap="round" stroke-linejoin="round" stroke-miterlimit="10" stroke-width="2" stroke-dasharray=""/><path fill="none" stroke="rgb(255,255,255)" paint-order="fill stroke markers" d=" M 330.49589716307406 530.4845238095237 L 359.9572566137218 530.4845238095237 L 301.0345377124263 530.4845238095237 L 330.49589716307406 530.4845238095237 L 359.95725661372177 530.4845238095237 L 301.03453771242624 530.4845238095237 L 330.49589716307406 530.4845238095237 L 330.49589716307406 530.4845238095237 L 330.49589716307406 530.4845238095237 Z" stroke-opacity="1" stroke-linecap="round" stroke-linejoin="round" stroke-miterlimit="10" stroke-width="2" stroke-dasharray=""/><path fill="none" stroke="rgb(255,255,255)" paint-order="fill stroke markers" d=" M 369.1639314420492 552.8095238095237 L 398.62529089269697 552.8095238095237 L 339.70257199140144 552.8095238095237 L 369.1639314420492 552.8095238095237 L 398.6252908926969 552.8095238095237 L 339.7025719914014 552.8095238095237 L 369.1639314420492 552.8095238095237 L 369.1639314420492 552.8095238095237 L 369.1639314420492 552.8095238095237 Z" stroke-opacity="1" stroke-linecap="round" stroke-linejoin="round" stroke-miterlimit="10" stroke-width="2" stroke-dasharray=""/><path fill="none" stroke="rgb(255,255,255)" paint-order="fill stroke markers" d=" M 407.83196572102435 575.1345238095238 L 437.2933251716721 575.1345238095238 L 378.3706062703766 575.1345238095238 L 407.83196572102435 575.1345238095238 L 437.29332517167205 575.1345238095238 L 378.3706062703765 575.1345238095238 L 407.83196572102435 575.1345238095238 L 407.83196572102435 575.1345238095238 L 407.83196572102435 575.1345238095238 Z" stroke-opacity="1" stroke-linecap="round" stroke-linejoin="round" stroke-miterlimit="10" stroke-width="2" stroke-dasharray=""/><path fill="none" stroke="rgb(255,255,255)" paint-order="fill stroke markers" d=" M 446.4999999999995 597.4595238095238 L 475.96135945064725 597.4595238095238 L 417.0386405493517 597.4595238095238 L 446.4999999999995 597.4595238095238 L 475.9613594506472 597.4595238095238 L 417.03864054935167 597.4595238095238 L 446.4999999999995 597.4595238095238 L 446.4999999999995 597.4595238095238 L 446.4999999999995 597.4595238095238 Z" stroke-opacity="1" stroke-linecap="round" stroke-linejoin="round" stroke-miterlimit="10" stroke-width="2" stroke-dasharray=""/><path fill="none" stroke="rgb(255,255,255)" paint-order="fill stroke markers" d=" M 485.16803427897474 575.1345238095239 L 514.6293937296225 575.1345238095239 L 455.706674828327 575.1345238095239 L 485.16803427897474 575.1345238095239 L 514.6293937296225 575.1345238095239 L 455.7066748283269 575.1345238095239 L 485.16803427897474 575.1345238095239 L 485.16803427897474 575.1345238095239 L 485.16803427897474 575.1345238095239 Z" stroke-opacity="1" stroke-linecap="round" stroke-linejoin="round" stroke-miterlimit="10" stroke-width="2" stroke-dasharray=""/><path fill="none" stroke="rgb(255,255,255)" paint-order="fill stroke markers" d=" M 523.83606855795 552.809523809524 L 553.2974280085976 552.809523809524 L 494.3747091073022 552.809523809524 L 523.83606855795 552.809523809524 L 553.2974280085976 552.809523809524 L 494.3747091073021 552.809523809524 L 523.83606855795 552.809523809524 L 523.83606855795 552.809523809524 L 523.83606855795 552.809523809524 Z" stroke-opacity="1" stroke-linecap="round" stroke-linejoin="round" stroke-miterlimit="10" stroke-width="2" stroke-dasharray=""/><path fill="none" stroke="rgb(255,255,255)" paint-order="fill stroke markers" d=" M 562.5041028369252 530.484523809524 L 591.9654622875729 530.484523809524 L 533.0427433862774 530.484523809524 L 562.5041028369252 530.484523809524 L 591.9654622875729 530.484523809524 L 533.0427433862774 530.484523809524 L 562.5041028369252 530.484523809524 L 562.5041028369252 530.484523809524 L 562.5041028369252 530.484523809524 Z" stroke-opacity="1" stroke-linecap="round" stroke-linejoin="round" stroke-miterlimit="10" stroke-width="2" stroke-dasharray=""/><path fill="none" stroke="rgb(255,255,255)" paint-order="fill stroke markers" d=" M 562.5041028369252 485.83452380952406 L 591.9654622875729 485.83452380952406 L 533.0427433862774 485.83452380952406 L 562.5041028369252 485.83452380952406 L 591.9654622875729 485.83452380952406 L 533.0427433862774 485.83452380952406 L 562.5041028369252 485.83452380952406 L 562.5041028369252 485.83452380952406 L 562.5041028369252 485.83452380952406 Z" stroke-opacity="1" stroke-linecap="round" stroke-linejoin="round" stroke-miterlimit="10" stroke-width="2" stroke-dasharray=""/><path fill="none" stroke="rgb(255,255,255)" paint-order="fill stroke markers" d=" M 562.5041028369252 441.1845238095241 L 591.9654622875729 441.1845238095241 L 533.0427433862774 441.1845238095241 L 562.5041028369252 441.1845238095241 L 591.9654622875729 441.1845238095241 L 533.0427433862774 441.1845238095241 L 562.5041028369252 441.1845238095241 L 562.5041028369252 441.1845238095241 L 562.5041028369252 441.1845238095241 Z" stroke-opacity="1" stroke-linecap="round" stroke-linejoin="round" stroke-miterlimit="10" stroke-width="2" stroke-dasharray=""/><path fill="none" stroke="rgb(255,255,255)" paint-order="fill stroke markers" d=" M 562.5041028369252 396.5345238095241 L 591.9654622875729 396.5345238095241 L 533.0427433862774 396.5345238095241 L 562.5041028369252 396.5345238095241 L 591.9654622875729 396.5345238095241 L 533.0427433862774 396.5345238095241 L 562.5041028369252 396.5345238095241 L 562.5041028369252 396.5345238095241 L 562.5041028369252 396.5345238095241 Z" stroke-opacity="1" stroke-linecap="round" stroke-linejoin="round" stroke-miterlimit="10" stroke-width="2" stroke-dasharray=""/><path fill="none" stroke="rgb(255,255,255)" paint-order="fill stroke markers" d=" M 562.5041028369252 351.8845238095241 L 591.9654622875729 351.8845238095241 L 533.0427433862774 351.8845238095241 L 562.5041028369252 351.8845238095241 L 591.9654622875729 351.8845238095241 L 533.0427433862774 351.8845238095241 L 562.5041028369252 351.8845238095241 L 562.5041028369252 351.8845238095241 L 562.5041028369252 351.8845238095241 Z" stroke-opacity="1" stroke-linecap="round" stroke-linejoin="round" stroke-miterlimit="10" stroke-width="2" stroke-dasharray=""/><path fill="none" stroke="rgb(255,255,255)" paint-order="fill stroke markers" d=" M 523.8360685579501 329.5595238095241 L 553.2974280085978 329.5595238095241 L 494.3747091073023 329.5595238095241 L 523.8360685579501 329.5595238095241 L 553.2974280085978 329.5595238095241 L 494.37470910730224 329.5595238095241 L 523.8360685579501 329.5595238095241 L 523.8360685579501 329.5595238095241 L 523.8360685579501 329.5595238095241 Z" stroke-opacity="1" stroke-linecap="round" stroke-linejoin="round" stroke-miterlimit="10" stroke-width="2" stroke-dasharray=""/><path fill="none" stroke="rgb(255,255,255)" paint-order="fill stroke markers" d=" M 485.1680342789749 307.23452380952403 L 514.6293937296226 307.23452380952403 L 455.70667482832715 307.23452380952403 L 485.1680342789749 307.23452380952403 L 514.6293937296226 307.23452380952403 L 455.7066748283271 307.23452380952403 L 485.1680342789749 307.23452380952403 L 485.1680342789749 307.23452380952403 L 485.1680342789749 307.23452380952403 Z" stroke-opacity="1" stroke-linecap="round" stroke-linejoin="round" stroke-miterlimit="10" stroke-width="2" stroke-dasharray=""/><path fill="none" stroke="rgb(255,255,255)" paint-order="fill stroke markers" d=" M 446.4999999999998 284.909523809524 L 475.96135945064754 284.909523809524 L 417.038640549352 284.909523809524 L 446.4999999999998 284.909523809524 L 475.9613594506475 284.909523809524 L 417.03864054935195 284.909523809524 L 446.4999999999998 284.909523809524 L 446.4999999999998 284.909523809524 L 446.4999999999998 284.909523809524 Z" stroke-opacity="1" stroke-linecap="round" stroke-linejoin="round" stroke-miterlimit="10" stroke-width="2" stroke-dasharray=""/><path fill="none" stroke="rgb(255,255,255)" paint-order="fill stroke markers" d=" M 407.8319657210245 307.23452380952386 L 437.2933251716723 307.23452380952386 L 378.37060627037675 307.23452380952386 L 407.8319657210245 307.23452380952386 L 437.2933251716722 307.23452380952386 L 378.3706062703767 307.23452380952386 L 407.8319657210245 307.23452380952386 L 407.8319657210245 307.23452380952386 L 407.8319657210245 307.23452380952386 Z" stroke-opacity="1" stroke-linecap="round" stroke-linejoin="round" stroke-miterlimit="10" stroke-width="2" stroke-dasharray=""/><path fill="none" stroke="rgb(255,255,255)" paint-order="fill stroke markers" d=" M 369.16393144204926 329.55952380952374 L 398.625290892697 329.55952380952374 L 339.7025719914015 329.55952380952374 L 369.16393144204926 329.55952380952374 L 398.62529089269697 329.55952380952374 L 339.70257199140144 329.55952380952374 L 369.16393144204926 329.55952380952374 L 369.16393144204926 329.55952380952374 L 369.16393144204926 329.55952380952374 Z" stroke-opacity="1" stroke-linecap="round" stroke-linejoin="round" stroke-miterlimit="10" stroke-width="2" stroke-dasharray=""/><path fill="none" stroke="rgb(255,255,255)" paint-order="fill stroke markers" d=" M 330.495897163074 351.8845238095236 L 359.95725661372177 351.8845238095236 L 301.03453771242624 351.8845238095236 L 330.495897163074 351.8845238095236 L 359.9572566137217 351.8845238095236 L 301.0345377124262 351.8845238095236 L 330.495897163074 351.8845238095236 L 330.495897163074 351.8845238095236 L 330.495897163074 351.8845238095236 Z" stroke-opacity="1" stroke-linecap="round" stroke-linejoin="round" stroke-miterlimit="10" stroke-width="2" stroke-dasharray=""/><path fill="none" stroke="rgb(255,255,255)" paint-order="fill stroke markers" d=" M 291.82786288409875 374.2095238095235 L 321.2892223347465 374.2095238095235 L 262.366503433451 374.2095238095235 L 291.82786288409875 374.2095238095235 L 321.28922233474646 374.2095238095235 L 262.36650343345093 374.2095238095235 L 291.82786288409875 374.2095238095235 L 291.82786288409875 374.2095238095235 L 291.82786288409875 374.2095238095235 Z" stroke-opacity="1" stroke-linecap="round" stroke-linejoin="round" stroke-miterlimit="10" stroke-width="2" stroke-dasharray=""/><path fill="none" stroke="rgb(255,255,255)" paint-order="fill stroke markers" d=" M 291.8278628840987 418.85952380952347 L 321.28922233474646 418.85952380952347 L 262.36650343345093 418.85952380952347 L 291.8278628840987 418.85952380952347 L 321.2892223347464 418.85952380952347 L 262.3665034334509 418.85952380952347 L 291.8278628840987 418.85952380952347 L 291.8278628840987 418.85952380952347 L 291.8278628840987 418.85952380952347 Z" stroke-opacity="1" stroke-linecap="round" stroke-linejoin="round" stroke-miterlimit="10" stroke-width="2" stroke-dasharray=""/><path fill="none" stroke="rgb(255,255,255)" paint-order="fill stroke markers" d=" M 291.82786288409864 463.50952380952344 L 321.2892223347464 463.50952380952344 L 262.3665034334509 463.50952380952344 L 291.82786288409864 463.50952380952344 L 321.28922233474634 463.50952380952344 L 262.3665034334508 463.50952380952344 L 291.82786288409864 463.50952380952344 L 291.82786288409864 463.50952380952344 L 291.82786288409864 463.50952380952344 Z" stroke-opacity="1" stroke-linecap="round" stroke-linejoin="round" stroke-miterlimit="10" stroke-width="2" stroke-dasharray=""/><path fill="none" stroke="rgb(255,255,255)" paint-order="fill stroke markers" d=" M 291.8278628840986 508.1595238095234 L 321.28922233474634 508.1595238095234 L 262.3665034334508 508.1595238095234 L 291.8278628840986 508.1595238095234 L 321.2892223347463 508.1595238095234 L 262.36650343345076 508.1595238095234 L 291.8278628840986 508.1595238095234 L 291.8278628840986 508.1595238095234 L 291.8278628840986 508.1595238095234 Z" stroke-opacity="1" stroke-linecap="round" stroke-linejoin="round" stroke-miterlimit="10" stroke-width="2" stroke-dasharray=""/><path fill="none" stroke="rgb(255,255,255)" paint-order="fill stroke markers" d=" M 291.8278628840985 552.8095238095234 L 321.2892223347463 552.8095238095234 L 262.36650343345076 552.8095238095234 L 291.8278628840985 552.8095238095234 L 321.2892223347462 552.8095238095234 L 262.3665034334507 552.8095238095234 L 291.8278628840985 552.8095238095234 L 291.8278628840985 552.8095238095234 L 291.8278628840985 552.8095238095234 Z" stroke-opacity="1" stroke-linecap="round" stroke-linejoin="round" stroke-miterlimit="10" stroke-width="2" stroke-dasharray=""/><path fill="none" stroke="rgb(255,255,255)" paint-order="fill stroke markers" d=" M 330.49589716307366 575.1345238095234 L 359.9572566137214 575.1345238095234 L 301.0345377124259 575.1345238095234 L 330.49589716307366 575.1345238095234 L 359.95725661372137 575.1345238095234 L 301.03453771242584 575.1345238095234 L 330.49589716307366 575.1345238095234 L 330.49589716307366 575.1345238095234 L 330.49589716307366 575.1345238095234 Z" stroke-opacity="1" stroke-linecap="round" stroke-linejoin="round" stroke-miterlimit="10" stroke-width="2" stroke-dasharray=""/><path fill="none" stroke="rgb(255,255,255)" paint-order="fill stroke markers" d=" M 369.1639314420488 597.4595238095235 L 398.62529089269657 597.4595238095235 L 339.70257199140104 597.4595238095235 L 369.1639314420488 597.4595238095235 L 398.6252908926965 597.4595238095235 L 339.702571991401 597.4595238095235 L 369.1639314420488 597.4595238095235 L 369.1639314420488 597.4595238095235 L 369.1639314420488 597.4595238095235 Z" stroke-opacity="1" stroke-linecap="round" stroke-linejoin="round" stroke-miterlimit="10" stroke-width="2" stroke-dasharray=""/><path fill="none" stroke="rgb(255,255,255)" paint-order="fill stroke markers" d=" M 407.83196572102395 619.7845238095235 L 437.2933251716717 619.7845238095235 L 378.3706062703762 619.7845238095235 L 407.83196572102395 619.7845238095235 L 437.29332517167165 619.7845238095235 L 378.37060627037613 619.7845238095235 L 407.83196572102395 619.7845238095235 L 407.83196572102395 619.7845238095235 L 407.83196572102395 619.7845238095235 Z" stroke-opacity="1" stroke-linecap="round" stroke-linejoin="round" stroke-miterlimit="10" stroke-width="2" stroke-dasharray=""/><path fill="none" stroke="rgb(255,255,255)" paint-order="fill stroke markers" d=" M 446.4999999999991 642.1095238095236 L 475.96135945064685 642.1095238095236 L 417.0386405493513 642.1095238095236 L 446.4999999999991 642.1095238095236 L 475.9613594506468 642.1095238095236 L 417.03864054935127 642.1095238095236 L 446.4999999999991 642.1095238095236 L 446.4999999999991 642.1095238095236 L 446.4999999999991 642.1095238095236 Z" stroke-opacity="1" stroke-linecap="round" stroke-linejoin="round" stroke-miterlimit="10" stroke-width="2" stroke-dasharray=""/><path fill="none" stroke="rgb(255,255,255)" paint-order="fill stroke markers" d=" M 485.16803427897435 619.7845238095238 L 514.629393729622 619.7845238095238 L 455.7066748283266 619.7845238095238 L 485.16803427897435 619.7845238095238 L 514.629393729622 619.7845238095238 L 455.7066748283265 619.7845238095238 L 485.16803427897435 619.7845238095238 L 485.16803427897435 619.7845238095238 L 485.16803427897435 619.7845238095238 Z" stroke-opacity="1" stroke-linecap="round" stroke-linejoin="round" stroke-miterlimit="10" stroke-width="2" stroke-dasharray=""/><path fill="none" stroke="rgb(255,255,255)" paint-order="fill stroke markers" d=" M 523.8360685579496 597.459523809524 L 553.2974280085973 597.459523809524 L 494.37470910730184 597.459523809524 L 523.8360685579496 597.459523809524 L 553.2974280085973 597.459523809524 L 494.3747091073018 597.459523809524 L 523.8360685579496 597.459523809524 L 523.8360685579496 597.459523809524 L 523.8360685579496 597.459523809524 Z" stroke-opacity="1" stroke-linecap="round" stroke-linejoin="round" stroke-miterlimit="10" stroke-width="2" stroke-dasharray=""/><path fill="none" stroke="rgb(255,255,255)" paint-order="fill stroke markers" d=" M 562.5041028369249 575.1345238095241 L 591.9654622875726 575.1345238095241 L 533.042743386277 575.1345238095241 L 562.5041028369249 575.1345238095241 L 591.9654622875726 575.1345238095241 L 533.042743386277 575.1345238095241 L 562.5041028369249 575.1345238095241 L 562.5041028369249 575.1345238095241 L 562.5041028369249 575.1345238095241 Z" stroke-opacity="1" stroke-linecap="round" stroke-linejoin="round" stroke-miterlimit="10" stroke-width="2" stroke-dasharray=""/><path fill="none" stroke="rgb(255,255,255)" paint-order="fill stroke markers" d=" M 601.1721371159001 552.8095238095243 L 630.6334965665478 552.8095238095243 L 571.7107776652523 552.8095238095243 L 601.1721371159001 552.8095238095243 L 630.6334965665478 552.8095238095243 L 571.7107776652523 552.8095238095243 L 601.1721371159001 552.8095238095243 L 601.1721371159001 552.8095238095243 L 601.1721371159001 552.8095238095243 Z" stroke-opacity="1" stroke-linecap="round" stroke-linejoin="round" stroke-miterlimit="10" stroke-width="2" stroke-dasharray=""/><path fill="none" stroke="rgb(255,255,255)" paint-order="fill stroke markers" d=" M 601.1721371159001 508.15952380952433 L 630.6334965665478 508.15952380952433 L 571.7107776652523 508.15952380952433 L 601.1721371159001 508.15952380952433 L 630.6334965665478 508.15952380952433 L 571.7107776652523 508.15952380952433 L 601.1721371159001 508.15952380952433 L 601.1721371159001 508.15952380952433 L 601.1721371159001 508.15952380952433 Z" stroke-opacity="1" stroke-linecap="round" stroke-linejoin="round" stroke-miterlimit="10" stroke-width="2" stroke-dasharray=""/><path fill="none" stroke="rgb(255,255,255)" paint-order="fill stroke markers" d=" M 601.1721371159001 463.50952380952435 L 630.6334965665478 463.50952380952435 L 571.7107776652523 463.50952380952435 L 601.1721371159001 463.50952380952435 L 630.6334965665478 463.50952380952435 L 571.7107776652523 463.50952380952435 L 601.1721371159001 463.50952380952435 L 601.1721371159001 463.50952380952435 L 601.1721371159001 463.50952380952435 Z" stroke-opacity="1" stroke-linecap="round" stroke-linejoin="round" stroke-miterlimit="10" stroke-width="2" stroke-dasharray=""/><path fill="none" stroke="rgb(255,255,255)" paint-order="fill stroke markers" d=" M 601.1721371159001 418.8595238095244 L 630.6334965665478 418.8595238095244 L 571.7107776652523 418.8595238095244 L 601.1721371159001 418.8595238095244 L 630.6334965665478 418.8595238095244 L 571.7107776652523 418.8595238095244 L 601.1721371159001 418.8595238095244 L 601.1721371159001 418.8595238095244 L 601.1721371159001 418.8595238095244 Z" stroke-opacity="1" stroke-linecap="round" stroke-linejoin="round" stroke-miterlimit="10" stroke-width="2" stroke-dasharray=""/><path fill="none" stroke="rgb(255,255,255)" paint-order="fill stroke markers" d=" M 601.1721371159001 374.2095238095244 L 630.6334965665478 374.2095238095244 L 571.7107776652523 374.2095238095244 L 601.1721371159001 374.2095238095244 L 630.6334965665478 374.2095238095244 L 571.7107776652523 374.2095238095244 L 601.1721371159001 374.2095238095244 L 601.1721371159001 374.2095238095244 L 601.1721371159001 374.2095238095244 Z" stroke-opacity="1" stroke-linecap="round" stroke-linejoin="round" stroke-miterlimit="10" stroke-width="2" stroke-dasharray=""/><path fill="none" stroke="rgb(255,255,255)" paint-order="fill stroke markers" d=" M 601.1721371159001 329.5595238095244 L 630.6334965665478 329.5595238095244 L 571.7107776652523 329.5595238095244 L 601.1721371159001 329.5595238095244 L 630.6334965665478 329.5595238095244 L 571.7107776652523 329.5595238095244 L 601.1721371159001 329.5595238095244 L 601.1721371159001 329.5595238095244 L 601.1721371159001 329.5595238095244 Z" stroke-opacity="1" stroke-linecap="round" stroke-linejoin="round" stroke-miterlimit="10" stroke-width="2" stroke-dasharray=""/><path fill="none" stroke="rgb(255,255,255)" paint-order="fill stroke markers" d=" M 562.504102836925 307.2345238095243 L 591.9654622875727 307.2345238095243 L 533.0427433862772 307.2345238095243 L 562.504102836925 307.2345238095243 L 591.9654622875727 307.2345238095243 L 533.0427433862772 307.2345238095243 L 562.504102836925 307.2345238095243 L 562.504102836925 307.2345238095243 L 562.504102836925 307.2345238095243 Z" stroke-opacity="1" stroke-linecap="round" stroke-linejoin="round" stroke-miterlimit="10" stroke-width="2" stroke-dasharray=""/><path fill="none" stroke="rgb(255,255,255)" paint-order="fill stroke markers" d=" M 523.8360685579498 284.9095238095242 L 553.2974280085975 284.9095238095242 L 494.37470910730207 284.9095238095242 L 523.8360685579498 284.9095238095242 L 553.2974280085975 284.9095238095242 L 494.374709107302 284.9095238095242 L 523.8360685579498 284.9095238095242 L 523.8360685579498 284.9095238095242 L 523.8360685579498 284.9095238095242 Z" stroke-opacity="1" stroke-linecap="round" stroke-linejoin="round" stroke-miterlimit="10" stroke-width="2" stroke-dasharray=""/><path fill="none" stroke="rgb(255,255,255)" paint-order="fill stroke markers" d=" M 485.1680342789747 262.58452380952417 L 514.6293937296224 262.58452380952417 L 455.7066748283269 262.58452380952417 L 485.1680342789747 262.58452380952417 L 514.6293937296224 262.58452380952417 L 455.70667482832687 262.58452380952417 L 485.1680342789747 262.58452380952417 L 485.1680342789747 262.58452380952417 L 485.1680342789747 262.58452380952417 Z" stroke-opacity="1" stroke-linecap="round" stroke-linejoin="round" stroke-miterlimit="10" stroke-width="2" stroke-dasharray=""/><path fill="none" stroke="rgb(255,255,255)" paint-order="fill stroke markers" d=" M 446.49999999999955 240.2595238095241 L 475.9613594506473 240.2595238095241 L 417.0386405493518 240.2595238095241 L 446.49999999999955 240.2595238095241 L 475.96135945064725 240.2595238095241 L 417.0386405493517 240.2595238095241 L 446.49999999999955 240.2595238095241 L 446.49999999999955 240.2595238095241 L 446.49999999999955 240.2595238095241 Z" stroke-opacity="1" stroke-linecap="round" stroke-linejoin="round" stroke-miterlimit="10" stroke-width="2" stroke-dasharray=""/><path fill="none" stroke="rgb(255,255,255)" paint-order="fill stroke markers" d=" M 407.8319657210243 262.58452380952394 L 437.29332517167205 262.58452380952394 L 378.3706062703765 262.58452380952394 L 407.8319657210243 262.58452380952394 L 437.293325171672 262.58452380952394 L 378.37060627037647 262.58452380952394 L 407.8319657210243 262.58452380952394 L 407.8319657210243 262.58452380952394 L 407.8319657210243 262.58452380952394 Z" stroke-opacity="1" stroke-linecap="round" stroke-linejoin="round" stroke-miterlimit="10" stroke-width="2" stroke-dasharray=""/><path fill="none" stroke="rgb(255,255,255)" paint-order="fill stroke markers" d=" M 369.16393144204903 284.9095238095238 L 398.6252908926968 284.9095238095238 L 339.70257199140127 284.9095238095238 L 369.16393144204903 284.9095238095238 L 398.62529089269674 284.9095238095238 L 339.7025719914012 284.9095238095238 L 369.16393144204903 284.9095238095238 L 369.16393144204903 284.9095238095238 L 369.16393144204903 284.9095238095238 Z" stroke-opacity="1" stroke-linecap="round" stroke-linejoin="round" stroke-miterlimit="10" stroke-width="2" stroke-dasharray=""/><path fill="none" stroke="rgb(255,255,255)" paint-order="fill stroke markers" d=" M 330.4958971630738 307.2345238095237 L 359.95725661372154 307.2345238095237 L 301.034537712426 307.2345238095237 L 330.4958971630738 307.2345238095237 L 359.9572566137215 307.2345238095237 L 301.03453771242596 307.2345238095237 L 330.4958971630738 307.2345238095237 L 330.4958971630738 307.2345238095237 L 330.4958971630738 307.2345238095237 Z" stroke-opacity="1" stroke-linecap="round" stroke-linejoin="round" stroke-miterlimit="10" stroke-width="2" stroke-dasharray=""/><path fill="none" stroke="rgb(255,255,255)" paint-order="fill stroke markers" d=" M 291.8278628840985 329.55952380952357 L 321.2892223347463 329.55952380952357 L 262.36650343345076 329.55952380952357 L 291.8278628840985 329.55952380952357 L 321.2892223347462 329.55952380952357 L 262.3665034334507 329.55952380952357 L 291.8278628840985 329.55952380952357 L 291.8278628840985 329.55952380952357 L 291.8278628840985 329.55952380952357 Z" stroke-opacity="1" stroke-linecap="round" stroke-linejoin="round" stroke-miterlimit="10" stroke-width="2" stroke-dasharray=""/><path fill="none" stroke="rgb(255,255,255)" paint-order="fill stroke markers" d=" M 253.15982860512327 351.88452380952344 L 282.62118805577103 351.88452380952344 L 223.6984691544755 351.88452380952344 L 253.15982860512327 351.88452380952344 L 282.621188055771 351.88452380952344 L 223.69846915447545 351.88452380952344 L 253.15982860512324 351.88452380952344 L 253.15982860512327 351.88452380952344 L 253.15982860512327 351.88452380952344 Z" stroke-opacity="1" stroke-linecap="round" stroke-linejoin="round" stroke-miterlimit="10" stroke-width="2" stroke-dasharray=""/><path fill="none" stroke="rgb(255,255,255)" paint-order="fill stroke markers" d=" M 253.15982860512307 396.5345238095234 L 282.6211880557708 396.5345238095234 L 223.69846915447528 396.5345238095234 L 253.15982860512307 396.5345238095234 L 282.6211880557708 396.5345238095234 L 223.69846915447525 396.5345238095234 L 253.15982860512304 396.5345238095234 L 253.15982860512307 396.5345238095234 L 253.15982860512307 396.5345238095234 Z" stroke-opacity="1" stroke-linecap="round" stroke-linejoin="round" stroke-miterlimit="10" stroke-width="2" stroke-dasharray=""/><path fill="none" stroke="rgb(255,255,255)" paint-order="fill stroke markers" d=" M 253.15982860512287 441.1845238095234 L 282.62118805577063 441.1845238095234 L 223.6984691544751 441.1845238095234 L 253.15982860512287 441.1845238095234 L 282.6211880557706 441.1845238095234 L 223.69846915447505 441.1845238095234 L 253.15982860512284 441.1845238095234 L 253.15982860512287 441.1845238095234 L 253.15982860512287 441.1845238095234 Z" stroke-opacity="1" stroke-linecap="round" stroke-linejoin="round" stroke-miterlimit="10" stroke-width="2" stroke-dasharray=""/><path fill="none" stroke="rgb(255,255,255)" paint-order="fill stroke markers" d=" M 253.15982860512267 485.8345238095234 L 282.6211880557704 485.8345238095234 L 223.69846915447488 485.8345238095234 L 253.15982860512267 485.8345238095234 L 282.6211880557704 485.8345238095234 L 223.69846915447485 485.8345238095234 L 253.15982860512264 485.8345238095234 L 253.15982860512267 485.8345238095234 L 253.15982860512267 485.8345238095234 Z" stroke-opacity="1" stroke-linecap="round" stroke-linejoin="round" stroke-miterlimit="10" stroke-width="2" stroke-dasharray=""/><path fill="none" stroke="rgb(255,255,255)" paint-order="fill stroke markers" d=" M 253.15982860512247 530.4845238095234 L 282.62118805577023 530.4845238095234 L 223.6984691544747 530.4845238095234 L 253.15982860512247 530.4845238095234 L 282.6211880557702 530.4845238095234 L 223.69846915447465 530.4845238095234 L 253.15982860512244 530.4845238095234 L 253.15982860512247 530.4845238095234 L 253.15982860512247 530.4845238095234 Z" stroke-opacity="1" stroke-linecap="round" stroke-linejoin="round" stroke-miterlimit="10" stroke-width="2" stroke-dasharray=""/><path fill="none" stroke="rgb(255,255,255)" paint-order="fill stroke markers" d=" M 253.15982860512227 575.1345238095233 L 282.62118805577 575.1345238095233 L 223.69846915447448 575.1345238095233 L 253.15982860512227 575.1345238095233 L 282.62118805577 575.1345238095233 L 223.69846915447445 575.1345238095233 L 253.15982860512224 575.1345238095233 L 253.15982860512227 575.1345238095233 L 253.15982860512227 575.1345238095233 Z" stroke-opacity="1" stroke-linecap="round" stroke-linejoin="round" stroke-miterlimit="10" stroke-width="2" stroke-dasharray=""/><path fill="none" stroke="rgb(255,255,255)" paint-order="fill stroke markers" d=" M 291.8278628840974 597.4595238095234 L 321.28922233474515 597.4595238095234 L 262.3665034334496 597.4595238095234 L 291.8278628840974 597.4595238095234 L 321.2892223347451 597.4595238095234 L 262.36650343344957 597.4595238095234 L 291.8278628840974 597.4595238095234 L 291.8278628840974 597.4595238095234 L 291.8278628840974 597.4595238095234 Z" stroke-opacity="1" stroke-linecap="round" stroke-linejoin="round" stroke-miterlimit="10" stroke-width="2" stroke-dasharray=""/><path fill="none" stroke="rgb(255,255,255)" paint-order="fill stroke markers" d=" M 330.4958971630725 619.7845238095234 L 359.9572566137203 619.7845238095234 L 301.03453771242476 619.7845238095234 L 330.4958971630725 619.7845238095234 L 359.95725661372023 619.7845238095234 L 301.0345377124247 619.7845238095234 L 330.4958971630725 619.7845238095234 L 330.4958971630725 619.7845238095234 L 330.4958971630725 619.7845238095234 Z" stroke-opacity="1" stroke-linecap="round" stroke-linejoin="round" stroke-miterlimit="10" stroke-width="2" stroke-dasharray=""/><path fill="none" stroke="rgb(255,255,255)" paint-order="fill stroke markers" d=" M 369.16393144204767 642.1095238095235 L 398.62529089269543 642.1095238095235 L 339.7025719913999 642.1095238095235 L 369.16393144204767 642.1095238095235 L 398.6252908926954 642.1095238095235 L 339.70257199139985 642.1095238095235 L 369.16393144204767 642.1095238095235 L 369.16393144204767 642.1095238095235 L 369.16393144204767 642.1095238095235 Z" stroke-opacity="1" stroke-linecap="round" stroke-linejoin="round" stroke-miterlimit="10" stroke-width="2" stroke-dasharray=""/><path fill="none" stroke="rgb(255,255,255)" paint-order="fill stroke markers" d=" M 407.8319657210228 664.4345238095235 L 437.2933251716706 664.4345238095235 L 378.37060627037505 664.4345238095235 L 407.8319657210228 664.4345238095235 L 437.2933251716705 664.4345238095235 L 378.370606270375 664.4345238095235 L 407.8319657210228 664.4345238095235 L 407.8319657210228 664.4345238095235 L 407.8319657210228 664.4345238095235 Z" stroke-opacity="1" stroke-linecap="round" stroke-linejoin="round" stroke-miterlimit="10" stroke-width="2" stroke-dasharray=""/><path fill="none" stroke="rgb(255,255,255)" paint-order="fill stroke markers" d=" M 446.49999999999795 686.7595238095236 L 475.9613594506457 686.7595238095236 L 417.0386405493502 686.7595238095236 L 446.49999999999795 686.7595238095236 L 475.96135945064566 686.7595238095236 L 417.03864054935013 686.7595238095236 L 446.49999999999795 686.7595238095236 L 446.49999999999795 686.7595238095236 L 446.49999999999795 686.7595238095236 Z" stroke-opacity="1" stroke-linecap="round" stroke-linejoin="round" stroke-miterlimit="10" stroke-width="2" stroke-dasharray=""/><path fill="none" stroke="rgb(255,255,255)" paint-order="fill stroke markers" d=" M 485.1680342789732 664.4345238095237 L 514.6293937296209 664.4345238095237 L 455.70667482832545 664.4345238095237 L 485.1680342789732 664.4345238095237 L 514.6293937296209 664.4345238095237 L 455.7066748283254 664.4345238095237 L 485.1680342789732 664.4345238095237 L 485.1680342789732 664.4345238095237 L 485.1680342789732 664.4345238095237 Z" stroke-opacity="1" stroke-linecap="round" stroke-linejoin="round" stroke-miterlimit="10" stroke-width="2" stroke-dasharray=""/><path fill="none" stroke="rgb(255,255,255)" paint-order="fill stroke markers" d=" M 523.8360685579485 642.1095238095239 L 553.2974280085962 642.1095238095239 L 494.3747091073007 642.1095238095239 L 523.8360685579485 642.1095238095239 L 553.2974280085962 642.1095238095239 L 494.37470910730065 642.1095238095239 L 523.8360685579485 642.1095238095239 L 523.8360685579485 642.1095238095239 L 523.8360685579485 642.1095238095239 Z" stroke-opacity="1" stroke-linecap="round" stroke-linejoin="round" stroke-miterlimit="10" stroke-width="2" stroke-dasharray=""/><path fill="none" stroke="rgb(255,255,255)" paint-order="fill stroke markers" d=" M 562.5041028369237 619.7845238095241 L 591.9654622875714 619.7845238095241 L 533.0427433862759 619.7845238095241 L 562.5041028369237 619.7845238095241 L 591.9654622875714 619.7845238095241 L 533.0427433862759 619.7845238095241 L 562.5041028369237 619.7845238095241 L 562.5041028369237 619.7845238095241 L 562.5041028369237 619.7845238095241 Z" stroke-opacity="1" stroke-linecap="round" stroke-linejoin="round" stroke-miterlimit="10" stroke-width="2" stroke-dasharray=""/><path fill="none" stroke="rgb(255,255,255)" paint-order="fill stroke markers" d=" M 601.172137115899 597.4595238095243 L 630.6334965665467 597.4595238095243 L 571.7107776652512 597.4595238095243 L 601.172137115899 597.4595238095243 L 630.6334965665467 597.4595238095243 L 571.7107776652512 597.4595238095243 L 601.172137115899 597.4595238095243 L 601.172137115899 597.4595238095243 L 601.172137115899 597.4595238095243 Z" stroke-opacity="1" stroke-linecap="round" stroke-linejoin="round" stroke-miterlimit="10" stroke-width="2" stroke-dasharray=""/><path fill="none" stroke="rgb(255,255,255)" paint-order="fill stroke markers" d=" M 639.8401713948742 575.1345238095245 L 669.3015308455219 575.1345238095245 L 610.3788119442264 575.1345238095245 L 639.8401713948742 575.1345238095245 L 669.3015308455219 575.1345238095245 L 610.3788119442264 575.1345238095245 L 639.8401713948742 575.1345238095245 L 639.8401713948742 575.1345238095245 L 639.8401713948742 575.1345238095245 Z" stroke-opacity="1" stroke-linecap="round" stroke-linejoin="round" stroke-miterlimit="10" stroke-width="2" stroke-dasharray=""/><path fill="none" stroke="rgb(255,255,255)" paint-order="fill stroke markers" d=" M 639.8401713948745 530.4845238095245 L 669.3015308455222 530.4845238095245 L 610.3788119442266 530.4845238095245 L 639.8401713948745 530.4845238095245 L 669.3015308455222 530.4845238095245 L 610.3788119442266 530.4845238095245 L 639.8401713948745 530.4845238095245 L 639.8401713948745 530.4845238095245 L 639.8401713948745 530.4845238095245 Z" stroke-opacity="1" stroke-linecap="round" stroke-linejoin="round" stroke-miterlimit="10" stroke-width="2" stroke-dasharray=""/><path fill="none" stroke="rgb(255,255,255)" paint-order="fill stroke markers" d=" M 639.8401713948747 485.8345238095245 L 669.3015308455224 485.8345238095245 L 610.3788119442269 485.8345238095245 L 639.8401713948747 485.8345238095245 L 669.3015308455224 485.8345238095245 L 610.3788119442269 485.8345238095245 L 639.8401713948747 485.8345238095245 L 639.8401713948747 485.8345238095245 L 639.8401713948747 485.8345238095245 Z" stroke-opacity="1" stroke-linecap="round" stroke-linejoin="round" stroke-miterlimit="10" stroke-width="2" stroke-dasharray=""/><path fill="none" stroke="rgb(255,255,255)" paint-order="fill stroke markers" d=" M 639.8401713948749 441.18452380952453 L 669.3015308455226 441.18452380952453 L 610.3788119442271 441.18452380952453 L 639.8401713948749 441.18452380952453 L 669.3015308455226 441.18452380952453 L 610.3788119442271 441.18452380952453 L 639.8401713948749 441.18452380952453 L 639.8401713948749 441.18452380952453 L 639.8401713948749 441.18452380952453 Z" stroke-opacity="1" stroke-linecap="round" stroke-linejoin="round" stroke-miterlimit="10" stroke-width="2" stroke-dasharray=""/><path fill="none" stroke="rgb(255,255,255)" paint-order="fill stroke markers" d=" M 639.8401713948751 396.53452380952456 L 669.3015308455228 396.53452380952456 L 610.3788119442273 396.53452380952456 L 639.8401713948751 396.53452380952456 L 669.3015308455228 396.53452380952456 L 610.3788119442273 396.53452380952456 L 639.8401713948751 396.53452380952456 L 639.8401713948751 396.53452380952456 L 639.8401713948751 396.53452380952456 Z" stroke-opacity="1" stroke-linecap="round" stroke-linejoin="round" stroke-miterlimit="10" stroke-width="2" stroke-dasharray=""/><path fill="none" stroke="rgb(255,255,255)" paint-order="fill stroke markers" d=" M 639.8401713948754 351.8845238095246 L 669.3015308455231 351.8845238095246 L 610.3788119442276 351.8845238095246 L 639.8401713948754 351.8845238095246 L 669.3015308455231 351.8845238095246 L 610.3788119442276 351.8845238095246 L 639.8401713948754 351.8845238095246 L 639.8401713948754 351.8845238095246 L 639.8401713948754 351.8845238095246 Z" stroke-opacity="1" stroke-linecap="round" stroke-linejoin="round" stroke-miterlimit="10" stroke-width="2" stroke-dasharray=""/><path fill="none" stroke="rgb(255,255,255)" paint-order="fill stroke markers" d=" M 639.8401713948756 307.2345238095246 L 669.3015308455233 307.2345238095246 L 610.3788119442278 307.2345238095246 L 639.8401713948756 307.2345238095246 L 669.3015308455233 307.2345238095246 L 610.3788119442278 307.2345238095246 L 639.8401713948756 307.2345238095246 L 639.8401713948756 307.2345238095246 L 639.8401713948756 307.2345238095246 Z" stroke-opacity="1" stroke-linecap="round" stroke-linejoin="round" stroke-miterlimit="10" stroke-width="2" stroke-dasharray=""/><path fill="none" stroke="rgb(255,255,255)" paint-order="fill stroke markers" d=" M 601.1721371159005 284.9095238095245 L 630.6334965665482 284.9095238095245 L 571.7107776652526 284.9095238095245 L 601.1721371159005 284.9095238095245 L 630.6334965665482 284.9095238095245 L 571.7107776652526 284.9095238095245 L 601.1721371159005 284.9095238095245 L 601.1721371159005 284.9095238095245 L 601.1721371159005 284.9095238095245 Z" stroke-opacity="1" stroke-linecap="round" stroke-linejoin="round" stroke-miterlimit="10" stroke-width="2" stroke-dasharray=""/><path fill="none" stroke="rgb(255,255,255)" paint-order="fill stroke markers" d=" M 562.5041028369253 262.5845238095244 L 591.965462287573 262.5845238095244 L 533.0427433862775 262.5845238095244 L 562.5041028369253 262.5845238095244 L 591.965462287573 262.5845238095244 L 533.0427433862775 262.5845238095244 L 562.5041028369253 262.5845238095244 L 562.5041028369253 262.5845238095244 L 562.5041028369253 262.5845238095244 Z" stroke-opacity="1" stroke-linecap="round" stroke-linejoin="round" stroke-miterlimit="10" stroke-width="2" stroke-dasharray=""/><path fill="none" stroke="rgb(255,255,255)" paint-order="fill stroke markers" d=" M 523.8360685579502 240.25952380952432 L 553.2974280085979 240.25952380952432 L 494.3747091073024 240.25952380952432 L 523.8360685579502 240.25952380952432 L 553.2974280085979 240.25952380952432 L 494.37470910730235 240.25952380952432 L 523.8360685579502 240.25952380952432 L 523.8360685579502 240.25952380952432 L 523.8360685579502 240.25952380952432 Z" stroke-opacity="1" stroke-linecap="round" stroke-linejoin="round" stroke-miterlimit="10" stroke-width="2" stroke-dasharray=""/><path fill="none" stroke="rgb(255,255,255)" paint-order="fill stroke markers" d=" M 485.16803427897503 217.93452380952422 L 514.6293937296227 217.93452380952422 L 455.70667482832727 217.93452380952422 L 485.16803427897503 217.93452380952422 L 514.6293937296227 217.93452380952422 L 455.7066748283272 217.93452380952422 L 485.16803427897503 217.93452380952422 L 485.16803427897503 217.93452380952422 L 485.16803427897503 217.93452380952422 Z" stroke-opacity="1" stroke-linecap="round" stroke-linejoin="round" stroke-miterlimit="10" stroke-width="2" stroke-dasharray=""/><path fill="none" stroke="rgb(255,255,255)" paint-order="fill stroke markers" d=" M 446.4999999999999 195.60952380952412 L 475.96135945064765 195.60952380952412 L 417.0386405493521 195.60952380952412 L 446.4999999999999 195.60952380952412 L 475.9613594506476 195.60952380952412 L 417.03864054935207 195.60952380952412 L 446.4999999999999 195.60952380952412 L 446.4999999999999 195.60952380952412 L 446.4999999999999 195.60952380952412 Z" stroke-opacity="1" stroke-linecap="round" stroke-linejoin="round" stroke-miterlimit="10" stroke-width="2" stroke-dasharray=""/><path fill="none" stroke="rgb(255,255,255)" paint-order="fill stroke markers" d=" M 407.83196572102463 217.93452380952397 L 437.2933251716724 217.93452380952397 L 378.37060627037687 217.93452380952397 L 407.83196572102463 217.93452380952397 L 437.29332517167234 217.93452380952397 L 378.3706062703768 217.93452380952397 L 407.83196572102463 217.93452380952397 L 407.83196572102463 217.93452380952397 L 407.83196572102463 217.93452380952397 Z" stroke-opacity="1" stroke-linecap="round" stroke-linejoin="round" stroke-miterlimit="10" stroke-width="2" stroke-dasharray=""/><path fill="none" stroke="rgb(255,255,255)" paint-order="fill stroke markers" d=" M 369.1639314420494 240.2595238095238 L 398.62529089269714 240.2595238095238 L 339.7025719914016 240.2595238095238 L 369.1639314420494 240.2595238095238 L 398.6252908926971 240.2595238095238 L 339.70257199140156 240.2595238095238 L 369.1639314420494 240.2595238095238 L 369.1639314420494 240.2595238095238 L 369.1639314420494 240.2595238095238 Z" stroke-opacity="1" stroke-linecap="round" stroke-linejoin="round" stroke-miterlimit="10" stroke-width="2" stroke-dasharray=""/><path fill="none" stroke="rgb(255,255,255)" paint-order="fill stroke markers" d=" M 330.4958971630741 262.58452380952366 L 359.9572566137219 262.58452380952366 L 301.03453771242636 262.58452380952366 L 330.4958971630741 262.58452380952366 L 359.9572566137218 262.58452380952366 L 301.0345377124263 262.58452380952366 L 330.4958971630741 262.58452380952366 L 330.4958971630741 262.58452380952366 L 330.4958971630741 262.58452380952366 Z" stroke-opacity="1" stroke-linecap="round" stroke-linejoin="round" stroke-miterlimit="10" stroke-width="2" stroke-dasharray=""/><path fill="none" stroke="rgb(255,255,255)" paint-order="fill stroke markers" d=" M 291.82786288409886 284.9095238095235 L 321.2892223347466 284.9095238095235 L 262.3665034334511 284.9095238095235 L 291.82786288409886 284.9095238095235 L 321.28922233474657 284.9095238095235 L 262.36650343345104 284.9095238095235 L 291.82786288409886 284.9095238095235 L 291.82786288409886 284.9095238095235 L 291.82786288409886 284.9095238095235 Z" stroke-opacity="1" stroke-linecap="round" stroke-linejoin="round" stroke-miterlimit="10" stroke-width="2" stroke-dasharray=""/><path fill="none" stroke="rgb(255,255,255)" paint-order="fill stroke markers" d=" M 253.1598286051236 307.23452380952335 L 282.62118805577137 307.23452380952335 L 223.69846915447584 307.23452380952335 L 253.1598286051236 307.23452380952335 L 282.6211880557713 307.23452380952335 L 223.6984691544758 307.23452380952335 L 253.15982860512358 307.23452380952335 L 253.1598286051236 307.23452380952335 L 253.1598286051236 307.23452380952335 Z" stroke-opacity="1" stroke-linecap="round" stroke-linejoin="round" stroke-miterlimit="10" stroke-width="2" stroke-dasharray=""/><path fill="none" stroke="rgb(255,255,255)" paint-order="fill stroke markers" d=" M 214.49179432614835 329.5595238095232 L 243.9531537767961 329.5595238095232 L 185.0304348755006 329.5595238095232 L 214.49179432614835 329.5595238095232 L 243.95315377679609 329.5595238095232 L 185.03043487550053 329.5595238095232 L 214.49179432614832 329.5595238095232 L 214.49179432614835 329.5595238095232 L 214.49179432614835 329.5595238095232 Z" stroke-opacity="1" stroke-linecap="round" stroke-linejoin="round" stroke-miterlimit="10" stroke-width="2" stroke-dasharray=""/><path fill="none" stroke="rgb(255,255,255)" paint-order="fill stroke markers" d=" M 214.49179432614812 374.2095238095232 L 243.9531537767959 374.2095238095232 L 185.03043487550036 374.2095238095232 L 214.49179432614812 374.2095238095232 L 243.95315377679586 374.2095238095232 L 185.0304348755003 374.2095238095232 L 214.4917943261481 374.2095238095232 L 214.49179432614812 374.2095238095232 L 214.49179432614812 374.2095238095232 Z" stroke-opacity="1" stroke-linecap="round" stroke-linejoin="round" stroke-miterlimit="10" stroke-width="2" stroke-dasharray=""/><path fill="none" stroke="rgb(255,255,255)" paint-order="fill stroke markers" d=" M 214.4917943261479 418.8595238095232 L 243.95315377679566 418.8595238095232 L 185.03043487550013 418.8595238095232 L 214.4917943261479 418.8595238095232 L 243.95315377679563 418.8595238095232 L 185.03043487550008 418.8595238095232 L 214.49179432614787 418.8595238095232 L 214.4917943261479 418.8595238095232 L 214.4917943261479 418.8595238095232 Z" stroke-opacity="1" stroke-linecap="round" stroke-linejoin="round" stroke-miterlimit="10" stroke-width="2" stroke-dasharray=""/><path fill="none" stroke="rgb(255,255,255)" paint-order="fill stroke markers" d=" M 214.49179432614767 463.50952380952316 L 243.95315377679543 463.50952380952316 L 185.0304348754999 463.50952380952316 L 214.49179432614767 463.50952380952316 L 243.9531537767954 463.50952380952316 L 185.03043487549985 463.50952380952316 L 214.49179432614764 463.50952380952316 L 214.49179432614767 463.50952380952316 L 214.49179432614767 463.50952380952316 Z" stroke-opacity="1" stroke-linecap="round" stroke-linejoin="round" stroke-miterlimit="10" stroke-width="2" stroke-dasharray=""/><path fill="none" stroke="rgb(255,255,255)" paint-order="fill stroke markers" d=" M 214.49179432614744 508.15952380952314 L 243.9531537767952 508.15952380952314 L 185.03043487549968 508.15952380952314 L 214.49179432614744 508.15952380952314 L 243.95315377679518 508.15952380952314 L 185.03043487549962 508.15952380952314 L 214.4917943261474 508.15952380952314 L 214.49179432614744 508.15952380952314 L 214.49179432614744 508.15952380952314 Z" stroke-opacity="1" stroke-linecap="round" stroke-linejoin="round" stroke-miterlimit="10" stroke-width="2" stroke-dasharray=""/><path fill="none" stroke="rgb(255,255,255)" paint-order="fill stroke markers" d=" M 214.49179432614721 552.8095238095232 L 243.95315377679498 552.8095238095232 L 185.03043487549945 552.8095238095232 L 214.49179432614721 552.8095238095232 L 243.95315377679495 552.8095238095232 L 185.0304348754994 552.8095238095232 L 214.4917943261472 552.8095238095232 L 214.49179432614721 552.8095238095232 L 214.49179432614721 552.8095238095232 Z" stroke-opacity="1" stroke-linecap="round" stroke-linejoin="round" stroke-miterlimit="10" stroke-width="2" stroke-dasharray=""/><path fill="none" stroke="rgb(255,255,255)" paint-order="fill stroke markers" d=" M 214.491794326147 597.4595238095231 L 243.95315377679475 597.4595238095231 L 185.03043487549922 597.4595238095231 L 214.491794326147 597.4595238095231 L 243.95315377679472 597.4595238095231 L 185.03043487549917 597.4595238095231 L 214.49179432614696 597.4595238095231 L 214.491794326147 597.4595238095231 L 214.491794326147 597.4595238095231 Z" stroke-opacity="1" stroke-linecap="round" stroke-linejoin="round" stroke-miterlimit="10" stroke-width="2" stroke-dasharray=""/><path fill="none" stroke="rgb(255,255,255)" paint-order="fill stroke markers" d=" M 253.15982860512204 619.7845238095234 L 282.6211880557698 619.7845238095234 L 223.69846915447425 619.7845238095234 L 253.15982860512204 619.7845238095234 L 282.6211880557698 619.7845238095234 L 223.69846915447422 619.7845238095234 L 253.15982860512202 619.7845238095234 L 253.15982860512204 619.7845238095234 L 253.15982860512204 619.7845238095234 Z" stroke-opacity="1" stroke-linecap="round" stroke-linejoin="round" stroke-miterlimit="10" stroke-width="2" stroke-dasharray=""/><path fill="none" stroke="rgb(255,255,255)" paint-order="fill stroke markers" d=" M 291.8278628840971 642.1095238095237 L 321.28922233474486 642.1095238095237 L 262.36650343344934 642.1095238095237 L 291.8278628840971 642.1095238095237 L 321.2892223347448 642.1095238095237 L 262.3665034334493 642.1095238095237 L 291.8278628840971 642.1095238095237 L 291.8278628840971 642.1095238095237 L 291.8278628840971 642.1095238095237 Z" stroke-opacity="1" stroke-linecap="round" stroke-linejoin="round" stroke-miterlimit="10" stroke-width="2" stroke-dasharray=""/><path fill="none" stroke="rgb(255,255,255)" paint-order="fill stroke markers" d=" M 330.49589716307213 664.434523809524 L 359.9572566137199 664.434523809524 L 301.03453771242437 664.434523809524 L 330.49589716307213 664.434523809524 L 359.95725661371984 664.434523809524 L 301.0345377124243 664.434523809524 L 330.49589716307213 664.434523809524 L 330.49589716307213 664.434523809524 L 330.49589716307213 664.434523809524 Z" stroke-opacity="1" stroke-linecap="round" stroke-linejoin="round" stroke-miterlimit="10" stroke-width="2" stroke-dasharray=""/><path fill="none" stroke="rgb(255,255,255)" paint-order="fill stroke markers" d=" M 369.16393144204716 686.7595238095242 L 398.6252908926949 686.7595238095242 L 339.7025719913994 686.7595238095242 L 369.16393144204716 686.7595238095242 L 398.62529089269486 686.7595238095242 L 339.70257199139934 686.7595238095242 L 369.16393144204716 686.7595238095242 L 369.16393144204716 686.7595238095242 L 369.16393144204716 686.7595238095242 Z" stroke-opacity="1" stroke-linecap="round" stroke-linejoin="round" stroke-miterlimit="10" stroke-width="2" stroke-dasharray=""/><path fill="none" stroke="rgb(255,255,255)" paint-order="fill stroke markers" d=" M 407.8319657210222 709.0845238095245 L 437.29332517166995 709.0845238095245 L 378.3706062703744 709.0845238095245 L 407.8319657210222 709.0845238095245 L 437.2933251716699 709.0845238095245 L 378.37060627037437 709.0845238095245 L 407.8319657210222 709.0845238095245 L 407.8319657210222 709.0845238095245 L 407.8319657210222 709.0845238095245 Z" stroke-opacity="1" stroke-linecap="round" stroke-linejoin="round" stroke-miterlimit="10" stroke-width="2" stroke-dasharray=""/><path fill="none" stroke="rgb(255,255,255)" paint-order="fill stroke markers" d=" M 446.4999999999972 731.4095238095248 L 475.961359450645 731.4095238095248 L 417.03864054934945 731.4095238095248 L 446.4999999999972 731.4095238095248 L 475.9613594506449 731.4095238095248 L 417.0386405493494 731.4095238095248 L 446.4999999999972 731.4095238095248 L 446.4999999999972 731.4095238095248 L 446.4999999999972 731.4095238095248 Z" stroke-opacity="1" stroke-linecap="round" stroke-linejoin="round" stroke-miterlimit="10" stroke-width="2" stroke-dasharray=""/><path fill="none" stroke="rgb(255,255,255)" paint-order="fill stroke markers" d=" M 485.1680342789726 709.0845238095251 L 514.6293937296203 709.0845238095251 L 455.7066748283248 709.0845238095251 L 485.1680342789726 709.0845238095251 L 514.6293937296203 709.0845238095251 L 455.70667482832476 709.0845238095251 L 485.1680342789726 709.0845238095251 L 485.1680342789726 709.0845238095251 L 485.1680342789726 709.0845238095251 Z" stroke-opacity="1" stroke-linecap="round" stroke-linejoin="round" stroke-miterlimit="10" stroke-width="2" stroke-dasharray=""/><path fill="none" stroke="rgb(255,255,255)" paint-order="fill stroke markers" d=" M 523.8360685579479 686.7595238095254 L 553.2974280085956 686.7595238095254 L 494.37470910730013 686.7595238095254 L 523.8360685579479 686.7595238095254 L 553.2974280085956 686.7595238095254 L 494.3747091073001 686.7595238095254 L 523.8360685579479 686.7595238095254 L 523.8360685579479 686.7595238095254 L 523.8360685579479 686.7595238095254 Z" stroke-opacity="1" stroke-linecap="round" stroke-linejoin="round" stroke-miterlimit="10" stroke-width="2" stroke-dasharray=""/><path fill="none" stroke="rgb(255,255,255)" paint-order="fill stroke markers" d=" M 562.5041028369233 664.4345238095257 L 591.965462287571 664.4345238095257 L 533.0427433862754 664.4345238095257 L 562.5041028369233 664.4345238095257 L 591.965462287571 664.4345238095257 L 533.0427433862754 664.4345238095257 L 562.5041028369233 664.4345238095257 L 562.5041028369233 664.4345238095257 L 562.5041028369233 664.4345238095257 Z" stroke-opacity="1" stroke-linecap="round" stroke-linejoin="round" stroke-miterlimit="10" stroke-width="2" stroke-dasharray=""/><path fill="none" stroke="rgb(255,255,255)" paint-order="fill stroke markers" d=" M 601.1721371158986 642.109523809526 L 630.6334965665463 642.109523809526 L 571.7107776652508 642.109523809526 L 601.1721371158986 642.109523809526 L 630.6334965665463 642.109523809526 L 571.7107776652508 642.109523809526 L 601.1721371158986 642.109523809526 L 601.1721371158986 642.109523809526 L 601.1721371158986 642.109523809526 Z" stroke-opacity="1" stroke-linecap="round" stroke-linejoin="round" stroke-miterlimit="10" stroke-width="2" stroke-dasharray=""/><path fill="none" stroke="rgb(255,255,255)" paint-order="fill stroke markers" d=" M 639.840171394874 619.7845238095263 L 669.3015308455217 619.7845238095263 L 610.3788119442262 619.7845238095263 L 639.840171394874 619.7845238095263 L 669.3015308455217 619.7845238095263 L 610.3788119442262 619.7845238095263 L 639.840171394874 619.7845238095263 L 639.840171394874 619.7845238095263 L 639.840171394874 619.7845238095263 Z" stroke-opacity="1" stroke-linecap="round" stroke-linejoin="round" stroke-miterlimit="10" stroke-width="2" stroke-dasharray=""/><path fill="none" stroke="rgb(255,255,255)" paint-order="fill stroke markers" d=" M 678.5082056738494 597.4595238095266 L 707.9695651244971 597.4595238095266 L 649.0468462232016 597.4595238095266 L 678.5082056738494 597.4595238095266 L 707.9695651244971 597.4595238095266 L 649.0468462232016 597.4595238095266 L 678.5082056738494 597.4595238095266 L 678.5082056738494 597.4595238095266 L 678.5082056738494 597.4595238095266 Z" stroke-opacity="1" stroke-linecap="round" stroke-linejoin="round" stroke-miterlimit="10" stroke-width="2" stroke-dasharray=""/><path fill="none" stroke="rgb(255,255,255)" paint-order="fill stroke markers" d=" M 678.5082056738495 552.8095238095266 L 707.9695651244972 552.8095238095266 L 649.0468462232017 552.8095238095266 L 678.5082056738495 552.8095238095266 L 707.9695651244972 552.8095238095266 L 649.0468462232017 552.8095238095266 L 678.5082056738495 552.8095238095266 L 678.5082056738495 552.8095238095266 L 678.5082056738495 552.8095238095266 Z" stroke-opacity="1" stroke-linecap="round" stroke-linejoin="round" stroke-miterlimit="10" stroke-width="2" stroke-dasharray=""/><path fill="none" stroke="rgb(255,255,255)" paint-order="fill stroke markers" d=" M 678.5082056738496 508.1595238095266 L 707.9695651244973 508.1595238095266 L 649.0468462232018 508.1595238095266 L 678.5082056738496 508.1595238095266 L 707.9695651244973 508.1595238095266 L 649.0468462232018 508.1595238095266 L 678.5082056738496 508.1595238095266 L 678.5082056738496 508.1595238095266 L 678.5082056738496 508.1595238095266 Z" stroke-opacity="1" stroke-linecap="round" stroke-linejoin="round" stroke-miterlimit="10" stroke-width="2" stroke-dasharray=""/><path fill="none" stroke="rgb(255,255,255)" paint-order="fill stroke markers" d=" M 678.5082056738497 463.5095238095266 L 707.9695651244974 463.5095238095266 L 649.0468462232019 463.5095238095266 L 678.5082056738497 463.5095238095266 L 707.9695651244974 463.5095238095266 L 649.0468462232019 463.5095238095266 L 678.5082056738497 463.5095238095266 L 678.5082056738497 463.5095238095266 L 678.5082056738497 463.5095238095266 Z" stroke-opacity="1" stroke-linecap="round" stroke-linejoin="round" stroke-miterlimit="10" stroke-width="2" stroke-dasharray=""/><path fill="none" stroke="rgb(255,255,255)" paint-order="fill stroke markers" d=" M 678.5082056738498 418.85952380952665 L 707.9695651244975 418.85952380952665 L 649.046846223202 418.85952380952665 L 678.5082056738498 418.85952380952665 L 707.9695651244975 418.85952380952665 L 649.046846223202 418.85952380952665 L 678.5082056738498 418.85952380952665 L 678.5082056738498 418.85952380952665 L 678.5082056738498 418.85952380952665 Z" stroke-opacity="1" stroke-linecap="round" stroke-linejoin="round" stroke-miterlimit="10" stroke-width="2" stroke-dasharray=""/><path fill="none" stroke="rgb(255,255,255)" paint-order="fill stroke markers" d=" M 678.50820567385 374.2095238095267 L 707.9695651244976 374.2095238095267 L 649.0468462232021 374.2095238095267 L 678.50820567385 374.2095238095267 L 707.9695651244976 374.2095238095267 L 649.0468462232021 374.2095238095267 L 678.50820567385 374.2095238095267 L 678.50820567385 374.2095238095267 L 678.50820567385 374.2095238095267 Z" stroke-opacity="1" stroke-linecap="round" stroke-linejoin="round" stroke-miterlimit="10" stroke-width="2" stroke-dasharray=""/><path fill="none" stroke="rgb(255,255,255)" paint-order="fill stroke markers" d=" M 678.5082056738501 329.5595238095267 L 707.9695651244978 329.5595238095267 L 649.0468462232022 329.5595238095267 L 678.5082056738501 329.5595238095267 L 707.9695651244978 329.5595238095267 L 649.0468462232022 329.5595238095267 L 678.5082056738501 329.5595238095267 L 678.5082056738501 329.5595238095267 L 678.5082056738501 329.5595238095267 Z" stroke-opacity="1" stroke-linecap="round" stroke-linejoin="round" stroke-miterlimit="10" stroke-width="2" stroke-dasharray=""/><path fill="none" stroke="rgb(255,255,255)" paint-order="fill stroke markers" d=" M 678.5082056738502 284.9095238095267 L 707.9695651244979 284.9095238095267 L 649.0468462232024 284.9095238095267 L 678.5082056738502 284.9095238095267 L 707.9695651244979 284.9095238095267 L 649.0468462232024 284.9095238095267 L 678.5082056738502 284.9095238095267 L 678.5082056738502 284.9095238095267 L 678.5082056738502 284.9095238095267 Z" stroke-opacity="1" stroke-linecap="round" stroke-linejoin="round" stroke-miterlimit="10" stroke-width="2" stroke-dasharray=""/><path fill="none" stroke="rgb(255,255,255)" paint-order="fill stroke markers" d=" M 639.840171394875 262.5845238095266 L 669.3015308455227 262.5845238095266 L 610.3788119442272 262.5845238095266 L 639.840171394875 262.5845238095266 L 669.3015308455227 262.5845238095266 L 610.3788119442272 262.5845238095266 L 639.840171394875 262.5845238095266 L 639.840171394875 262.5845238095266 L 639.840171394875 262.5845238095266 Z" stroke-opacity="1" stroke-linecap="round" stroke-linejoin="round" stroke-miterlimit="10" stroke-width="2" stroke-dasharray=""/><path fill="none" stroke="rgb(255,255,255)" paint-order="fill stroke markers" d=" M 601.1721371158999 240.25952380952654 L 630.6334965665476 240.25952380952654 L 571.7107776652521 240.25952380952654 L 601.1721371158999 240.25952380952654 L 630.6334965665476 240.25952380952654 L 571.7107776652521 240.25952380952654 L 601.1721371158999 240.25952380952654 L 601.1721371158999 240.25952380952654 L 601.1721371158999 240.25952380952654 Z" stroke-opacity="1" stroke-linecap="round" stroke-linejoin="round" stroke-miterlimit="10" stroke-width="2" stroke-dasharray=""/><path fill="none" stroke="rgb(255,255,255)" paint-order="fill stroke markers" d=" M 562.5041028369247 217.93452380952644 L 591.9654622875724 217.93452380952644 L 533.0427433862769 217.93452380952644 L 562.5041028369247 217.93452380952644 L 591.9654622875724 217.93452380952644 L 533.0427433862769 217.93452380952644 L 562.5041028369247 217.93452380952644 L 562.5041028369247 217.93452380952644 L 562.5041028369247 217.93452380952644 Z" stroke-opacity="1" stroke-linecap="round" stroke-linejoin="round" stroke-miterlimit="10" stroke-width="2" stroke-dasharray=""/><path fill="none" stroke="rgb(255,255,255)" paint-order="fill stroke markers" d=" M 523.8360685579496 195.60952380952634 L 553.2974280085973 195.60952380952634 L 494.37470910730184 195.60952380952634 L 523.8360685579496 195.60952380952634 L 553.2974280085973 195.60952380952634 L 494.3747091073018 195.60952380952634 L 523.8360685579496 195.60952380952634 L 523.8360685579496 195.60952380952634 L 523.8360685579496 195.60952380952634 Z" stroke-opacity="1" stroke-linecap="round" stroke-linejoin="round" stroke-miterlimit="10" stroke-width="2" stroke-dasharray=""/><path fill="none" stroke="rgb(255,255,255)" paint-order="fill stroke markers" d=" M 485.16803427897446 173.28452380952623 L 514.6293937296222 173.28452380952623 L 455.7066748283267 173.28452380952623 L 485.16803427897446 173.28452380952623 L 514.6293937296222 173.28452380952623 L 455.70667482832664 173.28452380952623 L 485.16803427897446 173.28452380952623 L 485.16803427897446 173.28452380952623 L 485.16803427897446 173.28452380952623 Z" stroke-opacity="1" stroke-linecap="round" stroke-linejoin="round" stroke-miterlimit="10" stroke-width="2" stroke-dasharray=""/><path fill="none" stroke="rgb(255,255,255)" paint-order="fill stroke markers" d=" M 446.4999999999993 150.95952380952613 L 475.9613594506471 150.95952380952613 L 417.03864054935156 150.95952380952613 L 446.4999999999993 150.95952380952613 L 475.961359450647 150.95952380952613 L 417.0386405493515 150.95952380952613 L 446.4999999999993 150.95952380952613 L 446.4999999999993 150.95952380952613 L 446.4999999999993 150.95952380952613 Z" stroke-opacity="1" stroke-linecap="round" stroke-linejoin="round" stroke-miterlimit="10" stroke-width="2" stroke-dasharray=""/><path fill="none" stroke="rgb(255,255,255)" paint-order="fill stroke markers" d=" M 407.83196572102406 173.28452380952598 L 437.2933251716718 173.28452380952598 L 378.3706062703763 173.28452380952598 L 407.83196572102406 173.28452380952598 L 437.29332517167177 173.28452380952598 L 378.37060627037624 173.28452380952598 L 407.83196572102406 173.28452380952598 L 407.83196572102406 173.28452380952598 L 407.83196572102406 173.28452380952598 Z" stroke-opacity="1" stroke-linecap="round" stroke-linejoin="round" stroke-miterlimit="10" stroke-width="2" stroke-dasharray=""/><path fill="none" stroke="rgb(255,255,255)" paint-order="fill stroke markers" d=" M 369.1639314420488 195.60952380952583 L 398.62529089269657 195.60952380952583 L 339.70257199140104 195.60952380952583 L 369.1639314420488 195.60952380952583 L 398.6252908926965 195.60952380952583 L 339.702571991401 195.60952380952583 L 369.1639314420488 195.60952380952583 L 369.1639314420488 195.60952380952583 L 369.1639314420488 195.60952380952583 Z" stroke-opacity="1" stroke-linecap="round" stroke-linejoin="round" stroke-miterlimit="10" stroke-width="2" stroke-dasharray=""/><path fill="none" stroke="rgb(255,255,255)" paint-order="fill stroke markers" d=" M 330.49589716307355 217.93452380952567 L 359.9572566137213 217.93452380952567 L 301.0345377124258 217.93452380952567 L 330.49589716307355 217.93452380952567 L 359.95725661372126 217.93452380952567 L 301.03453771242573 217.93452380952567 L 330.49589716307355 217.93452380952567 L 330.49589716307355 217.93452380952567 L 330.49589716307355 217.93452380952567 Z" stroke-opacity="1" stroke-linecap="round" stroke-linejoin="round" stroke-miterlimit="10" stroke-width="2" stroke-dasharray=""/><path fill="none" stroke="rgb(255,255,255)" paint-order="fill stroke markers" d=" M 291.8278628840983 240.25952380952552 L 321.28922233474606 240.25952380952552 L 262.36650343345053 240.25952380952552 L 291.8278628840983 240.25952380952552 L 321.289222334746 240.25952380952552 L 262.3665034334505 240.25952380952552 L 291.8278628840983 240.25952380952552 L 291.8278628840983 240.25952380952552 L 291.8278628840983 240.25952380952552 Z" stroke-opacity="1" stroke-linecap="round" stroke-linejoin="round" stroke-miterlimit="10" stroke-width="2" stroke-dasharray=""/><path fill="none" stroke="rgb(255,255,255)" paint-order="fill stroke markers" d=" M 253.15982860512304 262.58452380952536 L 282.6211880557708 262.58452380952536 L 223.69846915447528 262.58452380952536 L 253.15982860512304 262.58452380952536 L 282.62118805577074 262.58452380952536 L 223.69846915447522 262.58452380952536 L 253.159828605123 262.58452380952536 L 253.15982860512304 262.58452380952536 L 253.15982860512304 262.58452380952536 Z" stroke-opacity="1" stroke-linecap="round" stroke-linejoin="round" stroke-miterlimit="10" stroke-width="2" stroke-dasharray=""/><path fill="none" stroke="rgb(255,255,255)" paint-order="fill stroke markers" d=" M 214.49179432614778 284.9095238095252 L 243.95315377679555 284.9095238095252 L 185.03043487550002 284.9095238095252 L 214.49179432614778 284.9095238095252 L 243.95315377679552 284.9095238095252 L 185.03043487549996 284.9095238095252 L 214.49179432614775 284.9095238095252 L 214.49179432614778 284.9095238095252 L 214.49179432614778 284.9095238095252 Z" stroke-opacity="1" stroke-linecap="round" stroke-linejoin="round" stroke-miterlimit="10" stroke-width="2" stroke-dasharray=""/></g></svg>