<svg version="1.1" xmlns="http://www.w3.org/2000/svg" xmlns:xlink="http://www.w3.org/1999/xlink" width="893" height="893" viewBox="0 0 893 893"><defs/><g><rect fill="rgb(20,20,20)" stroke="none" x="0" y="0" width="893" height="893" transform="matrix(1 0 0 1 0 0)" fill-opacity="1"/><path fill="none" stroke="rgb(255,255,255)" paint-order="fill stroke markers" d=" M 446.5 472.01428571428573 L 490.6920391759716 472.01428571428573 L 402.3079608240283 472.01428571428573 L 446.5 472.01428571428573 L 490.69203917597156 472.01428571428573 L 402.30796082402827 472.01428571428573 L 446.49999999999994 472.01428571428573 L 446.5 472.01428571428573 L 446.5 472.01428571428573 Z" stroke-opacity="1" stroke-linecap="round" stroke-linejoin="round" stroke-miterlimit="10" stroke-width="2" stroke-dasharray=""/><path fill="none" stroke="rgb(255,255,255)" paint-order="fill stroke markers" d=" M 446.5 427.36428571428576 L 490.6920391759716 427.36428571428576 L 402.3079608240283 427.36428571428576 L 446.5 427.36428571428576 L 490.69203917597156 427.36428571428576 L 402.30796082402827 427.36428571428576 L 446.49999999999994 427.36428571428576 L 446.5 427.36428571428576 L 446.5 427.36428571428576 Z" stroke-opacity="1" stroke-linecap="round" stroke-linejoin="round" stroke-miterlimit="10" stroke-width="2" stroke-dasharray=""/><path fill="none" stroke="rgb(255,255,255)" paint-order="fill stroke markers" d=" M 407.8319657210248 449.68928571428575 L 452.0240048969964 449.68928571428575 L 363.63992654505313 449.68928571428575 L 407.8319657210248 449.68928571428575 L 452.0240048969964 449.68928571428575 L 363.6399265450531 449.68928571428575 L 407.83196572102474 449.68928571428575 L 407.8319657210248 449.68928571428575 L 407.8319657210248 449.68928571428575 Z" stroke-opacity="1" stroke-linecap="round" stroke-linejoin="round" stroke-miterlimit="10" stroke-width="2" stroke-dasharray=""/><path fill="none" stroke="rgb(255,255,255)" paint-order="fill stroke markers" d=" M 407.8319657210248 494.3392857142857 L 452.0240048969964 494.3392857142857 L 363.63992654505313 494.3392857142857 L 407.8319657210248 494.3392857142857 L 452.0240048969964 494.3392857142857 L 363.6399265450531 494.3392857142857 L 407.83196572102474 494.3392857142857 L 407.8319657210248 494.3392857142857 L 407.8319657210248 494.3392857142857 Z" stroke-opacity="1" stroke-linecap="round" stroke-linejoin="round" stroke-miterlimit="10" stroke-width="2" stroke-dasharray=""/><path fill="none" stroke="rgb(255,255,255)" paint-order="fill stroke markers" d=" M 446.5 516.6642857142857 L 490.6920391759716 516.6642857142857 L 402.3079608240283 516.6642857142857 L 446.5 516.6642857142857 L 490.69203917597156 516.6642857142857 L 402.30796082402827 516.6642857142857 L 446.49999999999994 516.6642857142857 L 446.5 516.6642857142857 L 446.5 516.6642857142857 Z" stroke-opacity="1" stroke-linecap="round" stroke-linejoin="round" stroke-miterlimit="10" stroke-width="2" stroke-dasharray=""/><path fill="none" stroke="rgb(255,255,255)" paint-order="fill stroke markers" d=" M 485.1680342789752 494.3392857142858 L 529.3600734549468 494.3392857142858 L 440.9759951030035 494.3392857142858 L 485.1680342789752 494.3392857142858 L 529.3600734549468 494.3392857142858 L 440.97599510300347 494.3392857142858 L 485.16803427897514 494.3392857142858 L 485.1680342789752 494.3392857142858 L 485.1680342789752 494.3392857142858 Z" stroke-opacity="1" stroke-linecap="round" stroke-linejoin="round" stroke-miterlimit="10" stroke-width="2" stroke-dasharray=""/><path fill="none" stroke="rgb(255,255,255)" paint-order="fill stroke markers" d=" M 485.1680342789752 449.6892857142858 L 529.3600734549468 449.6892857142858 L 440.9759951030035 449.6892857142858 L 485.1680342789752 449.6892857142858 L 529.3600734549468 449.6892857142858 L 440.97599510300347 449.6892857142858 L 485.16803427897514 449.6892857142858 L 485.1680342789752 449.6892857142858 L 485.1680342789752 449.6892857142858 Z" stroke-opacity="1" stroke-linecap="round" stroke-linejoin="round" stroke-miterlimit="10" stroke-width="2" stroke-dasharray=""/><path fill="none" stroke="rgb(255,255,255)" paint-order="fill stroke markers" d=" M 485.1680342789752 405.0392857142858 L 529.3600734549468 405.0392857142858 L 440.9759951030035 405.0392857142858 L 485.1680342789752 405.0392857142858 L 529.3600734549468 405.0392857142858 L 440.97599510300347 405.0392857142858 L 485.16803427897514 405.0392857142858 L 485.1680342789752 405.0392857142858 L 485.1680342789752 405.0392857142858 Z" stroke-opacity="1" stroke-linecap="round" stroke-linejoin="round" stroke-miterlimit="10" stroke-width="2" stroke-dasharray=""/><path fill="none" stroke="rgb(255,255,255)" paint-order="fill stroke markers" d=" M 446.5 382.7142857142858 L 490.6920391759716 382.7142857142858 L 402.3079608240283 382.7142857142858 L 446.5 382.7142857142858 L 490.69203917597156 382.7142857142858 L 402.30796082402827 382.7142857142858 L 446.49999999999994 382.7142857142858 L 446.5 382.7142857142858 L 446.5 382.7142857142858 Z" stroke-opacity="1" stroke-linecap="round" stroke-linejoin="round" stroke-miterlimit="10" stroke-width="2" stroke-dasharray=""/><path fill="none" stroke="rgb(255,255,255)" paint-order="fill stroke markers" d=" M 407.8319657210248 405.03928571428577 L 452.0240048969964 405.03928571428577 L 363.63992654505313 405.03928571428577 L 407.8319657210248 405.03928571428577 L 452.0240048969964 405.03928571428577 L 363.6399265450531 405.03928571428577 L 407.83196572102474 405.03928571428577 L 407.8319657210248 405.03928571428577 L 407.8319657210248 405.03928571428577 Z" stroke-opacity="1" stroke-linecap="round" stroke-linejoin="round" stroke-miterlimit="10" stroke-width="2" stroke-dasharray=""/><path fill="none" stroke="rgb(255,255,255)" paint-order="fill stroke markers" d=" M 369.1639314420496 427.36428571428576 L 413.3559706180212 427.36428571428576 L 324.97189226607793 427.36428571428576 L 369.1639314420496 427.36428571428576 L 413.35597061802116 427.36428571428576 L 324.9718922660779 427.36428571428576 L 369.16393144204955 427.36428571428576 L 369.1639314420496 427.36428571428576 L 369.1639314420496 427.36428571428576 Z" stroke-opacity="1" stroke-linecap="round" stroke-linejoin="round" stroke-miterlimit="10" stroke-width="2" stroke-dasharray=""/><path fill="none" stroke="rgb(255,255,255)" paint-order="fill stroke markers" d=" M 369.1639314420496 472.01428571428573 L 413.3559706180212 472.01428571428573 L 324.97189226607793 472.01428571428573 L 369.1639314420496 472.01428571428573 L 413.35597061802116 472.01428571428573 L 324.9718922660779 472.01428571428573 L 369.16393144204955 472.01428571428573 L 369.1639314420496 472.01428571428573 L 369.1639314420496 472.01428571428573 Z" stroke-opacity="1" stroke-linecap="round" stroke-linejoin="round" stroke-miterlimit="10" stroke-width="2" stroke-dasharray=""/><path fill="none" stroke="rgb(255,255,255)" paint-order="fill stroke markers" d=" M 369.1639314420496 516.6642857142857 L 413.3559706180212 516.6642857142857 L 324.97189226607793 516.6642857142857 L 369.1639314420496 516.6642857142857 L 413.35597061802116 516.6642857142857 L 324.9718922660779 516.6642857142857 L 369.16393144204955 516.6642857142857 L 369.1639314420496 516.6642857142857 L 369.1639314420496 516.6642857142857 Z" stroke-opacity="1" stroke-linecap="round" stroke-linejoin="round" stroke-miterlimit="10" stroke-width="2" stroke-dasharray=""/><path fill="none" stroke="rgb(255,255,255)" paint-order="fill stroke markers" d=" M 407.83196572102474 538.9892857142858 L 452.02400489699636 538.9892857142858 L 363.6399265450531 538.9892857142858 L 407.83196572102474 538.9892857142858 L 452.0240048969963 538.9892857142858 L 363.639926545053 538.9892857142858 L 407.8319657210247 538.9892857142858 L 407.83196572102474 538.9892857142858 L 407.83196572102474 538.9892857142858 Z" stroke-opacity="1" stroke-linecap="round" stroke-linejoin="round" stroke-miterlimit="10" stroke-width="2" stroke-dasharray=""/><path fill="none" stroke="rgb(255,255,255)" paint-order="fill stroke markers" d=" M 446.4999999999999 561.3142857142858 L 490.6920391759715 561.3142857142858 L 402.3079608240282 561.3142857142858 L 446.4999999999999 561.3142857142858 L 490.69203917597144 561.3142857142858 L 402.30796082402816 561.3142857142858 L 446.49999999999983 561.3142857142858 L 446.4999999999999 561.3142857142858 L 446.4999999999999 561.3142857142858 Z" stroke-opacity="1" stroke-linecap="round" stroke-linejoin="round" stroke-miterlimit="10" stroke-width="2" stroke-dasharray=""/><path fill="none" stroke="rgb(255,255,255)" paint-order="fill stroke markers" d=" M 485.1680342789751 538.9892857142859 L 529.3600734549467 538.9892857142859 L 440.9759951030034 538.9892857142859 L 485.1680342789751 538.9892857142859 L 529.3600734549467 538.9892857142859 L 440.97599510300336 538.9892857142859 L 485.16803427897503 538.9892857142859 L 485.1680342789751 538.9892857142859 L 485.1680342789751 538.9892857142859 Z" stroke-opacity="1" stroke-linecap="round" stroke-linejoin="round" stroke-miterlimit="10" stroke-width="2" stroke-dasharray=""/><path fill="none" stroke="rgb(255,255,255)" paint-order="fill stroke markers" d=" M 523.8360685579503 516.6642857142859 L 568.028107733922 516.6642857142859 L 479.6440293819786 516.6642857142859 L 523.8360685579503 516.6642857142859 L 568.0281077339218 516.6642857142859 L 479.64402938197856 516.6642857142859 L 523.8360685579503 516.6642857142859 L 523.8360685579503 516.6642857142859 L 523.8360685579503 516.6642857142859 Z" stroke-opacity="1" stroke-linecap="round" stroke-linejoin="round" stroke-miterlimit="10" stroke-width="2" stroke-dasharray=""/><path fill="none" stroke="rgb(255,255,255)" paint-order="fill stroke markers" d=" M 523.8360685579503 472.01428571428596 L 568.028107733922 472.01428571428596 L 479.6440293819786 472.01428571428596 L 523.8360685579503 472.01428571428596 L 568.0281077339218 472.01428571428596 L 479.64402938197856 472.01428571428596 L 523.8360685579503 472.01428571428596 L 523.8360685579503 472.01428571428596 L 523.8360685579503 472.01428571428596 Z" stroke-opacity="1" stroke-linecap="round" stroke-linejoin="round" stroke-miterlimit="10" stroke-width="2" stroke-dasharray=""/><path fill="none" stroke="rgb(255,255,255)" paint-order="fill stroke markers" d=" M 523.8360685579503 427.364285714286 L 568.028107733922 427.364285714286 L 479.6440293819786 427.364285714286 L 523.8360685579503 427.364285714286 L 568.0281077339218 427.364285714286 L 479.64402938197856 427.364285714286 L 523.8360685579503 427.364285714286 L 523.8360685579503 427.364285714286 L 523.8360685579503 427.364285714286 Z" stroke-opacity="1" stroke-linecap="round" stroke-linejoin="round" stroke-miterlimit="10" stroke-width="2" stroke-dasharray=""/><path fill="none" stroke="rgb(255,255,255)" paint-order="fill stroke markers" d=" M 523.8360685579503 382.714285714286 L 568.028107733922 382.714285714286 L 479.6440293819786 382.714285714286 L 523.8360685579503 382.714285714286 L 568.0281077339218 382.714285714286 L 479.64402938197856 382.714285714286 L 523.8360685579503 382.714285714286 L 523.8360685579503 382.714285714286 L 523.8360685579503 382.714285714286 Z" stroke-opacity="1" stroke-linecap="round" stroke-linejoin="round" stroke-miterlimit="10" stroke-width="2" stroke-dasharray=""/><path fill="none" stroke="rgb(255,255,255)" paint-order="fill stroke markers" d=" M 485.16803427897514 360.38928571428596 L 529.3600734549468 360.38928571428596 L 440.97599510300347 360.38928571428596 L 485.16803427897514 360.38928571428596 L 529.3600734549467 360.38928571428596 L 440.9759951030034 360.38928571428596 L 485.1680342789751 360.38928571428596 L 485.16803427897514 360.38928571428596 L 485.16803427897514 360.38928571428596 Z" stroke-opacity="1" stroke-linecap="round" stroke-linejoin="round" stroke-miterlimit="10" stroke-width="2" stroke-dasharray=""/><path fill="none" stroke="rgb(255,255,255)" paint-order="fill stroke markers" d=" M 446.5 338.0642857142859 L 490.6920391759716 338.0642857142859 L 402.3079608240283 338.0642857142859 L 446.5 338.0642857142859 L 490.69203917597156 338.0642857142859 L 402.30796082402827 338.0642857142859 L 446.49999999999994 338.0642857142859 L 446.5 338.0642857142859 L 446.5 338.0642857142859 Z" stroke-opacity="1" stroke-linecap="round" stroke-linejoin="round" stroke-miterlimit="10" stroke-width="2" stroke-dasharray=""/><path fill="none" stroke="rgb(255,255,255)" paint-order="fill stroke markers" d=" M 407.8319657210248 360.38928571428585 L 452.0240048969964 360.38928571428585 L 363.63992654505313 360.38928571428585 L 407.8319657210248 360.38928571428585 L 452.0240048969964 360.38928571428585 L 363.6399265450531 360.38928571428585 L 407.83196572102474 360.38928571428585 L 407.8319657210248 360.38928571428585 L 407.8319657210248 360.38928571428585 Z" stroke-opacity="1" stroke-linecap="round" stroke-linejoin="round" stroke-miterlimit="10" stroke-width="2" stroke-dasharray=""/><path fill="none" stroke="rgb(255,255,255)" paint-order="fill stroke markers" d=" M 369.1639314420496 382.7142857142858 L 413.3559706180212 382.7142857142858 L 324.97189226607793 382.7142857142858 L 369.1639314420496 382.7142857142858 L 413.35597061802116 382.7142857142858 L 324.9718922660779 382.7142857142858 L 369.16393144204955 382.7142857142858 L 369.1639314420496 382.7142857142858 L 369.1639314420496 382.7142857142858 Z" stroke-opacity="1" stroke-linecap="round" stroke-linejoin="round" stroke-miterlimit="10" stroke-width="2" stroke-dasharray=""/><path fill="none" stroke="rgb(255,255,255)" paint-order="fill stroke markers" d=" M 330.4958971630744 405.0392857142857 L 374.687936339046 405.0392857142857 L 286.30385798710273 405.0392857142857 L 330.4958971630744 405.0392857142857 L 374.687936339046 405.0392857142857 L 286.3038579871027 405.0392857142857 L 330.49589716307435 405.0392857142857 L 330.4958971630744 405.0392857142857 L 330.4958971630744 405.0392857142857 Z" stroke-opacity="1" stroke-linecap="round" stroke-linejoin="round" stroke-miterlimit="10" stroke-width="2" stroke-dasharray=""/><path fill="none" stroke="rgb(255,255,255)" paint-order="fill stroke markers" d=" M 330.4958971630743 449.6892857142857 L 374.6879363390459 449.6892857142857 L 286.3038579871026 449.6892857142857 L 330.4958971630743 449.6892857142857 L 374.6879363390459 449.6892857142857 L 286.30385798710256 449.6892857142857 L 330.49589716307423 449.6892857142857 L 330.4958971630743 449.6892857142857 L 330.4958971630743 449.6892857142857 Z" stroke-opacity="1" stroke-linecap="round" stroke-linejoin="round" stroke-miterlimit="10" stroke-width="2" stroke-dasharray=""/><path fill="none" stroke="rgb(255,255,255)" paint-order="fill stroke markers" d=" M 330.4958971630742 494.33928571428567 L 374.6879363390458 494.33928571428567 L 286.3038579871025 494.33928571428567 L 330.4958971630742 494.33928571428567 L 374.6879363390458 494.33928571428567 L 286.30385798710245 494.33928571428567 L 330.4958971630741 494.33928571428567 L 330.4958971630742 494.33928571428567 L 330.4958971630742 494.33928571428567 Z" stroke-opacity="1" stroke-linecap="round" stroke-linejoin="round" stroke-miterlimit="10" stroke-width="2" stroke-dasharray=""/><path fill="none" stroke="rgb(255,255,255)" paint-order="fill stroke markers" d=" M 330.49589716307406 538.9892857142856 L 374.6879363390457 538.9892857142856 L 286.3038579871024 538.9892857142856 L 330.49589716307406 538.9892857142856 L 374.6879363390457 538.9892857142856 L 286.30385798710233 538.9892857142856 L 330.495897163074 538.9892857142856 L 330.49589716307406 538.9892857142856 L 330.49589716307406 538.9892857142856 Z" stroke-opacity="1" stroke-linecap="round" stroke-linejoin="round" stroke-miterlimit="10" stroke-width="2" stroke-dasharray=""/><path fill="none" stroke="rgb(255,255,255)" paint-order="fill stroke markers" d=" M 369.1639314420492 561.3142857142857 L 413.3559706180208 561.3142857142857 L 324.97189226607753 561.3142857142857 L 369.1639314420492 561.3142857142857 L 413.3559706180208 561.3142857142857 L 324.9718922660775 561.3142857142857 L 369.16393144204915 561.3142857142857 L 369.1639314420492 561.3142857142857 L 369.1639314420492 561.3142857142857 Z" stroke-opacity="1" stroke-linecap="round" stroke-linejoin="round" stroke-miterlimit="10" stroke-width="2" stroke-dasharray=""/><path fill="none" stroke="rgb(255,255,255)" paint-order="fill stroke markers" d=" M 407.83196572102435 583.6392857142857 L 452.02400489699596 583.6392857142857 L 363.6399265450527 583.6392857142857 L 407.83196572102435 583.6392857142857 L 452.02400489699596 583.6392857142857 L 363.6399265450526 583.6392857142857 L 407.8319657210243 583.6392857142857 L 407.83196572102435 583.6392857142857 L 407.83196572102435 583.6392857142857 Z" stroke-opacity="1" stroke-linecap="round" stroke-linejoin="round" stroke-miterlimit="10" stroke-width="2" stroke-dasharray=""/><path fill="none" stroke="rgb(255,255,255)" paint-order="fill stroke markers" d=" M 446.4999999999995 605.9642857142858 L 490.6920391759711 605.9642857142858 L 402.3079608240278 605.9642857142858 L 446.4999999999995 605.9642857142858 L 490.6920391759711 605.9642857142858 L 402.30796082402776 605.9642857142858 L 446.49999999999943 605.9642857142858 L 446.4999999999995 605.9642857142858 L 446.4999999999995 605.9642857142858 Z" stroke-opacity="1" stroke-linecap="round" stroke-linejoin="round" stroke-miterlimit="10" stroke-width="2" stroke-dasharray=""/><path fill="none" stroke="rgb(255,255,255)" paint-order="fill stroke markers" d=" M 485.16803427897474 583.6392857142858 L 529.3600734549464 583.6392857142858 L 440.9759951030031 583.6392857142858 L 485.16803427897474 583.6392857142858 L 529.3600734549464 583.6392857142858 L 440.975995103003 583.6392857142858 L 485.1680342789747 583.6392857142858 L 485.16803427897474 583.6392857142858 L 485.16803427897474 583.6392857142858 Z" stroke-opacity="1" stroke-linecap="round" stroke-linejoin="round" stroke-miterlimit="10" stroke-width="2" stroke-dasharray=""/><path fill="none" stroke="rgb(255,255,255)" paint-order="fill stroke markers" d=" M 523.83606855795 561.3142857142859 L 568.0281077339216 561.3142857142859 L 479.64402938197827 561.3142857142859 L 523.83606855795 561.3142857142859 L 568.0281077339215 561.3142857142859 L 479.6440293819782 561.3142857142859 L 523.83606855795 561.3142857142859 L 523.83606855795 561.3142857142859 L 523.83606855795 561.3142857142859 Z" stroke-opacity="1" stroke-linecap="round" stroke-linejoin="round" stroke-miterlimit="10" stroke-width="2" stroke-dasharray=""/><path fill="none" stroke="rgb(255,255,255)" paint-order="fill stroke markers" d=" M 562.5041028369252 538.989285714286 L 606.6961420128969 538.989285714286 L 518.3120636609535 538.989285714286 L 562.5041028369252 538.989285714286 L 606.6961420128968 538.989285714286 L 518.3120636609535 538.989285714286 L 562.5041028369252 538.989285714286 L 562.5041028369252 538.989285714286 L 562.5041028369252 538.989285714286 Z" stroke-opacity="1" stroke-linecap="round" stroke-linejoin="round" stroke-miterlimit="10" stroke-width="2" stroke-dasharray=""/><path fill="none" stroke="rgb(255,255,255)" paint-order="fill stroke markers" d=" M 562.5041028369252 494.339285714286 L 606.6961420128969 494.339285714286 L 518.3120636609535 494.339285714286 L 562.5041028369252 494.339285714286 L 606.6961420128968 494.339285714286 L 518.3120636609535 494.339285714286 L 562.5041028369252 494.339285714286 L 562.5041028369252 494.339285714286 L 562.5041028369252 494.339285714286 Z" stroke-opacity="1" stroke-linecap="round" stroke-linejoin="round" stroke-miterlimit="10" stroke-width="2" stroke-dasharray=""/><path fill="none" stroke="rgb(255,255,255)" paint-order="fill stroke markers" d=" M 562.5041028369252 449.68928571428603 L 606.6961420128969 449.68928571428603 L 518.3120636609535 449.68928571428603 L 562.5041028369252 449.68928571428603 L 606.6961420128968 449.68928571428603 L 518.3120636609535 449.68928571428603 L 562.5041028369252 449.68928571428603 L 562.5041028369252 449.68928571428603 L 562.5041028369252 449.68928571428603 Z" stroke-opacity="1" stroke-linecap="round" stroke-linejoin="round" stroke-miterlimit="10" stroke-width="2" stroke-dasharray=""/><path fill="none" stroke="rgb(255,255,255)" paint-order="fill stroke markers" d=" M 562.5041028369252 405.03928571428605 L 606.6961420128969 405.03928571428605 L 518.3120636609535 405.03928571428605 L 562.5041028369252 405.03928571428605 L 606.6961420128968 405.03928571428605 L 518.3120636609535 405.03928571428605 L 562.5041028369252 405.03928571428605 L 562.5041028369252 405.03928571428605 L 562.5041028369252 405.03928571428605 Z" stroke-opacity="1" stroke-linecap="round" stroke-linejoin="round" stroke-miterlimit="10" stroke-width="2" stroke-dasharray=""/><path fill="none" stroke="rgb(255,255,255)" paint-order="fill stroke markers" d=" M 562.5041028369252 360.3892857142861 L 606.6961420128969 360.3892857142861 L 518.3120636609535 360.3892857142861 L 562.5041028369252 360.3892857142861 L 606.6961420128968 360.3892857142861 L 518.3120636609535 360.3892857142861 L 562.5041028369252 360.3892857142861 L 562.5041028369252 360.3892857142861 L 562.5041028369252 360.3892857142861 Z" stroke-opacity="1" stroke-linecap="round" stroke-linejoin="round" stroke-miterlimit="10" stroke-width="2" stroke-dasharray=""/><path fill="none" stroke="rgb(255,255,255)" paint-order="fill stroke markers" d=" M 523.8360685579501 338.06428571428603 L 568.0281077339217 338.06428571428603 L 479.6440293819784 338.06428571428603 L 523.8360685579501 338.06428571428603 L 568.0281077339216 338.06428571428603 L 479.6440293819783 338.06428571428603 L 523.8360685579501 338.06428571428603 L 523.8360685579501 338.06428571428603 L 523.8360685579501 338.06428571428603 Z" stroke-opacity="1" stroke-linecap="round" stroke-linejoin="round" stroke-miterlimit="10" stroke-width="2" stroke-dasharray=""/><path fill="none" stroke="rgb(255,255,255)" paint-order="fill stroke markers" d=" M 485.1680342789749 315.739285714286 L 529.3600734549466 315.739285714286 L 440.97599510300324 315.739285714286 L 485.1680342789749 315.739285714286 L 529.3600734549465 315.739285714286 L 440.9759951030032 315.739285714286 L 485.16803427897486 315.739285714286 L 485.1680342789749 315.739285714286 L 485.1680342789749 315.739285714286 Z" stroke-opacity="1" stroke-linecap="round" stroke-linejoin="round" stroke-miterlimit="10" stroke-width="2" stroke-dasharray=""/><path fill="none" stroke="rgb(255,255,255)" paint-order="fill stroke markers" d=" M 446.4999999999998 293.41428571428594 L 490.6920391759714 293.41428571428594 L 402.3079608240281 293.41428571428594 L 446.4999999999998 293.41428571428594 L 490.69203917597133 293.41428571428594 L 402.30796082402804 293.41428571428594 L 446.4999999999997 293.41428571428594 L 446.4999999999998 293.41428571428594 L 446.4999999999998 293.41428571428594 Z" stroke-opacity="1" stroke-linecap="round" stroke-linejoin="round" stroke-miterlimit="10" stroke-width="2" stroke-dasharray=""/><path fill="none" stroke="rgb(255,255,255)" paint-order="fill stroke markers" d=" M 407.8319657210245 315.7392857142858 L 452.02400489699613 315.7392857142858 L 363.63992654505284 315.7392857142858 L 407.8319657210245 315.7392857142858 L 452.0240048969961 315.7392857142858 L 363.6399265450528 315.7392857142858 L 407.83196572102446 315.7392857142858 L 407.8319657210245 315.7392857142858 L 407.8319657210245 315.7392857142858 Z" stroke-opacity="1" stroke-linecap="round" stroke-linejoin="round" stroke-miterlimit="10" stroke-width="2" stroke-dasharray=""/><path fill="none" stroke="rgb(255,255,255)" paint-order="fill stroke markers" d=" M 369.16393144204926 338.0642857142857 L 413.3559706180209 338.0642857142857 L 324.9718922660776 338.0642857142857 L 369.16393144204926 338.0642857142857 L 413.3559706180208 338.0642857142857 L 324.97189226607753 338.0642857142857 L 369.1639314420492 338.0642857142857 L 369.16393144204926 338.0642857142857 L 369.16393144204926 338.0642857142857 Z" stroke-opacity="1" stroke-linecap="round" stroke-linejoin="round" stroke-miterlimit="10" stroke-width="2" stroke-dasharray=""/><path fill="none" stroke="rgb(255,255,255)" paint-order="fill stroke markers" d=" M 330.495897163074 360.38928571428556 L 374.6879363390456 360.38928571428556 L 286.30385798710233 360.38928571428556 L 330.495897163074 360.38928571428556 L 374.68793633904556 360.38928571428556 L 286.3038579871023 360.38928571428556 L 330.49589716307395 360.38928571428556 L 330.495897163074 360.38928571428556 L 330.495897163074 360.38928571428556 Z" stroke-opacity="1" stroke-linecap="round" stroke-linejoin="round" stroke-miterlimit="10" stroke-width="2" stroke-dasharray=""/><path fill="none" stroke="rgb(255,255,255)" paint-order="fill stroke markers" d=" M 291.82786288409875 382.71428571428544 L 336.01990206007036 382.71428571428544 L 247.63582370812708 382.71428571428544 L 291.82786288409875 382.71428571428544 L 336.0199020600703 382.71428571428544 L 247.63582370812702 382.71428571428544 L 291.8278628840987 382.71428571428544 L 291.82786288409875 382.71428571428544 L 291.82786288409875 382.71428571428544 Z" stroke-opacity="1" stroke-linecap="round" stroke-linejoin="round" stroke-miterlimit="10" stroke-width="2" stroke-dasharray=""/><path fill="none" stroke="rgb(255,255,255)" paint-order="fill stroke markers" d=" M 291.8278628840987 427.3642857142854 L 336.0199020600703 427.3642857142854 L 247.63582370812702 427.3642857142854 L 291.8278628840987 427.3642857142854 L 336.0199020600703 427.3642857142854 L 247.63582370812696 427.3642857142854 L 291.82786288409864 427.3642857142854 L 291.8278628840987 427.3642857142854 L 291.8278628840987 427.3642857142854 Z" stroke-opacity="1" stroke-linecap="round" stroke-linejoin="round" stroke-miterlimit="10" stroke-width="2" stroke-dasharray=""/><path fill="none" stroke="rgb(255,255,255)" paint-order="fill stroke markers" d=" M 291.82786288409864 472.0142857142854 L 336.01990206007025 472.0142857142854 L 247.63582370812696 472.0142857142854 L 291.82786288409864 472.0142857142854 L 336.0199020600702 472.0142857142854 L 247.6358237081269 472.0142857142854 L 291.8278628840986 472.0142857142854 L 291.82786288409864 472.0142857142854 L 291.82786288409864 472.0142857142854 Z" stroke-opacity="1" stroke-linecap="round" stroke-linejoin="round" stroke-miterlimit="10" stroke-width="2" stroke-dasharray=""/><path fill="none" stroke="rgb(255,255,255)" paint-order="fill stroke markers" d=" M 291.8278628840986 516.6642857142854 L 336.0199020600702 516.6642857142854 L 247.6358237081269 516.6642857142854 L 291.8278628840986 516.6642857142854 L 336.0199020600702 516.6642857142854 L 247.63582370812685 516.6642857142854 L 291.8278628840985 516.6642857142854 L 291.8278628840986 516.6642857142854 L 291.8278628840986 516.6642857142854 Z" stroke-opacity="1" stroke-linecap="round" stroke-linejoin="round" stroke-miterlimit="10" stroke-width="2" stroke-dasharray=""/><path fill="none" stroke="rgb(255,255,255)" paint-order="fill stroke markers" d=" M 291.8278628840985 561.3142857142853 L 336.01990206007014 561.3142857142853 L 247.63582370812685 561.3142857142853 L 291.8278628840985 561.3142857142853 L 336.0199020600701 561.3142857142853 L 247.6358237081268 561.3142857142853 L 291.82786288409847 561.3142857142853 L 291.8278628840985 561.3142857142853 L 291.8278628840985 561.3142857142853 Z" stroke-opacity="1" stroke-linecap="round" stroke-linejoin="round" stroke-miterlimit="10" stroke-width="2" stroke-dasharray=""/><path fill="none" stroke="rgb(255,255,255)" paint-order="fill stroke markers" d=" M 330.49589716307366 583.6392857142854 L 374.6879363390453 583.6392857142854 L 286.303857987102 583.6392857142854 L 330.49589716307366 583.6392857142854 L 374.6879363390452 583.6392857142854 L 286.30385798710194 583.6392857142854 L 330.4958971630736 583.6392857142854 L 330.49589716307366 583.6392857142854 L 330.49589716307366 583.6392857142854 Z" stroke-opacity="1" stroke-linecap="round" stroke-linejoin="round" stroke-miterlimit="10" stroke-width="2" stroke-dasharray=""/><path fill="none" stroke="rgb(255,255,255)" paint-order="fill stroke markers" d=" M 369.1639314420488 605.9642857142854 L 413.3559706180204 605.9642857142854 L 324.97189226607713 605.9642857142854 L 369.1639314420488 605.9642857142854 L 413.35597061802036 605.9642857142854 L 324.9718922660771 605.9642857142854 L 369.16393144204875 605.9642857142854 L 369.1639314420488 605.9642857142854 L 369.1639314420488 605.9642857142854 Z" stroke-opacity="1" stroke-linecap="round" stroke-linejoin="round" stroke-miterlimit="10" stroke-width="2" stroke-dasharray=""/><path fill="none" stroke="rgb(255,255,255)" paint-order="fill stroke markers" d=" M 407.83196572102395 628.2892857142855 L 452.02400489699556 628.2892857142855 L 363.6399265450523 628.2892857142855 L 407.83196572102395 628.2892857142855 L 452.0240048969955 628.2892857142855 L 363.6399265450522 628.2892857142855 L 407.8319657210239 628.2892857142855 L 407.83196572102395 628.2892857142855 L 407.83196572102395 628.2892857142855 Z" stroke-opacity="1" stroke-linecap="round" stroke-linejoin="round" stroke-miterlimit="10" stroke-width="2" stroke-dasharray=""/><path fill="none" stroke="rgb(255,255,255)" paint-order="fill stroke markers" d=" M 446.4999999999991 650.6142857142855 L 490.6920391759707 650.6142857142855 L 402.3079608240274 650.6142857142855 L 446.4999999999991 650.6142857142855 L 490.69203917597065 650.6142857142855 L 402.30796082402736 650.6142857142855 L 446.49999999999903 650.6142857142855 L 446.4999999999991 650.6142857142855 L 446.4999999999991 650.6142857142855 Z" stroke-opacity="1" stroke-linecap="round" stroke-linejoin="round" stroke-miterlimit="10" stroke-width="2" stroke-dasharray=""/><path fill="none" stroke="rgb(255,255,255)" paint-order="fill stroke markers" d=" M 485.16803427897435 628.2892857142857 L 529.360073454946 628.2892857142857 L 440.9759951030027 628.2892857142857 L 485.16803427897435 628.2892857142857 L 529.3600734549459 628.2892857142857 L 440.9759951030026 628.2892857142857 L 485.1680342789743 628.2892857142857 L 485.16803427897435 628.2892857142857 L 485.16803427897435 628.2892857142857 Z" stroke-opacity="1" stroke-linecap="round" stroke-linejoin="round" stroke-miterlimit="10" stroke-width="2" stroke-dasharray=""/><path fill="none" stroke="rgb(255,255,255)" paint-order="fill stroke markers" d=" M 523.8360685579496 605.9642857142859 L 568.0281077339213 605.9642857142859 L 479.64402938197793 605.9642857142859 L 523.8360685579496 605.9642857142859 L 568.0281077339212 605.9642857142859 L 479.6440293819779 605.9642857142859 L 523.8360685579496 605.9642857142859 L 523.8360685579496 605.9642857142859 L 523.8360685579496 605.9642857142859 Z" stroke-opacity="1" stroke-linecap="round" stroke-linejoin="round" stroke-miterlimit="10" stroke-width="2" stroke-dasharray=""/><path fill="none" stroke="rgb(255,255,255)" paint-order="fill stroke markers" d=" M 562.5041028369249 583.6392857142861 L 606.6961420128965 583.6392857142861 L 518.3120636609532 583.6392857142861 L 562.5041028369249 583.6392857142861 L 606.6961420128964 583.6392857142861 L 518.3120636609532 583.6392857142861 L 562.5041028369249 583.6392857142861 L 562.5041028369249 583.6392857142861 L 562.5041028369249 583.6392857142861 Z" stroke-opacity="1" stroke-linecap="round" stroke-linejoin="round" stroke-miterlimit="10" stroke-width="2" stroke-dasharray=""/><path fill="none" stroke="rgb(255,255,255)" paint-order="fill stroke markers" d=" M 601.1721371159001 561.3142857142863 L 645.3641762918718 561.3142857142863 L 556.9800979399284 561.3142857142863 L 601.1721371159001 561.3142857142863 L 645.3641762918717 561.3142857142863 L 556.9800979399284 561.3142857142863 L 601.1721371159001 561.3142857142863 L 601.1721371159001 561.3142857142863 L 601.1721371159001 561.3142857142863 Z" stroke-opacity="1" stroke-linecap="round" stroke-linejoin="round" stroke-miterlimit="10" stroke-width="2" stroke-dasharray=""/><path fill="none" stroke="rgb(255,255,255)" paint-order="fill stroke markers" d=" M 601.1721371159001 516.6642857142863 L 645.3641762918718 516.6642857142863 L 556.9800979399284 516.6642857142863 L 601.1721371159001 516.6642857142863 L 645.3641762918717 516.6642857142863 L 556.9800979399284 516.6642857142863 L 601.1721371159001 516.6642857142863 L 601.1721371159001 516.6642857142863 L 601.1721371159001 516.6642857142863 Z" stroke-opacity="1" stroke-linecap="round" stroke-linejoin="round" stroke-miterlimit="10" stroke-width="2" stroke-dasharray=""/><path fill="none" stroke="rgb(255,255,255)" paint-order="fill stroke markers" d=" M 601.1721371159001 472.0142857142863 L 645.3641762918718 472.0142857142863 L 556.9800979399284 472.0142857142863 L 601.1721371159001 472.0142857142863 L 645.3641762918717 472.0142857142863 L 556.9800979399284 472.0142857142863 L 601.1721371159001 472.0142857142863 L 601.1721371159001 472.0142857142863 L 601.1721371159001 472.0142857142863 Z" stroke-opacity="1" stroke-linecap="round" stroke-linejoin="round" stroke-miterlimit="10" stroke-width="2" stroke-dasharray=""/><path fill="none" stroke="rgb(255,255,255)" paint-order="fill stroke markers" d=" M 601.1721371159001 427.3642857142863 L 645.3641762918718 427.3642857142863 L 556.9800979399284 427.3642857142863 L 601.1721371159001 427.3642857142863 L 645.3641762918717 427.3642857142863 L 556.9800979399284 427.3642857142863 L 601.1721371159001 427.3642857142863 L 601.1721371159001 427.3642857142863 L 601.1721371159001 427.3642857142863 Z" stroke-opacity="1" stroke-linecap="round" stroke-linejoin="round" stroke-miterlimit="10" stroke-width="2" stroke-dasharray=""/><path fill="none" stroke="rgb(255,255,255)" paint-order="fill stroke markers" d=" M 601.1721371159001 382.71428571428635 L 645.3641762918718 382.71428571428635 L 556.9800979399284 382.71428571428635 L 601.1721371159001 382.71428571428635 L 645.3641762918717 382.71428571428635 L 556.9800979399284 382.71428571428635 L 601.1721371159001 382.71428571428635 L 601.1721371159001 382.71428571428635 L 601.1721371159001 382.71428571428635 Z" stroke-opacity="1" stroke-linecap="round" stroke-linejoin="round" stroke-miterlimit="10" stroke-width="2" stroke-dasharray=""/><path fill="none" stroke="rgb(255,255,255)" paint-order="fill stroke markers" d=" M 601.1721371159001 338.06428571428637 L 645.3641762918718 338.06428571428637 L 556.9800979399284 338.06428571428637 L 601.1721371159001 338.06428571428637 L 645.3641762918717 338.06428571428637 L 556.9800979399284 338.06428571428637 L 601.1721371159001 338.06428571428637 L 601.1721371159001 338.06428571428637 L 601.1721371159001 338.06428571428637 Z" stroke-opacity="1" stroke-linecap="round" stroke-linejoin="round" stroke-miterlimit="10" stroke-width="2" stroke-dasharray=""/><path fill="none" stroke="rgb(255,255,255)" paint-order="fill stroke markers" d=" M 562.504102836925 315.73928571428627 L 606.6961420128966 315.73928571428627 L 518.3120636609533 315.73928571428627 L 562.504102836925 315.73928571428627 L 606.6961420128965 315.73928571428627 L 518.3120636609533 315.73928571428627 L 562.504102836925 315.73928571428627 L 562.504102836925 315.73928571428627 L 562.504102836925 315.73928571428627 Z" stroke-opacity="1" stroke-linecap="round" stroke-linejoin="round" stroke-miterlimit="10" stroke-width="2" stroke-dasharray=""/><path fill="none" stroke="rgb(255,255,255)" paint-order="fill stroke markers" d=" M 523.8360685579498 293.41428571428617 L 568.0281077339215 293.41428571428617 L 479.64402938197816 293.41428571428617 L 523.8360685579498 293.41428571428617 L 568.0281077339214 293.41428571428617 L 479.6440293819781 293.41428571428617 L 523.8360685579498 293.41428571428617 L 523.8360685579498 293.41428571428617 L 523.8360685579498 293.41428571428617 Z" stroke-opacity="1" stroke-linecap="round" stroke-linejoin="round" stroke-miterlimit="10" stroke-width="2" stroke-dasharray=""/><path fill="none" stroke="rgb(255,255,255)" paint-order="fill stroke markers" d=" M 485.1680342789747 271.08928571428606 L 529.3600734549464 271.08928571428606 L 440.975995103003 271.08928571428606 L 485.1680342789747 271.08928571428606 L 529.3600734549462 271.08928571428606 L 440.97599510300296 271.08928571428606 L 485.16803427897463 271.08928571428606 L 485.1680342789747 271.08928571428606 L 485.1680342789747 271.08928571428606 Z" stroke-opacity="1" stroke-linecap="round" stroke-linejoin="round" stroke-miterlimit="10" stroke-width="2" stroke-dasharray=""/><path fill="none" stroke="rgb(255,255,255)" paint-order="fill stroke markers" d=" M 446.49999999999955 248.764285714286 L 490.69203917597116 248.764285714286 L 402.3079608240279 248.764285714286 L 446.49999999999955 248.764285714286 L 490.6920391759711 248.764285714286 L 402.3079608240278 248.764285714286 L 446.4999999999995 248.764285714286 L 446.49999999999955 248.764285714286 L 446.49999999999955 248.764285714286 Z" stroke-opacity="1" stroke-linecap="round" stroke-linejoin="round" stroke-miterlimit="10" stroke-width="2" stroke-dasharray=""/><path fill="none" stroke="rgb(255,255,255)" paint-order="fill stroke markers" d=" M 407.8319657210243 271.0892857142859 L 452.0240048969959 271.0892857142859 L 363.6399265450526 271.0892857142859 L 407.8319657210243 271.0892857142859 L 452.02400489699585 271.0892857142859 L 363.63992654505256 271.0892857142859 L 407.83196572102423 271.0892857142859 L 407.8319657210243 271.0892857142859 L 407.8319657210243 271.0892857142859 Z" stroke-opacity="1" stroke-linecap="round" stroke-linejoin="round" stroke-miterlimit="10" stroke-width="2" stroke-dasharray=""/><path fill="none" stroke="rgb(255,255,255)" paint-order="fill stroke markers" d=" M 369.16393144204903 293.41428571428577 L 413.35597061802065 293.41428571428577 L 324.97189226607736 293.41428571428577 L 369.16393144204903 293.41428571428577 L 413.3559706180206 293.41428571428577 L 324.9718922660773 293.41428571428577 L 369.163931442049 293.41428571428577 L 369.16393144204903 293.41428571428577 L 369.16393144204903 293.41428571428577 Z" stroke-opacity="1" stroke-linecap="round" stroke-linejoin="round" stroke-miterlimit="10" stroke-width="2" stroke-dasharray=""/><path fill="none" stroke="rgb(255,255,255)" paint-order="fill stroke markers" d=" M 330.4958971630738 315.73928571428564 L 374.6879363390454 315.73928571428564 L 286.3038579871021 315.73928571428564 L 330.4958971630738 315.73928571428564 L 374.68793633904534 315.73928571428564 L 286.30385798710205 315.73928571428564 L 330.4958971630737 315.73928571428564 L 330.4958971630738 315.73928571428564 L 330.4958971630738 315.73928571428564 Z" stroke-opacity="1" stroke-linecap="round" stroke-linejoin="round" stroke-miterlimit="10" stroke-width="2" stroke-dasharray=""/><path fill="none" stroke="rgb(255,255,255)" paint-order="fill stroke markers" d=" M 291.8278628840985 338.0642857142855 L 336.01990206007014 338.0642857142855 L 247.63582370812685 338.0642857142855 L 291.8278628840985 338.0642857142855 L 336.0199020600701 338.0642857142855 L 247.6358237081268 338.0642857142855 L 291.82786288409847 338.0642857142855 L 291.8278628840985 338.0642857142855 L 291.8278628840985 338.0642857142855 Z" stroke-opacity="1" stroke-linecap="round" stroke-linejoin="round" stroke-miterlimit="10" stroke-width="2" stroke-dasharray=""/><path fill="none" stroke="rgb(255,255,255)" paint-order="fill stroke markers" d=" M 253.15982860512327 360.3892857142854 L 297.3518677810949 360.3892857142854 L 208.9677894291516 360.3892857142854 L 253.15982860512327 360.3892857142854 L 297.3518677810948 360.3892857142854 L 208.96778942915154 360.3892857142854 L 253.15982860512324 360.3892857142854 L 253.15982860512327 360.3892857142854 L 253.15982860512327 360.3892857142854 Z" stroke-opacity="1" stroke-linecap="round" stroke-linejoin="round" stroke-miterlimit="10" stroke-width="2" stroke-dasharray=""/><path fill="none" stroke="rgb(255,255,255)" paint-order="fill stroke markers" d=" M 253.15982860512307 405.03928571428537 L 297.3518677810947 405.03928571428537 L 208.9677894291514 405.03928571428537 L 253.15982860512307 405.03928571428537 L 297.35186778109465 405.03928571428537 L 208.96778942915134 405.03928571428537 L 253.15982860512304 405.03928571428537 L 253.15982860512307 405.03928571428537 L 253.15982860512307 405.03928571428537 Z" stroke-opacity="1" stroke-linecap="round" stroke-linejoin="round" stroke-miterlimit="10" stroke-width="2" stroke-dasharray=""/><path fill="none" stroke="rgb(255,255,255)" paint-order="fill stroke markers" d=" M 253.15982860512287 449.68928571428535 L 297.3518677810945 449.68928571428535 L 208.9677894291512 449.68928571428535 L 253.15982860512287 449.68928571428535 L 297.3518677810945 449.68928571428535 L 208.96778942915114 449.68928571428535 L 253.15982860512284 449.68928571428535 L 253.15982860512287 449.68928571428535 L 253.15982860512287 449.68928571428535 Z" stroke-opacity="1" stroke-linecap="round" stroke-linejoin="round" stroke-miterlimit="10" stroke-width="2" stroke-dasharray=""/><path fill="none" stroke="rgb(255,255,255)" paint-order="fill stroke markers" d=" M 253.15982860512267 494.3392857142853 L 297.3518677810943 494.3392857142853 L 208.967789429151 494.3392857142853 L 253.15982860512267 494.3392857142853 L 297.35186778109426 494.3392857142853 L 208.96778942915094 494.3392857142853 L 253.15982860512264 494.3392857142853 L 253.15982860512267 494.3392857142853 L 253.15982860512267 494.3392857142853 Z" stroke-opacity="1" stroke-linecap="round" stroke-linejoin="round" stroke-miterlimit="10" stroke-width="2" stroke-dasharray=""/><path fill="none" stroke="rgb(255,255,255)" paint-order="fill stroke markers" d=" M 253.15982860512247 538.9892857142853 L 297.3518677810941 538.9892857142853 L 208.9677894291508 538.9892857142853 L 253.15982860512247 538.9892857142853 L 297.35186778109403 538.9892857142853 L 208.96778942915074 538.9892857142853 L 253.15982860512244 538.9892857142853 L 253.15982860512247 538.9892857142853 L 253.15982860512247 538.9892857142853 Z" stroke-opacity="1" stroke-linecap="round" stroke-linejoin="round" stroke-miterlimit="10" stroke-width="2" stroke-dasharray=""/><path fill="none" stroke="rgb(255,255,255)" paint-order="fill stroke markers" d=" M 253.15982860512227 583.6392857142853 L 297.3518677810939 583.6392857142853 L 208.9677894291506 583.6392857142853 L 253.15982860512227 583.6392857142853 L 297.35186778109386 583.6392857142853 L 208.96778942915054 583.6392857142853 L 253.15982860512224 583.6392857142853 L 253.15982860512227 583.6392857142853 L 253.15982860512227 583.6392857142853 Z" stroke-opacity="1" stroke-linecap="round" stroke-linejoin="round" stroke-miterlimit="10" stroke-width="2" stroke-dasharray=""/><path fill="none" stroke="rgb(255,255,255)" paint-order="fill stroke markers" d=" M 291.8278628840974 605.9642857142853 L 336.019902060069 605.9642857142853 L 247.6358237081257 605.9642857142853 L 291.8278628840974 605.9642857142853 L 336.01990206006894 605.9642857142853 L 247.63582370812566 605.9642857142853 L 291.8278628840973 605.9642857142853 L 291.8278628840974 605.9642857142853 L 291.8278628840974 605.9642857142853 Z" stroke-opacity="1" stroke-linecap="round" stroke-linejoin="round" stroke-miterlimit="10" stroke-width="2" stroke-dasharray=""/><path fill="none" stroke="rgb(255,255,255)" paint-order="fill stroke markers" d=" M 330.4958971630725 628.2892857142854 L 374.68793633904414 628.2892857142854 L 286.30385798710086 628.2892857142854 L 330.4958971630725 628.2892857142854 L 374.6879363390441 628.2892857142854 L 286.3038579871008 628.2892857142854 L 330.49589716307247 628.2892857142854 L 330.4958971630725 628.2892857142854 L 330.4958971630725 628.2892857142854 Z" stroke-opacity="1" stroke-linecap="round" stroke-linejoin="round" stroke-miterlimit="10" stroke-width="2" stroke-dasharray=""/><path fill="none" stroke="rgb(255,255,255)" paint-order="fill stroke markers" d=" M 369.16393144204767 650.6142857142854 L 413.3559706180193 650.6142857142854 L 324.971892266076 650.6142857142854 L 369.16393144204767 650.6142857142854 L 413.3559706180192 650.6142857142854 L 324.97189226607594 650.6142857142854 L 369.1639314420476 650.6142857142854 L 369.16393144204767 650.6142857142854 L 369.16393144204767 650.6142857142854 Z" stroke-opacity="1" stroke-linecap="round" stroke-linejoin="round" stroke-miterlimit="10" stroke-width="2" stroke-dasharray=""/><path fill="none" stroke="rgb(255,255,255)" paint-order="fill stroke markers" d=" M 407.8319657210228 672.9392857142855 L 452.0240048969944 672.9392857142855 L 363.63992654505114 672.9392857142855 L 407.8319657210228 672.9392857142855 L 452.02400489699437 672.9392857142855 L 363.6399265450511 672.9392857142855 L 407.83196572102275 672.9392857142855 L 407.8319657210228 672.9392857142855 L 407.8319657210228 672.9392857142855 Z" stroke-opacity="1" stroke-linecap="round" stroke-linejoin="round" stroke-miterlimit="10" stroke-width="2" stroke-dasharray=""/><path fill="none" stroke="rgb(255,255,255)" paint-order="fill stroke markers" d=" M 446.49999999999795 695.2642857142855 L 490.69203917596957 695.2642857142855 L 402.3079608240263 695.2642857142855 L 446.49999999999795 695.2642857142855 L 490.6920391759695 695.2642857142855 L 402.3079608240262 695.2642857142855 L 446.4999999999979 695.2642857142855 L 446.49999999999795 695.2642857142855 L 446.49999999999795 695.2642857142855 Z" stroke-opacity="1" stroke-linecap="round" stroke-linejoin="round" stroke-miterlimit="10" stroke-width="2" stroke-dasharray=""/><path fill="none" stroke="rgb(255,255,255)" paint-order="fill stroke markers" d=" M 485.1680342789732 672.9392857142857 L 529.3600734549449 672.9392857142857 L 440.97599510300154 672.9392857142857 L 485.1680342789732 672.9392857142857 L 529.3600734549448 672.9392857142857 L 440.9759951030015 672.9392857142857 L 485.16803427897315 672.9392857142857 L 485.1680342789732 672.9392857142857 L 485.1680342789732 672.9392857142857 Z" stroke-opacity="1" stroke-linecap="round" stroke-linejoin="round" stroke-miterlimit="10" stroke-width="2" stroke-dasharray=""/><path fill="none" stroke="rgb(255,255,255)" paint-order="fill stroke markers" d=" M 523.8360685579485 650.6142857142859 L 568.0281077339201 650.6142857142859 L 479.6440293819768 650.6142857142859 L 523.8360685579485 650.6142857142859 L 568.02810773392 650.6142857142859 L 479.64402938197674 650.6142857142859 L 523.8360685579485 650.6142857142859 L 523.8360685579485 650.6142857142859 L 523.8360685579485 650.6142857142859 Z" stroke-opacity="1" stroke-linecap="round" stroke-linejoin="round" stroke-miterlimit="10" stroke-width="2" stroke-dasharray=""/><path fill="none" stroke="rgb(255,255,255)" paint-order="fill stroke markers" d=" M 562.5041028369237 628.289285714286 L 606.6961420128954 628.289285714286 L 518.312063660952 628.289285714286 L 562.5041028369237 628.289285714286 L 606.6961420128953 628.289285714286 L 518.312063660952 628.289285714286 L 562.5041028369237 628.289285714286 L 562.5041028369237 628.289285714286 L 562.5041028369237 628.289285714286 Z" stroke-opacity="1" stroke-linecap="round" stroke-linejoin="round" stroke-miterlimit="10" stroke-width="2" stroke-dasharray=""/><path fill="none" stroke="rgb(255,255,255)" paint-order="fill stroke markers" d=" M 601.172137115899 605.9642857142862 L 645.3641762918706 605.9642857142862 L 556.9800979399273 605.9642857142862 L 601.172137115899 605.9642857142862 L 645.3641762918705 605.9642857142862 L 556.9800979399273 605.9642857142862 L 601.172137115899 605.9642857142862 L 601.172137115899 605.9642857142862 L 601.172137115899 605.9642857142862 Z" stroke-opacity="1" stroke-linecap="round" stroke-linejoin="round" stroke-miterlimit="10" stroke-width="2" stroke-dasharray=""/><path fill="none" stroke="rgb(255,255,255)" paint-order="fill stroke markers" d=" M 639.8401713948742 583.6392857142864 L 684.0322105708459 583.6392857142864 L 595.6481322189026 583.6392857142864 L 639.8401713948742 583.6392857142864 L 684.0322105708458 583.6392857142864 L 595.6481322189026 583.6392857142864 L 639.8401713948742 583.6392857142864 L 639.8401713948742 583.6392857142864 L 639.8401713948742 583.6392857142864 Z" stroke-opacity="1" stroke-linecap="round" stroke-linejoin="round" stroke-miterlimit="10" stroke-width="2" stroke-dasharray=""/><path fill="none" stroke="rgb(255,255,255)" paint-order="fill stroke markers" d=" M 639.8401713948745 538.9892857142864 L 684.0322105708461 538.9892857142864 L 595.6481322189028 538.9892857142864 L 639.8401713948745 538.9892857142864 L 684.032210570846 538.9892857142864 L 595.6481322189028 538.9892857142864 L 639.8401713948745 538.9892857142864 L 639.8401713948745 538.9892857142864 L 639.8401713948745 538.9892857142864 Z" stroke-opacity="1" stroke-linecap="round" stroke-linejoin="round" stroke-miterlimit="10" stroke-width="2" stroke-dasharray=""/><path fill="none" stroke="rgb(255,255,255)" paint-order="fill stroke markers" d=" M 639.8401713948747 494.33928571428646 L 684.0322105708464 494.33928571428646 L 595.648132218903 494.33928571428646 L 639.8401713948747 494.33928571428646 L 684.0322105708462 494.33928571428646 L 595.648132218903 494.33928571428646 L 639.8401713948747 494.33928571428646 L 639.8401713948747 494.33928571428646 L 639.8401713948747 494.33928571428646 Z" stroke-opacity="1" stroke-linecap="round" stroke-linejoin="round" stroke-miterlimit="10" stroke-width="2" stroke-dasharray=""/><path fill="none" stroke="rgb(255,255,255)" paint-order="fill stroke markers" d=" M 639.8401713948749 449.6892857142865 L 684.0322105708466 449.6892857142865 L 595.6481322189032 449.6892857142865 L 639.8401713948749 449.6892857142865 L 684.0322105708465 449.6892857142865 L 595.6481322189032 449.6892857142865 L 639.8401713948749 449.6892857142865 L 639.8401713948749 449.6892857142865 L 639.8401713948749 449.6892857142865 Z" stroke-opacity="1" stroke-linecap="round" stroke-linejoin="round" stroke-miterlimit="10" stroke-width="2" stroke-dasharray=""/><path fill="none" stroke="rgb(255,255,255)" paint-order="fill stroke markers" d=" M 639.8401713948751 405.0392857142865 L 684.0322105708468 405.0392857142865 L 595.6481322189035 405.0392857142865 L 639.8401713948751 405.0392857142865 L 684.0322105708467 405.0392857142865 L 595.6481322189035 405.0392857142865 L 639.8401713948751 405.0392857142865 L 639.8401713948751 405.0392857142865 L 639.8401713948751 405.0392857142865 Z" stroke-opacity="1" stroke-linecap="round" stroke-linejoin="round" stroke-miterlimit="10" stroke-width="2" stroke-dasharray=""/><path fill="none" stroke="rgb(255,255,255)" paint-order="fill stroke markers" d=" M 639.8401713948754 360.38928571428653 L 684.032210570847 360.38928571428653 L 595.6481322189037 360.38928571428653 L 639.8401713948754 360.38928571428653 L 684.0322105708469 360.38928571428653 L 595.6481322189037 360.38928571428653 L 639.8401713948754 360.38928571428653 L 639.8401713948754 360.38928571428653 L 639.8401713948754 360.38928571428653 Z" stroke-opacity="1" stroke-linecap="round" stroke-linejoin="round" stroke-miterlimit="10" stroke-width="2" stroke-dasharray=""/><path fill="none" stroke="rgb(255,255,255)" paint-order="fill stroke markers" d=" M 639.8401713948756 315.73928571428655 L 684.0322105708473 315.73928571428655 L 595.6481322189039 315.73928571428655 L 639.8401713948756 315.73928571428655 L 684.0322105708472 315.73928571428655 L 595.6481322189039 315.73928571428655 L 639.8401713948756 315.73928571428655 L 639.8401713948756 315.73928571428655 L 639.8401713948756 315.73928571428655 Z" stroke-opacity="1" stroke-linecap="round" stroke-linejoin="round" stroke-miterlimit="10" stroke-width="2" stroke-dasharray=""/><path fill="none" stroke="rgb(255,255,255)" paint-order="fill stroke markers" d=" M 601.1721371159005 293.41428571428645 L 645.3641762918721 293.41428571428645 L 556.9800979399288 293.41428571428645 L 601.1721371159005 293.41428571428645 L 645.364176291872 293.41428571428645 L 556.9800979399288 293.41428571428645 L 601.1721371159005 293.41428571428645 L 601.1721371159005 293.41428571428645 L 601.1721371159005 293.41428571428645 Z" stroke-opacity="1" stroke-linecap="round" stroke-linejoin="round" stroke-miterlimit="10" stroke-width="2" stroke-dasharray=""/><path fill="none" stroke="rgb(255,255,255)" paint-order="fill stroke markers" d=" M 562.5041028369253 271.08928571428635 L 606.696142012897 271.08928571428635 L 518.3120636609536 271.08928571428635 L 562.5041028369253 271.08928571428635 L 606.6961420128969 271.08928571428635 L 518.3120636609536 271.08928571428635 L 562.5041028369253 271.08928571428635 L 562.5041028369253 271.08928571428635 L 562.5041028369253 271.08928571428635 Z" stroke-opacity="1" stroke-linecap="round" stroke-linejoin="round" stroke-miterlimit="10" stroke-width="2" stroke-dasharray=""/><path fill="none" stroke="rgb(255,255,255)" paint-order="fill stroke markers" d=" M 523.8360685579502 248.76428571428622 L 568.0281077339218 248.76428571428622 L 479.6440293819785 248.76428571428622 L 523.8360685579502 248.76428571428622 L 568.0281077339217 248.76428571428622 L 479.64402938197844 248.76428571428622 L 523.8360685579502 248.76428571428622 L 523.8360685579502 248.76428571428622 L 523.8360685579502 248.76428571428622 Z" stroke-opacity="1" stroke-linecap="round" stroke-linejoin="round" stroke-miterlimit="10" stroke-width="2" stroke-dasharray=""/><path fill="none" stroke="rgb(255,255,255)" paint-order="fill stroke markers" d=" M 485.16803427897503 226.43928571428611 L 529.3600734549467 226.43928571428611 L 440.97599510300336 226.43928571428611 L 485.16803427897503 226.43928571428611 L 529.3600734549466 226.43928571428611 L 440.9759951030033 226.43928571428611 L 485.168034278975 226.43928571428611 L 485.16803427897503 226.43928571428611 L 485.16803427897503 226.43928571428611 Z" stroke-opacity="1" stroke-linecap="round" stroke-linejoin="round" stroke-miterlimit="10" stroke-width="2" stroke-dasharray=""/><path fill="none" stroke="rgb(255,255,255)" paint-order="fill stroke markers" d=" M 446.4999999999999 204.114285714286 L 490.6920391759715 204.114285714286 L 402.3079608240282 204.114285714286 L 446.4999999999999 204.114285714286 L 490.69203917597144 204.114285714286 L 402.30796082402816 204.114285714286 L 446.49999999999983 204.114285714286 L 446.4999999999999 204.114285714286 L 446.4999999999999 204.114285714286 Z" stroke-opacity="1" stroke-linecap="round" stroke-linejoin="round" stroke-miterlimit="10" stroke-width="2" stroke-dasharray=""/><path fill="none" stroke="rgb(255,255,255)" paint-order="fill stroke markers" d=" M 407.83196572102463 226.43928571428586 L 452.02400489699625 226.43928571428586 L 363.63992654505296 226.43928571428586 L 407.83196572102463 226.43928571428586 L 452.0240048969962 226.43928571428586 L 363.6399265450529 226.43928571428586 L 407.8319657210246 226.43928571428586 L 407.83196572102463 226.43928571428586 L 407.83196572102463 226.43928571428586 Z" stroke-opacity="1" stroke-linecap="round" stroke-linejoin="round" stroke-miterlimit="10" stroke-width="2" stroke-dasharray=""/><path fill="none" stroke="rgb(255,255,255)" paint-order="fill stroke markers" d=" M 369.1639314420494 248.7642857142857 L 413.355970618021 248.7642857142857 L 324.9718922660777 248.7642857142857 L 369.1639314420494 248.7642857142857 L 413.35597061802093 248.7642857142857 L 324.97189226607765 248.7642857142857 L 369.1639314420493 248.7642857142857 L 369.1639314420494 248.7642857142857 L 369.1639314420494 248.7642857142857 Z" stroke-opacity="1" stroke-linecap="round" stroke-linejoin="round" stroke-miterlimit="10" stroke-width="2" stroke-dasharray=""/><path fill="none" stroke="rgb(255,255,255)" paint-order="fill stroke markers" d=" M 330.4958971630741 271.08928571428555 L 374.68793633904573 271.08928571428555 L 286.30385798710245 271.08928571428555 L 330.4958971630741 271.08928571428555 L 374.6879363390457 271.08928571428555 L 286.3038579871024 271.08928571428555 L 330.49589716307406 271.08928571428555 L 330.4958971630741 271.08928571428555 L 330.4958971630741 271.08928571428555 Z" stroke-opacity="1" stroke-linecap="round" stroke-linejoin="round" stroke-miterlimit="10" stroke-width="2" stroke-dasharray=""/><path fill="none" stroke="rgb(255,255,255)" paint-order="fill stroke markers" d=" M 291.82786288409886 293.4142857142854 L 336.0199020600705 293.4142857142854 L 247.6358237081272 293.4142857142854 L 291.82786288409886 293.4142857142854 L 336.0199020600704 293.4142857142854 L 247.63582370812713 293.4142857142854 L 291.8278628840988 293.4142857142854 L 291.82786288409886 293.4142857142854 L 291.82786288409886 293.4142857142854 Z" stroke-opacity="1" stroke-linecap="round" stroke-linejoin="round" stroke-miterlimit="10" stroke-width="2" stroke-dasharray=""/><path fill="none" stroke="rgb(255,255,255)" paint-order="fill stroke markers" d=" M 253.1598286051236 315.7392857142853 L 297.3518677810952 315.7392857142853 L 208.96778942915194 315.7392857142853 L 253.1598286051236 315.7392857142853 L 297.35186778109517 315.7392857142853 L 208.96778942915188 315.7392857142853 L 253.15982860512358 315.7392857142853 L 253.1598286051236 315.7392857142853 L 253.1598286051236 315.7392857142853 Z" stroke-opacity="1" stroke-linecap="round" stroke-linejoin="round" stroke-miterlimit="10" stroke-width="2" stroke-dasharray=""/><path fill="none" stroke="rgb(255,255,255)" paint-order="fill stroke markers" d=" M 214.49179432614835 338.0642857142852 L 258.68383350211997 338.0642857142852 L 170.29975515017668 338.0642857142852 L 214.49179432614835 338.0642857142852 L 258.6838335021199 338.0642857142852 L 170.29975515017662 338.0642857142852 L 214.49179432614832 338.0642857142852 L 214.49179432614835 338.0642857142852 L 214.49179432614835 338.0642857142852 Z" stroke-opacity="1" stroke-linecap="round" stroke-linejoin="round" stroke-miterlimit="10" stroke-width="2" stroke-dasharray=""/><path fill="none" stroke="rgb(255,255,255)" paint-order="fill stroke markers" d=" M 214.49179432614812 382.71428571428515 L 258.68383350211974 382.71428571428515 L 170.29975515017645 382.71428571428515 L 214.49179432614812 382.71428571428515 L 258.6838335021197 382.71428571428515 L 170.2997551501764 382.71428571428515 L 214.4917943261481 382.71428571428515 L 214.49179432614812 382.71428571428515 L 214.49179432614812 382.71428571428515 Z" stroke-opacity="1" stroke-linecap="round" stroke-linejoin="round" stroke-miterlimit="10" stroke-width="2" stroke-dasharray=""/><path fill="none" stroke="rgb(255,255,255)" paint-order="fill stroke markers" d=" M 214.4917943261479 427.36428571428513 L 258.6838335021195 427.36428571428513 L 170.29975515017622 427.36428571428513 L 214.4917943261479 427.36428571428513 L 258.68383350211946 427.36428571428513 L 170.29975515017617 427.36428571428513 L 214.49179432614787 427.36428571428513 L 214.4917943261479 427.36428571428513 L 214.4917943261479 427.36428571428513 Z" stroke-opacity="1" stroke-linecap="round" stroke-linejoin="round" stroke-miterlimit="10" stroke-width="2" stroke-dasharray=""/><path fill="none" stroke="rgb(255,255,255)" paint-order="fill stroke markers" d=" M 214.49179432614767 472.0142857142851 L 258.6838335021193 472.0142857142851 L 170.299755150176 472.0142857142851 L 214.49179432614767 472.0142857142851 L 258.6838335021192 472.0142857142851 L 170.29975515017594 472.0142857142851 L 214.49179432614764 472.0142857142851 L 214.49179432614767 472.0142857142851 L 214.49179432614767 472.0142857142851 Z" stroke-opacity="1" stroke-linecap="round" stroke-linejoin="round" stroke-miterlimit="10" stroke-width="2" stroke-dasharray=""/><path fill="none" stroke="rgb(255,255,255)" paint-order="fill stroke markers" d=" M 214.49179432614744 516.664285714285 L 258.68383350211906 516.664285714285 L 170.29975515017577 516.664285714285 L 214.49179432614744 516.664285714285 L 258.683833502119 516.664285714285 L 170.2997551501757 516.664285714285 L 214.4917943261474 516.664285714285 L 214.49179432614744 516.664285714285 L 214.49179432614744 516.664285714285 Z" stroke-opacity="1" stroke-linecap="round" stroke-linejoin="round" stroke-miterlimit="10" stroke-width="2" stroke-dasharray=""/><path fill="none" stroke="rgb(255,255,255)" paint-order="fill stroke markers" d=" M 214.49179432614721 561.3142857142851 L 258.68383350211883 561.3142857142851 L 170.29975515017554 561.3142857142851 L 214.49179432614721 561.3142857142851 L 258.6838335021188 561.3142857142851 L 170.29975515017549 561.3142857142851 L 214.4917943261472 561.3142857142851 L 214.49179432614721 561.3142857142851 L 214.49179432614721 561.3142857142851 Z" stroke-opacity="1" stroke-linecap="round" stroke-linejoin="round" stroke-miterlimit="10" stroke-width="2" stroke-dasharray=""/><path fill="none" stroke="rgb(255,255,255)" paint-order="fill stroke markers" d=" M 214.491794326147 605.9642857142851 L 258.6838335021186 605.9642857142851 L 170.29975515017532 605.9642857142851 L 214.491794326147 605.9642857142851 L 258.68383350211855 605.9642857142851 L 170.29975515017526 605.9642857142851 L 214.49179432614696 605.9642857142851 L 214.491794326147 605.9642857142851 L 214.491794326147 605.9642857142851 Z" stroke-opacity="1" stroke-linecap="round" stroke-linejoin="round" stroke-miterlimit="10" stroke-width="2" stroke-dasharray=""/><path fill="none" stroke="rgb(255,255,255)" paint-order="fill stroke markers" d=" M 253.15982860512204 628.2892857142854 L 297.3518677810937 628.2892857142854 L 208.96778942915037 628.2892857142854 L 253.15982860512204 628.2892857142854 L 297.35186778109363 628.2892857142854 L 208.96778942915032 628.2892857142854 L 253.15982860512202 628.2892857142854 L 253.15982860512204 628.2892857142854 L 253.15982860512204 628.2892857142854 Z" stroke-opacity="1" stroke-linecap="round" stroke-linejoin="round" stroke-miterlimit="10" stroke-width="2" stroke-dasharray=""/><path fill="none" stroke="rgb(255,255,255)" paint-order="fill stroke markers" d=" M 291.8278628840971 650.6142857142856 L 336.0199020600687 650.6142857142856 L 247.63582370812543 650.6142857142856 L 291.8278628840971 650.6142857142856 L 336.0199020600687 650.6142857142856 L 247.63582370812537 650.6142857142856 L 291.82786288409704 650.6142857142856 L 291.8278628840971 650.6142857142856 L 291.8278628840971 650.6142857142856 Z" stroke-opacity="1" stroke-linecap="round" stroke-linejoin="round" stroke-miterlimit="10" stroke-width="2" stroke-dasharray=""/><path fill="none" stroke="rgb(255,255,255)" paint-order="fill stroke markers" d=" M 330.49589716307213 672.9392857142859 L 374.68793633904374 672.9392857142859 L 286.30385798710046 672.9392857142859 L 330.49589716307213 672.9392857142859 L 374.68793633904374 672.9392857142859 L 286.3038579871004 672.9392857142859 L 330.4958971630721 672.9392857142859 L 330.49589716307213 672.9392857142859 L 330.49589716307213 672.9392857142859 Z" stroke-opacity="1" stroke-linecap="round" stroke-linejoin="round" stroke-miterlimit="10" stroke-width="2" stroke-dasharray=""/><path fill="none" stroke="rgb(255,255,255)" paint-order="fill stroke markers" d=" M 369.16393144204716 695.2642857142862 L 413.3559706180188 695.2642857142862 L 324.9718922660755 695.2642857142862 L 369.16393144204716 695.2642857142862 L 413.3559706180188 695.2642857142862 L 324.97189226607543 695.2642857142862 L 369.1639314420471 695.2642857142862 L 369.16393144204716 695.2642857142862 L 369.16393144204716 695.2642857142862 Z" stroke-opacity="1" stroke-linecap="round" stroke-linejoin="round" stroke-miterlimit="10" stroke-width="2" stroke-dasharray=""/><path fill="none" stroke="rgb(255,255,255)" paint-order="fill stroke markers" d=" M 407.8319657210222 717.5892857142865 L 452.0240048969938 717.5892857142865 L 363.6399265450505 717.5892857142865 L 407.8319657210222 717.5892857142865 L 452.0240048969938 717.5892857142865 L 363.63992654505046 717.5892857142865 L 407.83196572102213 717.5892857142865 L 407.8319657210222 717.5892857142865 L 407.8319657210222 717.5892857142865 Z" stroke-opacity="1" stroke-linecap="round" stroke-linejoin="round" stroke-miterlimit="10" stroke-width="2" stroke-dasharray=""/><path fill="none" stroke="rgb(255,255,255)" paint-order="fill stroke markers" d=" M 446.4999999999972 739.9142857142867 L 490.69203917596883 739.9142857142867 L 402.30796082402554 739.9142857142867 L 446.4999999999972 739.9142857142867 L 490.69203917596883 739.9142857142867 L 402.3079608240255 739.9142857142867 L 446.49999999999716 739.9142857142867 L 446.4999999999972 739.9142857142867 L 446.4999999999972 739.9142857142867 Z" stroke-opacity="1" stroke-linecap="round" stroke-linejoin="round" stroke-miterlimit="10" stroke-width="2" stroke-dasharray=""/><path fill="none" stroke="rgb(255,255,255)" paint-order="fill stroke markers" d=" M 485.1680342789726 717.589285714287 L 529.3600734549442 717.589285714287 L 440.9759951030009 717.589285714287 L 485.1680342789726 717.589285714287 L 529.3600734549442 717.589285714287 L 440.97599510300086 717.589285714287 L 485.1680342789725 717.589285714287 L 485.1680342789726 717.589285714287 L 485.1680342789726 717.589285714287 Z" stroke-opacity="1" stroke-linecap="round" stroke-linejoin="round" stroke-miterlimit="10" stroke-width="2" stroke-dasharray=""/><path fill="none" stroke="rgb(255,255,255)" paint-order="fill stroke markers" d=" M 523.8360685579479 695.2642857142873 L 568.0281077339196 695.2642857142873 L 479.6440293819762 695.2642857142873 L 523.8360685579479 695.2642857142873 L 568.0281077339195 695.2642857142873 L 479.64402938197617 695.2642857142873 L 523.8360685579479 695.2642857142873 L 523.8360685579479 695.2642857142873 L 523.8360685579479 695.2642857142873 Z" stroke-opacity="1" stroke-linecap="round" stroke-linejoin="round" stroke-miterlimit="10" stroke-width="2" stroke-dasharray=""/><path fill="none" stroke="rgb(255,255,255)" paint-order="fill stroke markers" d=" M 562.5041028369233 672.9392857142876 L 606.6961420128949 672.9392857142876 L 518.3120636609516 672.9392857142876 L 562.5041028369233 672.9392857142876 L 606.6961420128948 672.9392857142876 L 518.3120636609516 672.9392857142876 L 562.5041028369233 672.9392857142876 L 562.5041028369233 672.9392857142876 L 562.5041028369233 672.9392857142876 Z" stroke-opacity="1" stroke-linecap="round" stroke-linejoin="round" stroke-miterlimit="10" stroke-width="2" stroke-dasharray=""/><path fill="none" stroke="rgb(255,255,255)" paint-order="fill stroke markers" d=" M 601.1721371158986 650.6142857142879 L 645.3641762918703 650.6142857142879 L 556.980097939927 650.6142857142879 L 601.1721371158986 650.6142857142879 L 645.3641762918702 650.6142857142879 L 556.980097939927 650.6142857142879 L 601.1721371158986 650.6142857142879 L 601.1721371158986 650.6142857142879 L 601.1721371158986 650.6142857142879 Z" stroke-opacity="1" stroke-linecap="round" stroke-linejoin="round" stroke-miterlimit="10" stroke-width="2" stroke-dasharray=""/><path fill="none" stroke="rgb(255,255,255)" paint-order="fill stroke markers" d=" M 639.840171394874 628.2892857142882 L 684.0322105708457 628.2892857142882 L 595.6481322189023 628.2892857142882 L 639.840171394874 628.2892857142882 L 684.0322105708456 628.2892857142882 L 595.6481322189023 628.2892857142882 L 639.840171394874 628.2892857142882 L 639.840171394874 628.2892857142882 L 639.840171394874 628.2892857142882 Z" stroke-opacity="1" stroke-linecap="round" stroke-linejoin="round" stroke-miterlimit="10" stroke-width="2" stroke-dasharray=""/><path fill="none" stroke="rgb(255,255,255)" paint-order="fill stroke markers" d=" M 678.5082056738494 605.9642857142885 L 722.700244849821 605.9642857142885 L 634.3161664978777 605.9642857142885 L 678.5082056738494 605.9642857142885 L 722.7002448498209 605.9642857142885 L 634.3161664978777 605.9642857142885 L 678.5082056738494 605.9642857142885 L 678.5082056738494 605.9642857142885 L 678.5082056738494 605.9642857142885 Z" stroke-opacity="1" stroke-linecap="round" stroke-linejoin="round" stroke-miterlimit="10" stroke-width="2" stroke-dasharray=""/><path fill="none" stroke="rgb(255,255,255)" paint-order="fill stroke markers" d=" M 678.5082056738495 561.3142857142885 L 722.7002448498212 561.3142857142885 L 634.3161664978778 561.3142857142885 L 678.5082056738495 561.3142857142885 L 722.700244849821 561.3142857142885 L 634.3161664978778 561.3142857142885 L 678.5082056738495 561.3142857142885 L 678.5082056738495 561.3142857142885 L 678.5082056738495 561.3142857142885 Z" stroke-opacity="1" stroke-linecap="round" stroke-linejoin="round" stroke-miterlimit="10" stroke-width="2" stroke-dasharray=""/><path fill="none" stroke="rgb(255,255,255)" paint-order="fill stroke markers" d=" M 678.5082056738496 516.6642857142886 L 722.7002448498213 516.6642857142886 L 634.3161664978779 516.6642857142886 L 678.5082056738496 516.6642857142886 L 722.7002448498212 516.6642857142886 L 634.3161664978779 516.6642857142886 L 678.5082056738496 516.6642857142886 L 678.5082056738496 516.6642857142886 L 678.5082056738496 516.6642857142886 Z" stroke-opacity="1" stroke-linecap="round" stroke-linejoin="round" stroke-miterlimit="10" stroke-width="2" stroke-dasharray=""/><path fill="none" stroke="rgb(255,255,255)" paint-order="fill stroke markers" d=" M 678.5082056738497 472.0142857142886 L 722.7002448498214 472.0142857142886 L 634.316166497878 472.0142857142886 L 678.5082056738497 472.0142857142886 L 722.7002448498213 472.0142857142886 L 634.316166497878 472.0142857142886 L 678.5082056738497 472.0142857142886 L 678.5082056738497 472.0142857142886 L 678.5082056738497 472.0142857142886 Z" stroke-opacity="1" stroke-linecap="round" stroke-linejoin="round" stroke-miterlimit="10" stroke-width="2" stroke-dasharray=""/><path fill="none" stroke="rgb(255,255,255)" paint-order="fill stroke markers" d=" M 678.5082056738498 427.3642857142886 L 722.7002448498215 427.3642857142886 L 634.3161664978782 427.3642857142886 L 678.5082056738498 427.3642857142886 L 722.7002448498214 427.3642857142886 L 634.3161664978782 427.3642857142886 L 678.5082056738498 427.3642857142886 L 678.5082056738498 427.3642857142886 L 678.5082056738498 427.3642857142886 Z" stroke-opacity="1" stroke-linecap="round" stroke-linejoin="round" stroke-miterlimit="10" stroke-width="2" stroke-dasharray=""/><path fill="none" stroke="rgb(255,255,255)" paint-order="fill stroke markers" d=" M 678.50820567385 382.7142857142886 L 722.7002448498216 382.7142857142886 L 634.3161664978783 382.7142857142886 L 678.50820567385 382.7142857142886 L 722.7002448498215 382.7142857142886 L 634.3161664978783 382.7142857142886 L 678.50820567385 382.7142857142886 L 678.50820567385 382.7142857142886 L 678.50820567385 382.7142857142886 Z" stroke-opacity="1" stroke-linecap="round" stroke-linejoin="round" stroke-miterlimit="10" stroke-width="2" stroke-dasharray=""/><path fill="none" stroke="rgb(255,255,255)" paint-order="fill stroke markers" d=" M 678.5082056738501 338.06428571428864 L 722.7002448498217 338.06428571428864 L 634.3161664978784 338.06428571428864 L 678.5082056738501 338.06428571428864 L 722.7002448498216 338.06428571428864 L 634.3161664978784 338.06428571428864 L 678.5082056738501 338.06428571428864 L 678.5082056738501 338.06428571428864 L 678.5082056738501 338.06428571428864 Z" stroke-opacity="1" stroke-linecap="round" stroke-linejoin="round" stroke-miterlimit="10" stroke-width="2" stroke-dasharray=""/><path fill="none" stroke="rgb(255,255,255)" paint-order="fill stroke markers" d=" M 678.5082056738502 293.41428571428867 L 722.7002448498218 293.41428571428867 L 634.3161664978785 293.41428571428867 L 678.5082056738502 293.41428571428867 L 722.7002448498217 293.41428571428867 L 634.3161664978785 293.41428571428867 L 678.5082056738502 293.41428571428867 L 678.5082056738502 293.41428571428867 L 678.5082056738502 293.41428571428867 Z" stroke-opacity="1" stroke-linecap="round" stroke-linejoin="round" stroke-miterlimit="10" stroke-width="2" stroke-dasharray=""/><path fill="none" stroke="rgb(255,255,255)" paint-order="fill stroke markers" d=" M 639.840171394875 271.08928571428856 L 684.0322105708467 271.08928571428856 L 595.6481322189034 271.08928571428856 L 639.840171394875 271.08928571428856 L 684.0322105708466 271.08928571428856 L 595.6481322189034 271.08928571428856 L 639.840171394875 271.08928571428856 L 639.840171394875 271.08928571428856 L 639.840171394875 271.08928571428856 Z" stroke-opacity="1" stroke-linecap="round" stroke-linejoin="round" stroke-miterlimit="10" stroke-width="2" stroke-dasharray=""/><path fill="none" stroke="rgb(255,255,255)" paint-order="fill stroke markers" d=" M 601.1721371158999 248.76428571428843 L 645.3641762918716 248.76428571428843 L 556.9800979399282 248.76428571428843 L 601.1721371158999 248.76428571428843 L 645.3641762918714 248.76428571428843 L 556.9800979399282 248.76428571428843 L 601.1721371158999 248.76428571428843 L 601.1721371158999 248.76428571428843 L 601.1721371158999 248.76428571428843 Z" stroke-opacity="1" stroke-linecap="round" stroke-linejoin="round" stroke-miterlimit="10" stroke-width="2" stroke-dasharray=""/><path fill="none" stroke="rgb(255,255,255)" paint-order="fill stroke markers" d=" M 562.5041028369247 226.43928571428833 L 606.6961420128964 226.43928571428833 L 518.3120636609531 226.43928571428833 L 562.5041028369247 226.43928571428833 L 606.6961420128963 226.43928571428833 L 518.3120636609531 226.43928571428833 L 562.5041028369247 226.43928571428833 L 562.5041028369247 226.43928571428833 L 562.5041028369247 226.43928571428833 Z" stroke-opacity="1" stroke-linecap="round" stroke-linejoin="round" stroke-miterlimit="10" stroke-width="2" stroke-dasharray=""/><path fill="none" stroke="rgb(255,255,255)" paint-order="fill stroke markers" d=" M 523.8360685579496 204.11428571428823 L 568.0281077339213 204.11428571428823 L 479.64402938197793 204.11428571428823 L 523.8360685579496 204.11428571428823 L 568.0281077339212 204.11428571428823 L 479.6440293819779 204.11428571428823 L 523.8360685579496 204.11428571428823 L 523.8360685579496 204.11428571428823 L 523.8360685579496 204.11428571428823 Z" stroke-opacity="1" stroke-linecap="round" stroke-linejoin="round" stroke-miterlimit="10" stroke-width="2" stroke-dasharray=""/><path fill="none" stroke="rgb(255,255,255)" paint-order="fill stroke markers" d=" M 485.16803427897446 181.78928571428813 L 529.3600734549461 181.78928571428813 L 440.9759951030028 181.78928571428813 L 485.16803427897446 181.78928571428813 L 529.360073454946 181.78928571428813 L 440.97599510300273 181.78928571428813 L 485.1680342789744 181.78928571428813 L 485.16803427897446 181.78928571428813 L 485.16803427897446 181.78928571428813 Z" stroke-opacity="1" stroke-linecap="round" stroke-linejoin="round" stroke-miterlimit="10" stroke-width="2" stroke-dasharray=""/><path fill="none" stroke="rgb(255,255,255)" paint-order="fill stroke markers" d=" M 446.4999999999993 159.46428571428802 L 490.69203917597093 159.46428571428802 L 402.30796082402765 159.46428571428802 L 446.4999999999993 159.46428571428802 L 490.6920391759709 159.46428571428802 L 402.3079608240276 159.46428571428802 L 446.49999999999926 159.46428571428802 L 446.4999999999993 159.46428571428802 L 446.4999999999993 159.46428571428802 Z" stroke-opacity="1" stroke-linecap="round" stroke-linejoin="round" stroke-miterlimit="10" stroke-width="2" stroke-dasharray=""/><path fill="none" stroke="rgb(255,255,255)" paint-order="fill stroke markers" d=" M 407.83196572102406 181.78928571428787 L 452.0240048969957 181.78928571428787 L 363.6399265450524 181.78928571428787 L 407.83196572102406 181.78928571428787 L 452.0240048969956 181.78928571428787 L 363.63992654505233 181.78928571428787 L 407.831965721024 181.78928571428787 L 407.83196572102406 181.78928571428787 L 407.83196572102406 181.78928571428787 Z" stroke-opacity="1" stroke-linecap="round" stroke-linejoin="round" stroke-miterlimit="10" stroke-width="2" stroke-dasharray=""/><path fill="none" stroke="rgb(255,255,255)" paint-order="fill stroke markers" d=" M 369.1639314420488 204.11428571428772 L 413.3559706180204 204.11428571428772 L 324.97189226607713 204.11428571428772 L 369.1639314420488 204.11428571428772 L 413.35597061802036 204.11428571428772 L 324.9718922660771 204.11428571428772 L 369.16393144204875 204.11428571428772 L 369.1639314420488 204.11428571428772 L 369.1639314420488 204.11428571428772 Z" stroke-opacity="1" stroke-linecap="round" stroke-linejoin="round" stroke-miterlimit="10" stroke-width="2" stroke-dasharray=""/><path fill="none" stroke="rgb(255,255,255)" paint-order="fill stroke markers" d=" M 330.49589716307355 226.43928571428756 L 374.68793633904517 226.43928571428756 L 286.3038579871019 226.43928571428756 L 330.49589716307355 226.43928571428756 L 374.6879363390451 226.43928571428756 L 286.3038579871018 226.43928571428756 L 330.4958971630735 226.43928571428756 L 330.49589716307355 226.43928571428756 L 330.49589716307355 226.43928571428756 Z" stroke-opacity="1" stroke-linecap="round" stroke-linejoin="round" stroke-miterlimit="10" stroke-width="2" stroke-dasharray=""/><path fill="none" stroke="rgb(255,255,255)" paint-order="fill stroke markers" d=" M 291.8278628840983 248.7642857142874 L 336.0199020600699 248.7642857142874 L 247.63582370812662 248.7642857142874 L 291.8278628840983 248.7642857142874 L 336.01990206006985 248.7642857142874 L 247.63582370812657 248.7642857142874 L 291.82786288409824 248.7642857142874 L 291.8278628840983 248.7642857142874 L 291.8278628840983 248.7642857142874 Z" stroke-opacity="1" stroke-linecap="round" stroke-linejoin="round" stroke-miterlimit="10" stroke-width="2" stroke-dasharray=""/><path fill="none" stroke="rgb(255,255,255)" paint-order="fill stroke markers" d=" M 253.15982860512304 271.08928571428726 L 297.35186778109465 271.08928571428726 L 208.96778942915137 271.08928571428726 L 253.15982860512304 271.08928571428726 L 297.3518677810946 271.08928571428726 L 208.9677894291513 271.08928571428726 L 253.159828605123 271.08928571428726 L 253.15982860512304 271.08928571428726 L 253.15982860512304 271.08928571428726 Z" stroke-opacity="1" stroke-linecap="round" stroke-linejoin="round" stroke-miterlimit="10" stroke-width="2" stroke-dasharray=""/><path fill="none" stroke="rgb(255,255,255)" paint-order="fill stroke markers" d=" M 214.49179432614778 293.41428571428713 L 258.6838335021194 293.41428571428713 L 170.2997551501761 293.41428571428713 L 214.49179432614778 293.41428571428713 L 258.68383350211934 293.41428571428713 L 170.29975515017605 293.41428571428713 L 214.49179432614775 293.41428571428713 L 214.49179432614778 293.41428571428713 L 214.49179432614778 293.41428571428713 Z" stroke-opacity="1" stroke-linecap="round" stroke-linejoin="round" stroke-miterlimit="10" stroke-width="2" stroke-dasharray=""/></g></svg>