<svg version="1.1" xmlns="http://www.w3.org/2000/svg" xmlns:xlink="http://www.w3.org/1999/xlink" width="893" height="893" viewBox="0 0 893 893"><defs/><g><rect fill="rgb(20,20,20)" stroke="none" x="0" y="0" width="893" height="893" transform="matrix(1 0 0 1 0 0)" fill-opacity="1"/><path fill="none" stroke="rgb(255,255,255)" paint-order="fill stroke markers" d=" M 446.5 446.5 L 471.7525938148409 471.7525938148409 L 421.24740618515904 421.24740618515904 L 446.5 446.5 L 471.7525938148409 471.7525938148409 L 421.24740618515904 421.24740618515904 L 446.5 446.5 L 446.5 446.5 L 446.5 446.5 Z" stroke-opacity="1" stroke-linecap="round" stroke-linejoin="round" stroke-miterlimit="10" stroke-width="2" stroke-dasharray=""/><path fill="none" stroke="rgb(255,255,255)" paint-order="fill stroke markers" d=" M 446.5 401.85 L 471.7525938148409 427.10259381484093 L 421.24740618515904 376.59740618515906 L 446.5 401.85 L 471.7525938148409 427.10259381484093 L 421.24740618515904 376.59740618515906 L 446.5 401.85 L 446.5 401.85 L 446.5 401.85 Z" stroke-opacity="1" stroke-linecap="round" stroke-linejoin="round" stroke-miterlimit="10" stroke-width="2" stroke-dasharray=""/><path fill="none" stroke="rgb(255,255,255)" paint-order="fill stroke markers" d=" M 407.8319657210248 424.175 L 433.0845595358657 449.4275938148409 L 382.57937190618384 398.92240618515905 L 407.8319657210248 424.175 L 433.0845595358657 449.4275938148409 L 382.57937190618384 398.92240618515905 L 407.8319657210248 424.175 L 407.8319657210248 424.175 L 407.8319657210248 424.175 Z" stroke-opacity="1" stroke-linecap="round" stroke-linejoin="round" stroke-miterlimit="10" stroke-width="2" stroke-dasharray=""/><path fill="none" stroke="rgb(255,255,255)" paint-order="fill stroke markers" d=" M 407.8319657210248 468.825 L 433.0845595358657 494.0775938148409 L 382.57937190618384 443.572406185159 L 407.8319657210248 468.825 L 433.0845595358657 494.0775938148409 L 382.57937190618384 443.572406185159 L 407.8319657210248 468.825 L 407.8319657210248 468.825 L 407.8319657210248 468.825 Z" stroke-opacity="1" stroke-linecap="round" stroke-linejoin="round" stroke-miterlimit="10" stroke-width="2" stroke-dasharray=""/><path fill="none" stroke="rgb(255,255,255)" paint-order="fill stroke markers" d=" M 446.5 491.15000000000003 L 471.7525938148409 516.402593814841 L 421.24740618515904 465.89740618515907 L 446.5 491.15000000000003 L 471.7525938148409 516.4025938148409 L 421.24740618515904 465.89740618515907 L 446.5 491.15000000000003 L 446.5 491.15000000000003 L 446.5 491.15000000000003 Z" stroke-opacity="1" stroke-linecap="round" stroke-linejoin="round" stroke-miterlimit="10" stroke-width="2" stroke-dasharray=""/><path fill="none" stroke="rgb(255,255,255)" paint-order="fill stroke markers" d=" M 485.1680342789752 468.82500000000005 L 510.4206280938161 494.07759381484095 L 459.91544046413424 443.5724061851591 L 485.1680342789752 468.82500000000005 L 510.4206280938161 494.07759381484095 L 459.91544046413424 443.5724061851591 L 485.1680342789752 468.82500000000005 L 485.1680342789752 468.82500000000005 L 485.1680342789752 468.82500000000005 Z" stroke-opacity="1" stroke-linecap="round" stroke-linejoin="round" stroke-miterlimit="10" stroke-width="2" stroke-dasharray=""/><path fill="none" stroke="rgb(255,255,255)" paint-order="fill stroke markers" d=" M 485.1680342789752 424.17500000000007 L 510.4206280938161 449.427593814841 L 459.91544046413424 398.9224061851591 L 485.1680342789752 424.17500000000007 L 510.4206280938161 449.427593814841 L 459.91544046413424 398.9224061851591 L 485.1680342789752 424.17500000000007 L 485.1680342789752 424.17500000000007 L 485.1680342789752 424.17500000000007 Z" stroke-opacity="1" stroke-linecap="round" stroke-linejoin="round" stroke-miterlimit="10" stroke-width="2" stroke-dasharray=""/><path fill="none" stroke="rgb(255,255,255)" paint-order="fill stroke markers" d=" M 485.1680342789752 379.5250000000001 L 510.4206280938161 404.777593814841 L 459.91544046413424 354.2724061851591 L 485.1680342789752 379.5250000000001 L 510.4206280938161 404.777593814841 L 459.91544046413424 354.2724061851591 L 485.1680342789752 379.5250000000001 L 485.1680342789752 379.5250000000001 L 485.1680342789752 379.5250000000001 Z" stroke-opacity="1" stroke-linecap="round" stroke-linejoin="round" stroke-miterlimit="10" stroke-width="2" stroke-dasharray=""/><path fill="none" stroke="rgb(255,255,255)" paint-order="fill stroke markers" d=" M 446.5 357.20000000000005 L 471.7525938148409 382.45259381484095 L 421.24740618515904 331.9474061851591 L 446.5 357.20000000000005 L 471.7525938148409 382.45259381484095 L 421.24740618515904 331.9474061851591 L 446.5 357.20000000000005 L 446.5 357.20000000000005 L 446.5 357.20000000000005 Z" stroke-opacity="1" stroke-linecap="round" stroke-linejoin="round" stroke-miterlimit="10" stroke-width="2" stroke-dasharray=""/><path fill="none" stroke="rgb(255,255,255)" paint-order="fill stroke markers" d=" M 407.8319657210248 379.52500000000003 L 433.0845595358657 404.77759381484094 L 382.57937190618384 354.27240618515907 L 407.8319657210248 379.52500000000003 L 433.0845595358657 404.77759381484094 L 382.57937190618384 354.27240618515907 L 407.8319657210248 379.52500000000003 L 407.8319657210248 379.52500000000003 L 407.8319657210248 379.52500000000003 Z" stroke-opacity="1" stroke-linecap="round" stroke-linejoin="round" stroke-miterlimit="10" stroke-width="2" stroke-dasharray=""/><path fill="none" stroke="rgb(255,255,255)" paint-order="fill stroke markers" d=" M 369.1639314420496 401.85 L 394.4165252568905 427.10259381484093 L 343.91133762720864 376.59740618515906 L 369.1639314420496 401.85 L 394.4165252568905 427.10259381484093 L 343.91133762720864 376.59740618515906 L 369.1639314420496 401.85 L 369.1639314420496 401.85 L 369.1639314420496 401.85 Z" stroke-opacity="1" stroke-linecap="round" stroke-linejoin="round" stroke-miterlimit="10" stroke-width="2" stroke-dasharray=""/><path fill="none" stroke="rgb(255,255,255)" paint-order="fill stroke markers" d=" M 369.1639314420496 446.5 L 394.4165252568905 471.7525938148409 L 343.91133762720864 421.24740618515904 L 369.1639314420496 446.5 L 394.4165252568905 471.7525938148409 L 343.91133762720864 421.24740618515904 L 369.1639314420496 446.5 L 369.1639314420496 446.5 L 369.1639314420496 446.5 Z" stroke-opacity="1" stroke-linecap="round" stroke-linejoin="round" stroke-miterlimit="10" stroke-width="2" stroke-dasharray=""/><path fill="none" stroke="rgb(255,255,255)" paint-order="fill stroke markers" d=" M 369.1639314420496 491.15 L 394.4165252568905 516.4025938148409 L 343.91133762720864 465.897406185159 L 369.1639314420496 491.15 L 394.4165252568905 516.4025938148409 L 343.91133762720864 465.897406185159 L 369.1639314420496 491.15 L 369.1639314420496 491.15 L 369.1639314420496 491.15 Z" stroke-opacity="1" stroke-linecap="round" stroke-linejoin="round" stroke-miterlimit="10" stroke-width="2" stroke-dasharray=""/><path fill="none" stroke="rgb(255,255,255)" paint-order="fill stroke markers" d=" M 407.83196572102474 513.475 L 433.08455953586565 538.7275938148409 L 382.5793719061838 488.22240618515906 L 407.83196572102474 513.475 L 433.08455953586565 538.7275938148409 L 382.5793719061838 488.22240618515906 L 407.83196572102474 513.475 L 407.83196572102474 513.475 L 407.83196572102474 513.475 Z" stroke-opacity="1" stroke-linecap="round" stroke-linejoin="round" stroke-miterlimit="10" stroke-width="2" stroke-dasharray=""/><path fill="none" stroke="rgb(255,255,255)" paint-order="fill stroke markers" d=" M 446.4999999999999 535.8000000000001 L 471.7525938148408 561.052593814841 L 421.2474061851589 510.5474061851591 L 446.4999999999999 535.8000000000001 L 471.7525938148408 561.052593814841 L 421.2474061851589 510.5474061851591 L 446.4999999999999 535.8000000000001 L 446.4999999999999 535.8000000000001 L 446.4999999999999 535.8000000000001 Z" stroke-opacity="1" stroke-linecap="round" stroke-linejoin="round" stroke-miterlimit="10" stroke-width="2" stroke-dasharray=""/><path fill="none" stroke="rgb(255,255,255)" paint-order="fill stroke markers" d=" M 485.1680342789751 513.4750000000001 L 510.420628093816 538.727593814841 L 459.9154404641341 488.2224061851592 L 485.1680342789751 513.4750000000001 L 510.420628093816 538.727593814841 L 459.9154404641341 488.2224061851592 L 485.1680342789751 513.4750000000001 L 485.1680342789751 513.4750000000001 L 485.1680342789751 513.4750000000001 Z" stroke-opacity="1" stroke-linecap="round" stroke-linejoin="round" stroke-miterlimit="10" stroke-width="2" stroke-dasharray=""/><path fill="none" stroke="rgb(255,255,255)" paint-order="fill stroke markers" d=" M 523.8360685579503 491.1500000000002 L 549.0886623727912 516.4025938148411 L 498.5834747431093 465.89740618515924 L 523.8360685579503 491.1500000000002 L 549.0886623727912 516.4025938148411 L 498.5834747431093 465.89740618515924 L 523.8360685579503 491.1500000000002 L 523.8360685579503 491.1500000000002 L 523.8360685579503 491.1500000000002 Z" stroke-opacity="1" stroke-linecap="round" stroke-linejoin="round" stroke-miterlimit="10" stroke-width="2" stroke-dasharray=""/><path fill="none" stroke="rgb(255,255,255)" paint-order="fill stroke markers" d=" M 523.8360685579503 446.5000000000002 L 549.0886623727912 471.75259381484113 L 498.5834747431093 421.24740618515926 L 523.8360685579503 446.5000000000002 L 549.0886623727912 471.75259381484113 L 498.5834747431093 421.24740618515926 L 523.8360685579503 446.5000000000002 L 523.8360685579503 446.5000000000002 L 523.8360685579503 446.5000000000002 Z" stroke-opacity="1" stroke-linecap="round" stroke-linejoin="round" stroke-miterlimit="10" stroke-width="2" stroke-dasharray=""/><path fill="none" stroke="rgb(255,255,255)" paint-order="fill stroke markers" d=" M 523.8360685579503 401.85000000000025 L 549.0886623727912 427.10259381484116 L 498.5834747431093 376.5974061851593 L 523.8360685579503 401.85000000000025 L 549.0886623727912 427.10259381484116 L 498.5834747431093 376.5974061851593 L 523.8360685579503 401.85000000000025 L 523.8360685579503 401.85000000000025 L 523.8360685579503 401.85000000000025 Z" stroke-opacity="1" stroke-linecap="round" stroke-linejoin="round" stroke-miterlimit="10" stroke-width="2" stroke-dasharray=""/><path fill="none" stroke="rgb(255,255,255)" paint-order="fill stroke markers" d=" M 523.8360685579503 357.2000000000003 L 549.0886623727912 382.4525938148412 L 498.5834747431093 331.9474061851593 L 523.8360685579503 357.2000000000003 L 549.0886623727912 382.4525938148412 L 498.5834747431093 331.9474061851593 L 523.8360685579503 357.2000000000003 L 523.8360685579503 357.2000000000003 L 523.8360685579503 357.2000000000003 Z" stroke-opacity="1" stroke-linecap="round" stroke-linejoin="round" stroke-miterlimit="10" stroke-width="2" stroke-dasharray=""/><path fill="none" stroke="rgb(255,255,255)" paint-order="fill stroke markers" d=" M 485.16803427897514 334.8750000000002 L 510.42062809381605 360.12759381484113 L 459.9154404641342 309.62240618515926 L 485.16803427897514 334.8750000000002 L 510.42062809381605 360.12759381484113 L 459.9154404641342 309.62240618515926 L 485.16803427897514 334.8750000000002 L 485.16803427897514 334.8750000000002 L 485.16803427897514 334.8750000000002 Z" stroke-opacity="1" stroke-linecap="round" stroke-linejoin="round" stroke-miterlimit="10" stroke-width="2" stroke-dasharray=""/><path fill="none" stroke="rgb(255,255,255)" paint-order="fill stroke markers" d=" M 446.5 312.5500000000002 L 471.7525938148409 337.8025938148411 L 421.24740618515904 287.2974061851592 L 446.5 312.5500000000002 L 471.7525938148409 337.8025938148411 L 421.24740618515904 287.2974061851592 L 446.5 312.5500000000002 L 446.5 312.5500000000002 L 446.5 312.5500000000002 Z" stroke-opacity="1" stroke-linecap="round" stroke-linejoin="round" stroke-miterlimit="10" stroke-width="2" stroke-dasharray=""/><path fill="none" stroke="rgb(255,255,255)" paint-order="fill stroke markers" d=" M 407.8319657210248 334.8750000000001 L 433.0845595358657 360.127593814841 L 382.57937190618384 309.62240618515915 L 407.8319657210248 334.8750000000001 L 433.0845595358657 360.127593814841 L 382.57937190618384 309.62240618515915 L 407.8319657210248 334.8750000000001 L 407.8319657210248 334.8750000000001 L 407.8319657210248 334.8750000000001 Z" stroke-opacity="1" stroke-linecap="round" stroke-linejoin="round" stroke-miterlimit="10" stroke-width="2" stroke-dasharray=""/><path fill="none" stroke="rgb(255,255,255)" paint-order="fill stroke markers" d=" M 369.1639314420496 357.20000000000005 L 394.4165252568905 382.45259381484095 L 343.91133762720864 331.9474061851591 L 369.1639314420496 357.20000000000005 L 394.4165252568905 382.45259381484095 L 343.91133762720864 331.9474061851591 L 369.1639314420496 357.20000000000005 L 369.1639314420496 357.20000000000005 L 369.1639314420496 357.20000000000005 Z" stroke-opacity="1" stroke-linecap="round" stroke-linejoin="round" stroke-miterlimit="10" stroke-width="2" stroke-dasharray=""/><path fill="none" stroke="rgb(255,255,255)" paint-order="fill stroke markers" d=" M 330.4958971630744 379.525 L 355.7484909779153 404.7775938148409 L 305.24330334823344 354.272406185159 L 330.4958971630744 379.525 L 355.7484909779153 404.7775938148409 L 305.24330334823344 354.272406185159 L 330.4958971630744 379.525 L 330.4958971630744 379.525 L 330.4958971630744 379.525 Z" stroke-opacity="1" stroke-linecap="round" stroke-linejoin="round" stroke-miterlimit="10" stroke-width="2" stroke-dasharray=""/><path fill="none" stroke="rgb(255,255,255)" paint-order="fill stroke markers" d=" M 330.4958971630743 424.17499999999995 L 355.7484909779152 449.42759381484086 L 305.2433033482333 398.922406185159 L 330.4958971630743 424.17499999999995 L 355.7484909779152 449.42759381484086 L 305.2433033482333 398.922406185159 L 330.4958971630743 424.17499999999995 L 330.4958971630743 424.17499999999995 L 330.4958971630743 424.17499999999995 Z" stroke-opacity="1" stroke-linecap="round" stroke-linejoin="round" stroke-miterlimit="10" stroke-width="2" stroke-dasharray=""/><path fill="none" stroke="rgb(255,255,255)" paint-order="fill stroke markers" d=" M 330.4958971630742 468.82499999999993 L 355.7484909779151 494.07759381484084 L 305.2433033482332 443.57240618515897 L 330.4958971630742 468.82499999999993 L 355.7484909779151 494.07759381484084 L 305.2433033482332 443.57240618515897 L 330.4958971630742 468.82499999999993 L 330.4958971630742 468.82499999999993 L 330.4958971630742 468.82499999999993 Z" stroke-opacity="1" stroke-linecap="round" stroke-linejoin="round" stroke-miterlimit="10" stroke-width="2" stroke-dasharray=""/><path fill="none" stroke="rgb(255,255,255)" paint-order="fill stroke markers" d=" M 330.49589716307406 513.4749999999999 L 355.74849097791497 538.7275938148408 L 305.2433033482331 488.22240618515895 L 330.49589716307406 513.4749999999999 L 355.74849097791497 538.7275938148408 L 305.2433033482331 488.22240618515895 L 330.49589716307406 513.4749999999999 L 330.49589716307406 513.4749999999999 L 330.49589716307406 513.4749999999999 Z" stroke-opacity="1" stroke-linecap="round" stroke-linejoin="round" stroke-miterlimit="10" stroke-width="2" stroke-dasharray=""/><path fill="none" stroke="rgb(255,255,255)" paint-order="fill stroke markers" d=" M 369.1639314420492 535.8 L 394.4165252568901 561.0525938148409 L 343.91133762720824 510.547406185159 L 369.1639314420492 535.8 L 394.4165252568901 561.0525938148409 L 343.91133762720824 510.547406185159 L 369.1639314420492 535.8 L 369.1639314420492 535.8 L 369.1639314420492 535.8 Z" stroke-opacity="1" stroke-linecap="round" stroke-linejoin="round" stroke-miterlimit="10" stroke-width="2" stroke-dasharray=""/><path fill="none" stroke="rgb(255,255,255)" paint-order="fill stroke markers" d=" M 407.83196572102435 558.125 L 433.08455953586525 583.3775938148409 L 382.5793719061834 532.8724061851591 L 407.83196572102435 558.125 L 433.08455953586525 583.3775938148409 L 382.5793719061834 532.872406185159 L 407.83196572102435 558.125 L 407.83196572102435 558.125 L 407.83196572102435 558.125 Z" stroke-opacity="1" stroke-linecap="round" stroke-linejoin="round" stroke-miterlimit="10" stroke-width="2" stroke-dasharray=""/><path fill="none" stroke="rgb(255,255,255)" paint-order="fill stroke markers" d=" M 446.4999999999995 580.45 L 471.7525938148404 605.702593814841 L 421.2474061851585 555.1974061851591 L 446.4999999999995 580.45 L 471.7525938148404 605.702593814841 L 421.2474061851585 555.197406185159 L 446.4999999999995 580.45 L 446.4999999999995 580.45 L 446.4999999999995 580.45 Z" stroke-opacity="1" stroke-linecap="round" stroke-linejoin="round" stroke-miterlimit="10" stroke-width="2" stroke-dasharray=""/><path fill="none" stroke="rgb(255,255,255)" paint-order="fill stroke markers" d=" M 485.16803427897474 558.1250000000001 L 510.42062809381565 583.377593814841 L 459.9154404641338 532.8724061851592 L 485.16803427897474 558.1250000000001 L 510.42062809381565 583.377593814841 L 459.9154404641338 532.8724061851591 L 485.16803427897474 558.1250000000001 L 485.16803427897474 558.1250000000001 L 485.16803427897474 558.1250000000001 Z" stroke-opacity="1" stroke-linecap="round" stroke-linejoin="round" stroke-miterlimit="10" stroke-width="2" stroke-dasharray=""/><path fill="none" stroke="rgb(255,255,255)" paint-order="fill stroke markers" d=" M 523.83606855795 535.8000000000002 L 549.0886623727908 561.0525938148411 L 498.583474743109 510.5474061851592 L 523.83606855795 535.8000000000002 L 549.0886623727908 561.0525938148411 L 498.583474743109 510.5474061851592 L 523.83606855795 535.8000000000002 L 523.83606855795 535.8000000000002 L 523.83606855795 535.8000000000002 Z" stroke-opacity="1" stroke-linecap="round" stroke-linejoin="round" stroke-miterlimit="10" stroke-width="2" stroke-dasharray=""/><path fill="none" stroke="rgb(255,255,255)" paint-order="fill stroke markers" d=" M 562.5041028369252 513.4750000000003 L 587.7566966517661 538.7275938148412 L 537.2515090220843 488.2224061851593 L 562.5041028369252 513.4750000000003 L 587.7566966517661 538.7275938148412 L 537.2515090220842 488.2224061851593 L 562.5041028369252 513.4750000000003 L 562.5041028369252 513.4750000000003 L 562.5041028369252 513.4750000000003 Z" stroke-opacity="1" stroke-linecap="round" stroke-linejoin="round" stroke-miterlimit="10" stroke-width="2" stroke-dasharray=""/><path fill="none" stroke="rgb(255,255,255)" paint-order="fill stroke markers" d=" M 562.5041028369252 468.8250000000003 L 587.7566966517661 494.0775938148412 L 537.2515090220843 443.5724061851593 L 562.5041028369252 468.8250000000003 L 587.7566966517661 494.0775938148412 L 537.2515090220842 443.5724061851593 L 562.5041028369252 468.8250000000003 L 562.5041028369252 468.8250000000003 L 562.5041028369252 468.8250000000003 Z" stroke-opacity="1" stroke-linecap="round" stroke-linejoin="round" stroke-miterlimit="10" stroke-width="2" stroke-dasharray=""/><path fill="none" stroke="rgb(255,255,255)" paint-order="fill stroke markers" d=" M 562.5041028369252 424.1750000000003 L 587.7566966517661 449.4275938148412 L 537.2515090220843 398.92240618515933 L 562.5041028369252 424.1750000000003 L 587.7566966517661 449.4275938148412 L 537.2515090220842 398.92240618515933 L 562.5041028369252 424.1750000000003 L 562.5041028369252 424.1750000000003 L 562.5041028369252 424.1750000000003 Z" stroke-opacity="1" stroke-linecap="round" stroke-linejoin="round" stroke-miterlimit="10" stroke-width="2" stroke-dasharray=""/><path fill="none" stroke="rgb(255,255,255)" paint-order="fill stroke markers" d=" M 562.5041028369252 379.5250000000003 L 587.7566966517661 404.7775938148412 L 537.2515090220843 354.27240618515935 L 562.5041028369252 379.5250000000003 L 587.7566966517661 404.7775938148412 L 537.2515090220842 354.27240618515935 L 562.5041028369252 379.5250000000003 L 562.5041028369252 379.5250000000003 L 562.5041028369252 379.5250000000003 Z" stroke-opacity="1" stroke-linecap="round" stroke-linejoin="round" stroke-miterlimit="10" stroke-width="2" stroke-dasharray=""/><path fill="none" stroke="rgb(255,255,255)" paint-order="fill stroke markers" d=" M 562.5041028369252 334.87500000000034 L 587.7566966517661 360.12759381484125 L 537.2515090220843 309.6224061851594 L 562.5041028369252 334.87500000000034 L 587.7566966517661 360.12759381484125 L 537.2515090220842 309.6224061851594 L 562.5041028369252 334.87500000000034 L 562.5041028369252 334.87500000000034 L 562.5041028369252 334.87500000000034 Z" stroke-opacity="1" stroke-linecap="round" stroke-linejoin="round" stroke-miterlimit="10" stroke-width="2" stroke-dasharray=""/><path fill="none" stroke="rgb(255,255,255)" paint-order="fill stroke markers" d=" M 523.8360685579501 312.5500000000003 L 549.088662372791 337.8025938148412 L 498.5834747431091 287.29740618515933 L 523.8360685579501 312.5500000000003 L 549.088662372791 337.8025938148412 L 498.5834747431091 287.29740618515933 L 523.8360685579501 312.5500000000003 L 523.8360685579501 312.5500000000003 L 523.8360685579501 312.5500000000003 Z" stroke-opacity="1" stroke-linecap="round" stroke-linejoin="round" stroke-miterlimit="10" stroke-width="2" stroke-dasharray=""/><path fill="none" stroke="rgb(255,255,255)" paint-order="fill stroke markers" d=" M 485.1680342789749 290.22500000000025 L 510.4206280938158 315.47759381484116 L 459.91544046413395 264.9724061851593 L 485.1680342789749 290.22500000000025 L 510.4206280938158 315.47759381484116 L 459.91544046413395 264.9724061851593 L 485.1680342789749 290.22500000000025 L 485.1680342789749 290.22500000000025 L 485.1680342789749 290.22500000000025 Z" stroke-opacity="1" stroke-linecap="round" stroke-linejoin="round" stroke-miterlimit="10" stroke-width="2" stroke-dasharray=""/><path fill="none" stroke="rgb(255,255,255)" paint-order="fill stroke markers" d=" M 446.4999999999998 267.9000000000002 L 471.7525938148407 293.1525938148411 L 421.2474061851588 242.64740618515924 L 446.4999999999998 267.9000000000002 L 471.7525938148407 293.1525938148411 L 421.2474061851588 242.6474061851592 L 446.4999999999998 267.9000000000002 L 446.4999999999998 267.9000000000002 L 446.4999999999998 267.9000000000002 Z" stroke-opacity="1" stroke-linecap="round" stroke-linejoin="round" stroke-miterlimit="10" stroke-width="2" stroke-dasharray=""/><path fill="none" stroke="rgb(255,255,255)" paint-order="fill stroke markers" d=" M 407.8319657210245 290.2250000000001 L 433.0845595358654 315.477593814841 L 382.57937190618355 264.9724061851591 L 407.8319657210245 290.2250000000001 L 433.0845595358654 315.477593814841 L 382.57937190618355 264.9724061851591 L 407.8319657210245 290.2250000000001 L 407.8319657210245 290.2250000000001 L 407.8319657210245 290.2250000000001 Z" stroke-opacity="1" stroke-linecap="round" stroke-linejoin="round" stroke-miterlimit="10" stroke-width="2" stroke-dasharray=""/><path fill="none" stroke="rgb(255,255,255)" paint-order="fill stroke markers" d=" M 369.16393144204926 312.54999999999995 L 394.41652525689017 337.80259381484086 L 343.9113376272083 287.297406185159 L 369.16393144204926 312.54999999999995 L 394.41652525689017 337.80259381484086 L 343.9113376272083 287.297406185159 L 369.16393144204926 312.54999999999995 L 369.16393144204926 312.54999999999995 L 369.16393144204926 312.54999999999995 Z" stroke-opacity="1" stroke-linecap="round" stroke-linejoin="round" stroke-miterlimit="10" stroke-width="2" stroke-dasharray=""/><path fill="none" stroke="rgb(255,255,255)" paint-order="fill stroke markers" d=" M 330.495897163074 334.87499999999983 L 355.7484909779149 360.12759381484074 L 305.24330334823304 309.62240618515887 L 330.495897163074 334.87499999999983 L 355.7484909779149 360.12759381484074 L 305.24330334823304 309.62240618515887 L 330.495897163074 334.87499999999983 L 330.495897163074 334.87499999999983 L 330.495897163074 334.87499999999983 Z" stroke-opacity="1" stroke-linecap="round" stroke-linejoin="round" stroke-miterlimit="10" stroke-width="2" stroke-dasharray=""/><path fill="none" stroke="rgb(255,255,255)" paint-order="fill stroke markers" d=" M 291.82786288409875 357.1999999999997 L 317.08045669893966 382.4525938148406 L 266.5752690692578 331.94740618515874 L 291.82786288409875 357.1999999999997 L 317.08045669893966 382.4525938148406 L 266.5752690692578 331.94740618515874 L 291.82786288409875 357.1999999999997 L 291.82786288409875 357.1999999999997 L 291.82786288409875 357.1999999999997 Z" stroke-opacity="1" stroke-linecap="round" stroke-linejoin="round" stroke-miterlimit="10" stroke-width="2" stroke-dasharray=""/><path fill="none" stroke="rgb(255,255,255)" paint-order="fill stroke markers" d=" M 291.8278628840987 401.8499999999997 L 317.0804566989396 427.1025938148406 L 266.57526906925773 376.5974061851587 L 291.8278628840987 401.8499999999997 L 317.0804566989396 427.1025938148406 L 266.57526906925773 376.5974061851587 L 291.8278628840987 401.8499999999997 L 291.8278628840987 401.8499999999997 L 291.8278628840987 401.8499999999997 Z" stroke-opacity="1" stroke-linecap="round" stroke-linejoin="round" stroke-miterlimit="10" stroke-width="2" stroke-dasharray=""/><path fill="none" stroke="rgb(255,255,255)" paint-order="fill stroke markers" d=" M 291.82786288409864 446.49999999999966 L 317.08045669893954 471.75259381484057 L 266.5752690692577 421.2474061851587 L 291.82786288409864 446.49999999999966 L 317.08045669893954 471.75259381484057 L 266.5752690692577 421.2474061851587 L 291.82786288409864 446.49999999999966 L 291.82786288409864 446.49999999999966 L 291.82786288409864 446.49999999999966 Z" stroke-opacity="1" stroke-linecap="round" stroke-linejoin="round" stroke-miterlimit="10" stroke-width="2" stroke-dasharray=""/><path fill="none" stroke="rgb(255,255,255)" paint-order="fill stroke markers" d=" M 291.8278628840986 491.14999999999964 L 317.0804566989395 516.4025938148405 L 266.5752690692576 465.8974061851587 L 291.8278628840986 491.14999999999964 L 317.0804566989395 516.4025938148405 L 266.5752690692576 465.8974061851587 L 291.8278628840986 491.14999999999964 L 291.8278628840986 491.14999999999964 L 291.8278628840986 491.14999999999964 Z" stroke-opacity="1" stroke-linecap="round" stroke-linejoin="round" stroke-miterlimit="10" stroke-width="2" stroke-dasharray=""/><path fill="none" stroke="rgb(255,255,255)" paint-order="fill stroke markers" d=" M 291.8278628840985 535.7999999999996 L 317.08045669893943 561.0525938148405 L 266.57526906925756 510.54740618515865 L 291.8278628840985 535.7999999999996 L 317.08045669893943 561.0525938148405 L 266.57526906925756 510.54740618515865 L 291.8278628840985 535.7999999999996 L 291.8278628840985 535.7999999999996 L 291.8278628840985 535.7999999999996 Z" stroke-opacity="1" stroke-linecap="round" stroke-linejoin="round" stroke-miterlimit="10" stroke-width="2" stroke-dasharray=""/><path fill="none" stroke="rgb(255,255,255)" paint-order="fill stroke markers" d=" M 330.49589716307366 558.1249999999997 L 355.74849097791457 583.3775938148406 L 305.2433033482327 532.8724061851588 L 330.49589716307366 558.1249999999997 L 355.74849097791457 583.3775938148406 L 305.2433033482327 532.8724061851586 L 330.49589716307366 558.1249999999997 L 330.49589716307366 558.1249999999997 L 330.49589716307366 558.1249999999997 Z" stroke-opacity="1" stroke-linecap="round" stroke-linejoin="round" stroke-miterlimit="10" stroke-width="2" stroke-dasharray=""/><path fill="none" stroke="rgb(255,255,255)" paint-order="fill stroke markers" d=" M 369.1639314420488 580.4499999999997 L 394.4165252568897 605.7025938148406 L 343.91133762720784 555.1974061851588 L 369.1639314420488 580.4499999999997 L 394.4165252568897 605.7025938148406 L 343.91133762720784 555.1974061851587 L 369.1639314420488 580.4499999999997 L 369.1639314420488 580.4499999999997 L 369.1639314420488 580.4499999999997 Z" stroke-opacity="1" stroke-linecap="round" stroke-linejoin="round" stroke-miterlimit="10" stroke-width="2" stroke-dasharray=""/><path fill="none" stroke="rgb(255,255,255)" paint-order="fill stroke markers" d=" M 407.83196572102395 602.7749999999997 L 433.08455953586486 628.0275938148407 L 382.579371906183 577.5224061851588 L 407.83196572102395 602.7749999999997 L 433.08455953586486 628.0275938148407 L 382.579371906183 577.5224061851587 L 407.83196572102395 602.7749999999997 L 407.83196572102395 602.7749999999997 L 407.83196572102395 602.7749999999997 Z" stroke-opacity="1" stroke-linecap="round" stroke-linejoin="round" stroke-miterlimit="10" stroke-width="2" stroke-dasharray=""/><path fill="none" stroke="rgb(255,255,255)" paint-order="fill stroke markers" d=" M 446.4999999999991 625.0999999999998 L 471.75259381484 650.3525938148407 L 421.2474061851581 599.8474061851589 L 446.4999999999991 625.0999999999998 L 471.75259381484 650.3525938148407 L 421.2474061851581 599.8474061851588 L 446.4999999999991 625.0999999999998 L 446.4999999999991 625.0999999999998 L 446.4999999999991 625.0999999999998 Z" stroke-opacity="1" stroke-linecap="round" stroke-linejoin="round" stroke-miterlimit="10" stroke-width="2" stroke-dasharray=""/><path fill="none" stroke="rgb(255,255,255)" paint-order="fill stroke markers" d=" M 485.16803427897435 602.775 L 510.42062809381525 628.0275938148409 L 459.9154404641334 577.5224061851591 L 485.16803427897435 602.775 L 510.42062809381525 628.0275938148409 L 459.9154404641334 577.522406185159 L 485.16803427897435 602.775 L 485.16803427897435 602.775 L 485.16803427897435 602.775 Z" stroke-opacity="1" stroke-linecap="round" stroke-linejoin="round" stroke-miterlimit="10" stroke-width="2" stroke-dasharray=""/><path fill="none" stroke="rgb(255,255,255)" paint-order="fill stroke markers" d=" M 523.8360685579496 580.4500000000002 L 549.0886623727905 605.7025938148411 L 498.58347474310864 555.1974061851593 L 523.8360685579496 580.4500000000002 L 549.0886623727905 605.7025938148411 L 498.58347474310864 555.1974061851591 L 523.8360685579496 580.4500000000002 L 523.8360685579496 580.4500000000002 L 523.8360685579496 580.4500000000002 Z" stroke-opacity="1" stroke-linecap="round" stroke-linejoin="round" stroke-miterlimit="10" stroke-width="2" stroke-dasharray=""/><path fill="none" stroke="rgb(255,255,255)" paint-order="fill stroke markers" d=" M 562.5041028369249 558.1250000000003 L 587.7566966517658 583.3775938148412 L 537.251509022084 532.8724061851594 L 562.5041028369249 558.1250000000003 L 587.7566966517658 583.3775938148412 L 537.2515090220838 532.8724061851593 L 562.5041028369249 558.1250000000003 L 562.5041028369249 558.1250000000003 L 562.5041028369249 558.1250000000003 Z" stroke-opacity="1" stroke-linecap="round" stroke-linejoin="round" stroke-miterlimit="10" stroke-width="2" stroke-dasharray=""/><path fill="none" stroke="rgb(255,255,255)" paint-order="fill stroke markers" d=" M 601.1721371159001 535.8000000000005 L 626.424730930741 561.0525938148414 L 575.9195433010592 510.54740618515956 L 601.1721371159001 535.8000000000005 L 626.424730930741 561.0525938148414 L 575.9195433010591 510.54740618515956 L 601.1721371159001 535.8000000000005 L 601.1721371159001 535.8000000000005 L 601.1721371159001 535.8000000000005 Z" stroke-opacity="1" stroke-linecap="round" stroke-linejoin="round" stroke-miterlimit="10" stroke-width="2" stroke-dasharray=""/><path fill="none" stroke="rgb(255,255,255)" paint-order="fill stroke markers" d=" M 601.1721371159001 491.15000000000055 L 626.424730930741 516.4025938148415 L 575.9195433010592 465.8974061851596 L 601.1721371159001 491.15000000000055 L 626.424730930741 516.4025938148415 L 575.9195433010591 465.8974061851596 L 601.1721371159001 491.15000000000055 L 601.1721371159001 491.15000000000055 L 601.1721371159001 491.15000000000055 Z" stroke-opacity="1" stroke-linecap="round" stroke-linejoin="round" stroke-miterlimit="10" stroke-width="2" stroke-dasharray=""/><path fill="none" stroke="rgb(255,255,255)" paint-order="fill stroke markers" d=" M 601.1721371159001 446.50000000000057 L 626.424730930741 471.7525938148415 L 575.9195433010592 421.2474061851596 L 601.1721371159001 446.50000000000057 L 626.424730930741 471.7525938148415 L 575.9195433010591 421.2474061851596 L 601.1721371159001 446.50000000000057 L 601.1721371159001 446.50000000000057 L 601.1721371159001 446.50000000000057 Z" stroke-opacity="1" stroke-linecap="round" stroke-linejoin="round" stroke-miterlimit="10" stroke-width="2" stroke-dasharray=""/><path fill="none" stroke="rgb(255,255,255)" paint-order="fill stroke markers" d=" M 601.1721371159001 401.8500000000006 L 626.424730930741 427.1025938148415 L 575.9195433010592 376.5974061851596 L 601.1721371159001 401.8500000000006 L 626.424730930741 427.1025938148415 L 575.9195433010591 376.5974061851596 L 601.1721371159001 401.8500000000006 L 601.1721371159001 401.8500000000006 L 601.1721371159001 401.8500000000006 Z" stroke-opacity="1" stroke-linecap="round" stroke-linejoin="round" stroke-miterlimit="10" stroke-width="2" stroke-dasharray=""/><path fill="none" stroke="rgb(255,255,255)" paint-order="fill stroke markers" d=" M 601.1721371159001 357.2000000000006 L 626.424730930741 382.4525938148415 L 575.9195433010592 331.94740618515965 L 601.1721371159001 357.2000000000006 L 626.424730930741 382.4525938148415 L 575.9195433010591 331.94740618515965 L 601.1721371159001 357.2000000000006 L 601.1721371159001 357.2000000000006 L 601.1721371159001 357.2000000000006 Z" stroke-opacity="1" stroke-linecap="round" stroke-linejoin="round" stroke-miterlimit="10" stroke-width="2" stroke-dasharray=""/><path fill="none" stroke="rgb(255,255,255)" paint-order="fill stroke markers" d=" M 601.1721371159001 312.55000000000064 L 626.424730930741 337.80259381484154 L 575.9195433010592 287.2974061851597 L 601.1721371159001 312.55000000000064 L 626.424730930741 337.80259381484154 L 575.9195433010591 287.2974061851597 L 601.1721371159001 312.55000000000064 L 601.1721371159001 312.55000000000064 L 601.1721371159001 312.55000000000064 Z" stroke-opacity="1" stroke-linecap="round" stroke-linejoin="round" stroke-miterlimit="10" stroke-width="2" stroke-dasharray=""/><path fill="none" stroke="rgb(255,255,255)" paint-order="fill stroke markers" d=" M 562.504102836925 290.22500000000053 L 587.7566966517659 315.47759381484144 L 537.2515090220841 264.97240618515957 L 562.504102836925 290.22500000000053 L 587.7566966517659 315.47759381484144 L 537.251509022084 264.97240618515957 L 562.504102836925 290.22500000000053 L 562.504102836925 290.22500000000053 L 562.504102836925 290.22500000000053 Z" stroke-opacity="1" stroke-linecap="round" stroke-linejoin="round" stroke-miterlimit="10" stroke-width="2" stroke-dasharray=""/><path fill="none" stroke="rgb(255,255,255)" paint-order="fill stroke markers" d=" M 523.8360685579498 267.90000000000043 L 549.0886623727907 293.15259381484134 L 498.58347474310887 242.64740618515947 L 523.8360685579498 267.90000000000043 L 549.0886623727907 293.15259381484134 L 498.58347474310887 242.64740618515944 L 523.8360685579498 267.90000000000043 L 523.8360685579498 267.90000000000043 L 523.8360685579498 267.90000000000043 Z" stroke-opacity="1" stroke-linecap="round" stroke-linejoin="round" stroke-miterlimit="10" stroke-width="2" stroke-dasharray=""/><path fill="none" stroke="rgb(255,255,255)" paint-order="fill stroke markers" d=" M 485.1680342789747 245.57500000000036 L 510.4206280938156 270.8275938148413 L 459.9154404641337 220.32240618515942 L 485.1680342789747 245.57500000000036 L 510.4206280938156 270.8275938148413 L 459.9154404641337 220.32240618515937 L 485.1680342789747 245.57500000000033 L 485.1680342789747 245.57500000000036 L 485.1680342789747 245.57500000000036 Z" stroke-opacity="1" stroke-linecap="round" stroke-linejoin="round" stroke-miterlimit="10" stroke-width="2" stroke-dasharray=""/><path fill="none" stroke="rgb(255,255,255)" paint-order="fill stroke markers" d=" M 446.49999999999955 223.25000000000028 L 471.75259381484045 248.50259381484122 L 421.2474061851586 197.99740618515932 L 446.49999999999955 223.25000000000028 L 471.75259381484045 248.5025938148412 L 421.2474061851586 197.9974061851593 L 446.49999999999955 223.25000000000026 L 446.49999999999955 223.25000000000028 L 446.49999999999955 223.25000000000028 Z" stroke-opacity="1" stroke-linecap="round" stroke-linejoin="round" stroke-miterlimit="10" stroke-width="2" stroke-dasharray=""/><path fill="none" stroke="rgb(255,255,255)" paint-order="fill stroke markers" d=" M 407.8319657210243 245.57500000000016 L 433.0845595358652 270.82759381484107 L 382.5793719061833 220.3224061851592 L 407.8319657210243 245.57500000000016 L 433.0845595358652 270.82759381484107 L 382.5793719061833 220.32240618515917 L 407.8319657210243 245.57500000000013 L 407.8319657210243 245.57500000000016 L 407.8319657210243 245.57500000000016 Z" stroke-opacity="1" stroke-linecap="round" stroke-linejoin="round" stroke-miterlimit="10" stroke-width="2" stroke-dasharray=""/><path fill="none" stroke="rgb(255,255,255)" paint-order="fill stroke markers" d=" M 369.16393144204903 267.90000000000003 L 394.41652525688994 293.15259381484094 L 343.91133762720807 242.64740618515907 L 369.16393144204903 267.90000000000003 L 394.41652525688994 293.15259381484094 L 343.91133762720807 242.64740618515904 L 369.16393144204903 267.90000000000003 L 369.16393144204903 267.90000000000003 L 369.16393144204903 267.90000000000003 Z" stroke-opacity="1" stroke-linecap="round" stroke-linejoin="round" stroke-miterlimit="10" stroke-width="2" stroke-dasharray=""/><path fill="none" stroke="rgb(255,255,255)" paint-order="fill stroke markers" d=" M 330.4958971630738 290.2249999999999 L 355.7484909779147 315.4775938148408 L 305.2433033482328 264.97240618515895 L 330.4958971630738 290.2249999999999 L 355.7484909779147 315.4775938148408 L 305.2433033482328 264.97240618515895 L 330.4958971630738 290.2249999999999 L 330.4958971630738 290.2249999999999 L 330.4958971630738 290.2249999999999 Z" stroke-opacity="1" stroke-linecap="round" stroke-linejoin="round" stroke-miterlimit="10" stroke-width="2" stroke-dasharray=""/><path fill="none" stroke="rgb(255,255,255)" paint-order="fill stroke markers" d=" M 291.8278628840985 312.5499999999998 L 317.08045669893943 337.8025938148407 L 266.57526906925756 287.2974061851588 L 291.8278628840985 312.5499999999998 L 317.08045669893943 337.8025938148407 L 266.57526906925756 287.2974061851588 L 291.8278628840985 312.5499999999998 L 291.8278628840985 312.5499999999998 L 291.8278628840985 312.5499999999998 Z" stroke-opacity="1" stroke-linecap="round" stroke-linejoin="round" stroke-miterlimit="10" stroke-width="2" stroke-dasharray=""/><path fill="none" stroke="rgb(255,255,255)" paint-order="fill stroke markers" d=" M 253.15982860512327 334.87499999999966 L 278.4124224199642 360.12759381484057 L 227.9072347902823 309.6224061851587 L 253.15982860512327 334.87499999999966 L 278.4124224199642 360.12759381484057 L 227.90723479028227 309.6224061851587 L 253.15982860512324 334.87499999999966 L 253.15982860512327 334.87499999999966 L 253.15982860512327 334.87499999999966 Z" stroke-opacity="1" stroke-linecap="round" stroke-linejoin="round" stroke-miterlimit="10" stroke-width="2" stroke-dasharray=""/><path fill="none" stroke="rgb(255,255,255)" paint-order="fill stroke markers" d=" M 253.15982860512307 379.52499999999964 L 278.412422419964 404.77759381484054 L 227.90723479028213 354.2724061851587 L 253.15982860512307 379.52499999999964 L 278.41242241996395 404.77759381484054 L 227.90723479028208 354.2724061851587 L 253.15982860512304 379.52499999999964 L 253.15982860512307 379.52499999999964 L 253.15982860512307 379.52499999999964 Z" stroke-opacity="1" stroke-linecap="round" stroke-linejoin="round" stroke-miterlimit="10" stroke-width="2" stroke-dasharray=""/><path fill="none" stroke="rgb(255,255,255)" paint-order="fill stroke markers" d=" M 253.15982860512287 424.1749999999996 L 278.4124224199638 449.4275938148405 L 227.9072347902819 398.92240618515865 L 253.15982860512287 424.1749999999996 L 278.4124224199638 449.4275938148405 L 227.90723479028188 398.92240618515865 L 253.15982860512284 424.1749999999996 L 253.15982860512287 424.1749999999996 L 253.15982860512287 424.1749999999996 Z" stroke-opacity="1" stroke-linecap="round" stroke-linejoin="round" stroke-miterlimit="10" stroke-width="2" stroke-dasharray=""/><path fill="none" stroke="rgb(255,255,255)" paint-order="fill stroke markers" d=" M 253.15982860512267 468.8249999999996 L 278.4124224199636 494.0775938148405 L 227.90723479028173 443.5724061851586 L 253.15982860512267 468.8249999999996 L 278.4124224199636 494.0775938148405 L 227.90723479028168 443.5724061851586 L 253.15982860512264 468.8249999999996 L 253.15982860512267 468.8249999999996 L 253.15982860512267 468.8249999999996 Z" stroke-opacity="1" stroke-linecap="round" stroke-linejoin="round" stroke-miterlimit="10" stroke-width="2" stroke-dasharray=""/><path fill="none" stroke="rgb(255,255,255)" paint-order="fill stroke markers" d=" M 253.15982860512247 513.4749999999996 L 278.4124224199634 538.7275938148405 L 227.9072347902815 488.2224061851586 L 253.15982860512247 513.4749999999996 L 278.4124224199634 538.7275938148405 L 227.90723479028148 488.2224061851586 L 253.15982860512244 513.4749999999996 L 253.15982860512247 513.4749999999996 L 253.15982860512247 513.4749999999996 Z" stroke-opacity="1" stroke-linecap="round" stroke-linejoin="round" stroke-miterlimit="10" stroke-width="2" stroke-dasharray=""/><path fill="none" stroke="rgb(255,255,255)" paint-order="fill stroke markers" d=" M 253.15982860512227 558.1249999999995 L 278.4124224199632 583.3775938148405 L 227.90723479028134 532.8724061851586 L 253.15982860512227 558.1249999999995 L 278.41242241996315 583.3775938148405 L 227.90723479028128 532.8724061851585 L 253.15982860512224 558.1249999999995 L 253.15982860512227 558.1249999999995 L 253.15982860512227 558.1249999999995 Z" stroke-opacity="1" stroke-linecap="round" stroke-linejoin="round" stroke-miterlimit="10" stroke-width="2" stroke-dasharray=""/><path fill="none" stroke="rgb(255,255,255)" paint-order="fill stroke markers" d=" M 291.8278628840974 580.4499999999996 L 317.0804566989383 605.7025938148405 L 266.5752690692564 555.1974061851587 L 291.8278628840974 580.4499999999996 L 317.0804566989383 605.7025938148405 L 266.5752690692564 555.1974061851586 L 291.8278628840974 580.4499999999996 L 291.8278628840974 580.4499999999996 L 291.8278628840974 580.4499999999996 Z" stroke-opacity="1" stroke-linecap="round" stroke-linejoin="round" stroke-miterlimit="10" stroke-width="2" stroke-dasharray=""/><path fill="none" stroke="rgb(255,255,255)" paint-order="fill stroke markers" d=" M 330.4958971630725 602.7749999999996 L 355.74849097791343 628.0275938148405 L 305.24330334823156 577.5224061851587 L 330.4958971630725 602.7749999999996 L 355.74849097791343 628.0275938148405 L 305.24330334823156 577.5224061851586 L 330.4958971630725 602.7749999999996 L 330.4958971630725 602.7749999999996 L 330.4958971630725 602.7749999999996 Z" stroke-opacity="1" stroke-linecap="round" stroke-linejoin="round" stroke-miterlimit="10" stroke-width="2" stroke-dasharray=""/><path fill="none" stroke="rgb(255,255,255)" paint-order="fill stroke markers" d=" M 369.16393144204767 625.0999999999997 L 394.4165252568886 650.3525938148406 L 343.9113376272067 599.8474061851588 L 369.16393144204767 625.0999999999997 L 394.4165252568886 650.3525938148406 L 343.9113376272067 599.8474061851587 L 369.16393144204767 625.0999999999997 L 369.16393144204767 625.0999999999997 L 369.16393144204767 625.0999999999997 Z" stroke-opacity="1" stroke-linecap="round" stroke-linejoin="round" stroke-miterlimit="10" stroke-width="2" stroke-dasharray=""/><path fill="none" stroke="rgb(255,255,255)" paint-order="fill stroke markers" d=" M 407.8319657210228 647.4249999999997 L 433.0845595358637 672.6775938148406 L 382.57937190618185 622.1724061851588 L 407.8319657210228 647.4249999999997 L 433.0845595358637 672.6775938148406 L 382.57937190618185 622.1724061851587 L 407.8319657210228 647.4249999999997 L 407.8319657210228 647.4249999999997 L 407.8319657210228 647.4249999999997 Z" stroke-opacity="1" stroke-linecap="round" stroke-linejoin="round" stroke-miterlimit="10" stroke-width="2" stroke-dasharray=""/><path fill="none" stroke="rgb(255,255,255)" paint-order="fill stroke markers" d=" M 446.49999999999795 669.7499999999998 L 471.75259381483886 695.0025938148407 L 421.247406185157 644.4974061851589 L 446.49999999999795 669.7499999999998 L 471.75259381483886 695.0025938148407 L 421.247406185157 644.4974061851588 L 446.49999999999795 669.7499999999998 L 446.49999999999795 669.7499999999998 L 446.49999999999795 669.7499999999998 Z" stroke-opacity="1" stroke-linecap="round" stroke-linejoin="round" stroke-miterlimit="10" stroke-width="2" stroke-dasharray=""/><path fill="none" stroke="rgb(255,255,255)" paint-order="fill stroke markers" d=" M 485.1680342789732 647.425 L 510.4206280938141 672.6775938148409 L 459.91544046413225 622.172406185159 L 485.1680342789732 647.425 L 510.4206280938141 672.6775938148409 L 459.91544046413225 622.1724061851589 L 485.1680342789732 647.425 L 485.1680342789732 647.425 L 485.1680342789732 647.425 Z" stroke-opacity="1" stroke-linecap="round" stroke-linejoin="round" stroke-miterlimit="10" stroke-width="2" stroke-dasharray=""/><path fill="none" stroke="rgb(255,255,255)" paint-order="fill stroke markers" d=" M 523.8360685579485 625.1000000000001 L 549.0886623727894 650.352593814841 L 498.5834747431075 599.8474061851592 L 523.8360685579485 625.1000000000001 L 549.0886623727894 650.352593814841 L 498.5834747431075 599.8474061851591 L 523.8360685579485 625.1000000000001 L 523.8360685579485 625.1000000000001 L 523.8360685579485 625.1000000000001 Z" stroke-opacity="1" stroke-linecap="round" stroke-linejoin="round" stroke-miterlimit="10" stroke-width="2" stroke-dasharray=""/><path fill="none" stroke="rgb(255,255,255)" paint-order="fill stroke markers" d=" M 562.5041028369237 602.7750000000003 L 587.7566966517646 628.0275938148412 L 537.2515090220828 577.5224061851594 L 562.5041028369237 602.7750000000003 L 587.7566966517646 628.0275938148412 L 537.2515090220827 577.5224061851593 L 562.5041028369237 602.7750000000003 L 562.5041028369237 602.7750000000003 L 562.5041028369237 602.7750000000003 Z" stroke-opacity="1" stroke-linecap="round" stroke-linejoin="round" stroke-miterlimit="10" stroke-width="2" stroke-dasharray=""/><path fill="none" stroke="rgb(255,255,255)" paint-order="fill stroke markers" d=" M 601.172137115899 580.4500000000005 L 626.4247309307399 605.7025938148414 L 575.9195433010581 555.1974061851596 L 601.172137115899 580.4500000000005 L 626.4247309307399 605.7025938148414 L 575.919543301058 555.1974061851595 L 601.172137115899 580.4500000000005 L 601.172137115899 580.4500000000005 L 601.172137115899 580.4500000000005 Z" stroke-opacity="1" stroke-linecap="round" stroke-linejoin="round" stroke-miterlimit="10" stroke-width="2" stroke-dasharray=""/><path fill="none" stroke="rgb(255,255,255)" paint-order="fill stroke markers" d=" M 639.8401713948742 558.1250000000007 L 665.0927652097151 583.3775938148416 L 614.5875775800333 532.8724061851598 L 639.8401713948742 558.1250000000007 L 665.0927652097151 583.3775938148416 L 614.5875775800332 532.8724061851597 L 639.8401713948742 558.1250000000007 L 639.8401713948742 558.1250000000007 L 639.8401713948742 558.1250000000007 Z" stroke-opacity="1" stroke-linecap="round" stroke-linejoin="round" stroke-miterlimit="10" stroke-width="2" stroke-dasharray=""/><path fill="none" stroke="rgb(255,255,255)" paint-order="fill stroke markers" d=" M 639.8401713948745 513.4750000000007 L 665.0927652097154 538.7275938148416 L 614.5875775800336 488.22240618515974 L 639.8401713948745 513.4750000000007 L 665.0927652097154 538.7275938148416 L 614.5875775800334 488.22240618515974 L 639.8401713948745 513.4750000000007 L 639.8401713948745 513.4750000000007 L 639.8401713948745 513.4750000000007 Z" stroke-opacity="1" stroke-linecap="round" stroke-linejoin="round" stroke-miterlimit="10" stroke-width="2" stroke-dasharray=""/><path fill="none" stroke="rgb(255,255,255)" paint-order="fill stroke markers" d=" M 639.8401713948747 468.8250000000007 L 665.0927652097156 494.07759381484163 L 614.5875775800338 443.57240618515976 L 639.8401713948747 468.8250000000007 L 665.0927652097156 494.07759381484163 L 614.5875775800337 443.57240618515976 L 639.8401713948747 468.8250000000007 L 639.8401713948747 468.8250000000007 L 639.8401713948747 468.8250000000007 Z" stroke-opacity="1" stroke-linecap="round" stroke-linejoin="round" stroke-miterlimit="10" stroke-width="2" stroke-dasharray=""/><path fill="none" stroke="rgb(255,255,255)" paint-order="fill stroke markers" d=" M 639.8401713948749 424.17500000000075 L 665.0927652097158 449.42759381484166 L 614.587577580034 398.9224061851598 L 639.8401713948749 424.17500000000075 L 665.0927652097158 449.42759381484166 L 614.5875775800339 398.9224061851598 L 639.8401713948749 424.17500000000075 L 639.8401713948749 424.17500000000075 L 639.8401713948749 424.17500000000075 Z" stroke-opacity="1" stroke-linecap="round" stroke-linejoin="round" stroke-miterlimit="10" stroke-width="2" stroke-dasharray=""/><path fill="none" stroke="rgb(255,255,255)" paint-order="fill stroke markers" d=" M 639.8401713948751 379.5250000000008 L 665.092765209716 404.7775938148417 L 614.5875775800342 354.2724061851598 L 639.8401713948751 379.5250000000008 L 665.092765209716 404.7775938148417 L 614.5875775800341 354.2724061851598 L 639.8401713948751 379.5250000000008 L 639.8401713948751 379.5250000000008 L 639.8401713948751 379.5250000000008 Z" stroke-opacity="1" stroke-linecap="round" stroke-linejoin="round" stroke-miterlimit="10" stroke-width="2" stroke-dasharray=""/><path fill="none" stroke="rgb(255,255,255)" paint-order="fill stroke markers" d=" M 639.8401713948754 334.8750000000008 L 665.0927652097163 360.1275938148417 L 614.5875775800345 309.62240618515983 L 639.8401713948754 334.8750000000008 L 665.0927652097163 360.1275938148417 L 614.5875775800343 309.62240618515983 L 639.8401713948754 334.8750000000008 L 639.8401713948754 334.8750000000008 L 639.8401713948754 334.8750000000008 Z" stroke-opacity="1" stroke-linecap="round" stroke-linejoin="round" stroke-miterlimit="10" stroke-width="2" stroke-dasharray=""/><path fill="none" stroke="rgb(255,255,255)" paint-order="fill stroke markers" d=" M 639.8401713948756 290.2250000000008 L 665.0927652097165 315.4775938148417 L 614.5875775800347 264.97240618515985 L 639.8401713948756 290.2250000000008 L 665.0927652097165 315.4775938148417 L 614.5875775800346 264.97240618515985 L 639.8401713948756 290.2250000000008 L 639.8401713948756 290.2250000000008 L 639.8401713948756 290.2250000000008 Z" stroke-opacity="1" stroke-linecap="round" stroke-linejoin="round" stroke-miterlimit="10" stroke-width="2" stroke-dasharray=""/><path fill="none" stroke="rgb(255,255,255)" paint-order="fill stroke markers" d=" M 601.1721371159005 267.9000000000007 L 626.4247309307414 293.1525938148416 L 575.9195433010595 242.64740618515975 L 601.1721371159005 267.9000000000007 L 626.4247309307414 293.1525938148416 L 575.9195433010594 242.64740618515972 L 601.1721371159005 267.9000000000007 L 601.1721371159005 267.9000000000007 L 601.1721371159005 267.9000000000007 Z" stroke-opacity="1" stroke-linecap="round" stroke-linejoin="round" stroke-miterlimit="10" stroke-width="2" stroke-dasharray=""/><path fill="none" stroke="rgb(255,255,255)" paint-order="fill stroke markers" d=" M 562.5041028369253 245.5750000000006 L 587.7566966517662 270.8275938148415 L 537.2515090220844 220.32240618515965 L 562.5041028369253 245.5750000000006 L 587.7566966517662 270.8275938148415 L 537.2515090220843 220.32240618515962 L 562.5041028369253 245.57500000000059 L 562.5041028369253 245.5750000000006 L 562.5041028369253 245.5750000000006 Z" stroke-opacity="1" stroke-linecap="round" stroke-linejoin="round" stroke-miterlimit="10" stroke-width="2" stroke-dasharray=""/><path fill="none" stroke="rgb(255,255,255)" paint-order="fill stroke markers" d=" M 523.8360685579502 223.2500000000005 L 549.0886623727911 248.50259381484145 L 498.5834747431092 197.99740618515955 L 523.8360685579502 223.2500000000005 L 549.0886623727911 248.50259381484142 L 498.5834747431092 197.99740618515952 L 523.8360685579502 223.25000000000048 L 523.8360685579502 223.2500000000005 L 523.8360685579502 223.2500000000005 Z" stroke-opacity="1" stroke-linecap="round" stroke-linejoin="round" stroke-miterlimit="10" stroke-width="2" stroke-dasharray=""/><path fill="none" stroke="rgb(255,255,255)" paint-order="fill stroke markers" d=" M 485.16803427897503 200.9250000000004 L 510.42062809381594 226.17759381484134 L 459.91544046413406 175.67240618515945 L 485.16803427897503 200.9250000000004 L 510.42062809381594 226.17759381484132 L 459.91544046413406 175.67240618515942 L 485.16803427897503 200.92500000000038 L 485.16803427897503 200.9250000000004 L 485.16803427897503 200.9250000000004 Z" stroke-opacity="1" stroke-linecap="round" stroke-linejoin="round" stroke-miterlimit="10" stroke-width="2" stroke-dasharray=""/><path fill="none" stroke="rgb(255,255,255)" paint-order="fill stroke markers" d=" M 446.4999999999999 178.6000000000003 L 471.7525938148408 203.85259381484124 L 421.2474061851589 153.34740618515934 L 446.4999999999999 178.6000000000003 L 471.7525938148408 203.8525938148412 L 421.2474061851589 153.34740618515931 L 446.4999999999999 178.60000000000028 L 446.4999999999999 178.6000000000003 L 446.4999999999999 178.6000000000003 Z" stroke-opacity="1" stroke-linecap="round" stroke-linejoin="round" stroke-miterlimit="10" stroke-width="2" stroke-dasharray=""/><path fill="none" stroke="rgb(255,255,255)" paint-order="fill stroke markers" d=" M 407.83196572102463 200.92500000000015 L 433.08455953586554 226.1775938148411 L 382.57937190618367 175.67240618515922 L 407.83196572102463 200.92500000000015 L 433.08455953586554 226.17759381484106 L 382.57937190618367 175.67240618515916 L 407.83196572102463 200.92500000000013 L 407.83196572102463 200.92500000000015 L 407.83196572102463 200.92500000000015 Z" stroke-opacity="1" stroke-linecap="round" stroke-linejoin="round" stroke-miterlimit="10" stroke-width="2" stroke-dasharray=""/><path fill="none" stroke="rgb(255,255,255)" paint-order="fill stroke markers" d=" M 369.1639314420494 223.25 L 394.4165252568903 248.50259381484094 L 343.9113376272084 197.99740618515904 L 369.1639314420494 223.25 L 394.4165252568903 248.5025938148409 L 343.9113376272084 197.997406185159 L 369.1639314420494 223.24999999999997 L 369.1639314420494 223.25 L 369.1639314420494 223.25 Z" stroke-opacity="1" stroke-linecap="round" stroke-linejoin="round" stroke-miterlimit="10" stroke-width="2" stroke-dasharray=""/><path fill="none" stroke="rgb(255,255,255)" paint-order="fill stroke markers" d=" M 330.4958971630741 245.57499999999985 L 355.748490977915 270.8275938148408 L 305.24330334823316 220.3224061851589 L 330.4958971630741 245.57499999999985 L 355.748490977915 270.8275938148407 L 305.24330334823316 220.32240618515885 L 330.4958971630741 245.57499999999982 L 330.4958971630741 245.57499999999985 L 330.4958971630741 245.57499999999985 Z" stroke-opacity="1" stroke-linecap="round" stroke-linejoin="round" stroke-miterlimit="10" stroke-width="2" stroke-dasharray=""/><path fill="none" stroke="rgb(255,255,255)" paint-order="fill stroke markers" d=" M 291.82786288409886 267.8999999999997 L 317.08045669893977 293.1525938148406 L 266.5752690692579 242.64740618515873 L 291.82786288409886 267.8999999999997 L 317.08045669893977 293.1525938148406 L 266.5752690692579 242.6474061851587 L 291.82786288409886 267.8999999999997 L 291.82786288409886 267.8999999999997 L 291.82786288409886 267.8999999999997 Z" stroke-opacity="1" stroke-linecap="round" stroke-linejoin="round" stroke-miterlimit="10" stroke-width="2" stroke-dasharray=""/><path fill="none" stroke="rgb(255,255,255)" paint-order="fill stroke markers" d=" M 253.1598286051236 290.22499999999957 L 278.4124224199645 315.4775938148405 L 227.90723479028264 264.9724061851586 L 253.1598286051236 290.22499999999957 L 278.4124224199645 315.4775938148405 L 227.90723479028262 264.9724061851586 L 253.15982860512358 290.22499999999957 L 253.1598286051236 290.22499999999957 L 253.1598286051236 290.22499999999957 Z" stroke-opacity="1" stroke-linecap="round" stroke-linejoin="round" stroke-miterlimit="10" stroke-width="2" stroke-dasharray=""/><path fill="none" stroke="rgb(255,255,255)" paint-order="fill stroke markers" d=" M 214.49179432614835 312.54999999999944 L 239.7443881409893 337.80259381484035 L 189.2392005113074 287.2974061851585 L 214.49179432614835 312.54999999999944 L 239.74438814098926 337.80259381484035 L 189.23920051130736 287.2974061851585 L 214.49179432614832 312.54999999999944 L 214.49179432614835 312.54999999999944 L 214.49179432614835 312.54999999999944 Z" stroke-opacity="1" stroke-linecap="round" stroke-linejoin="round" stroke-miterlimit="10" stroke-width="2" stroke-dasharray=""/><path fill="none" stroke="rgb(255,255,255)" paint-order="fill stroke markers" d=" M 214.49179432614812 357.1999999999994 L 239.74438814098906 382.4525938148403 L 189.23920051130716 331.94740618515846 L 214.49179432614812 357.1999999999994 L 239.74438814098903 382.4525938148403 L 189.23920051130713 331.94740618515846 L 214.4917943261481 357.1999999999994 L 214.49179432614812 357.1999999999994 L 214.49179432614812 357.1999999999994 Z" stroke-opacity="1" stroke-linecap="round" stroke-linejoin="round" stroke-miterlimit="10" stroke-width="2" stroke-dasharray=""/><path fill="none" stroke="rgb(255,255,255)" paint-order="fill stroke markers" d=" M 214.4917943261479 401.8499999999994 L 239.74438814098883 427.1025938148403 L 189.23920051130693 376.59740618515843 L 214.4917943261479 401.8499999999994 L 239.7443881409888 427.1025938148403 L 189.2392005113069 376.59740618515843 L 214.49179432614787 401.8499999999994 L 214.4917943261479 401.8499999999994 L 214.4917943261479 401.8499999999994 Z" stroke-opacity="1" stroke-linecap="round" stroke-linejoin="round" stroke-miterlimit="10" stroke-width="2" stroke-dasharray=""/><path fill="none" stroke="rgb(255,255,255)" paint-order="fill stroke markers" d=" M 214.49179432614767 446.4999999999994 L 239.7443881409886 471.7525938148403 L 189.2392005113067 421.2474061851584 L 214.49179432614767 446.4999999999994 L 239.74438814098858 471.7525938148403 L 189.23920051130668 421.2474061851584 L 214.49179432614764 446.4999999999994 L 214.49179432614767 446.4999999999994 L 214.49179432614767 446.4999999999994 Z" stroke-opacity="1" stroke-linecap="round" stroke-linejoin="round" stroke-miterlimit="10" stroke-width="2" stroke-dasharray=""/><path fill="none" stroke="rgb(255,255,255)" paint-order="fill stroke markers" d=" M 214.49179432614744 491.14999999999935 L 239.74438814098838 516.4025938148403 L 189.23920051130648 465.8974061851584 L 214.49179432614744 491.14999999999935 L 239.74438814098835 516.4025938148402 L 189.23920051130645 465.8974061851584 L 214.4917943261474 491.14999999999935 L 214.49179432614744 491.14999999999935 L 214.49179432614744 491.14999999999935 Z" stroke-opacity="1" stroke-linecap="round" stroke-linejoin="round" stroke-miterlimit="10" stroke-width="2" stroke-dasharray=""/><path fill="none" stroke="rgb(255,255,255)" paint-order="fill stroke markers" d=" M 214.49179432614721 535.7999999999994 L 239.74438814098815 561.0525938148403 L 189.23920051130625 510.5474061851584 L 214.49179432614721 535.7999999999994 L 239.74438814098812 561.0525938148403 L 189.23920051130622 510.5474061851584 L 214.4917943261472 535.7999999999994 L 214.49179432614721 535.7999999999994 L 214.49179432614721 535.7999999999994 Z" stroke-opacity="1" stroke-linecap="round" stroke-linejoin="round" stroke-miterlimit="10" stroke-width="2" stroke-dasharray=""/><path fill="none" stroke="rgb(255,255,255)" paint-order="fill stroke markers" d=" M 214.491794326147 580.4499999999994 L 239.74438814098792 605.7025938148403 L 189.23920051130602 555.1974061851585 L 214.491794326147 580.4499999999994 L 239.7443881409879 605.7025938148403 L 189.239200511306 555.1974061851583 L 214.49179432614696 580.4499999999994 L 214.491794326147 580.4499999999994 L 214.491794326147 580.4499999999994 Z" stroke-opacity="1" stroke-linecap="round" stroke-linejoin="round" stroke-miterlimit="10" stroke-width="2" stroke-dasharray=""/><path fill="none" stroke="rgb(255,255,255)" paint-order="fill stroke markers" d=" M 253.15982860512204 602.7749999999996 L 278.412422419963 628.0275938148405 L 227.9072347902811 577.5224061851587 L 253.15982860512204 602.7749999999996 L 278.4124224199629 628.0275938148405 L 227.90723479028105 577.5224061851586 L 253.15982860512202 602.7749999999996 L 253.15982860512204 602.7749999999996 L 253.15982860512204 602.7749999999996 Z" stroke-opacity="1" stroke-linecap="round" stroke-linejoin="round" stroke-miterlimit="10" stroke-width="2" stroke-dasharray=""/><path fill="none" stroke="rgb(255,255,255)" paint-order="fill stroke markers" d=" M 291.8278628840971 625.0999999999999 L 317.080456698938 650.3525938148408 L 266.57526906925614 599.847406185159 L 291.8278628840971 625.0999999999999 L 317.080456698938 650.3525938148408 L 266.57526906925614 599.8474061851589 L 291.8278628840971 625.0999999999999 L 291.8278628840971 625.0999999999999 L 291.8278628840971 625.0999999999999 Z" stroke-opacity="1" stroke-linecap="round" stroke-linejoin="round" stroke-miterlimit="10" stroke-width="2" stroke-dasharray=""/><path fill="none" stroke="rgb(255,255,255)" paint-order="fill stroke markers" d=" M 330.49589716307213 647.4250000000002 L 355.74849097791304 672.6775938148411 L 305.24330334823117 622.1724061851593 L 330.49589716307213 647.4250000000002 L 355.74849097791304 672.6775938148411 L 305.24330334823117 622.1724061851592 L 330.49589716307213 647.4250000000002 L 330.49589716307213 647.4250000000002 L 330.49589716307213 647.4250000000002 Z" stroke-opacity="1" stroke-linecap="round" stroke-linejoin="round" stroke-miterlimit="10" stroke-width="2" stroke-dasharray=""/><path fill="none" stroke="rgb(255,255,255)" paint-order="fill stroke markers" d=" M 369.16393144204716 669.7500000000005 L 394.41652525688806 695.0025938148414 L 343.9113376272062 644.4974061851595 L 369.16393144204716 669.7500000000005 L 394.41652525688806 695.0025938148414 L 343.9113376272062 644.4974061851594 L 369.16393144204716 669.7500000000005 L 369.16393144204716 669.7500000000005 L 369.16393144204716 669.7500000000005 Z" stroke-opacity="1" stroke-linecap="round" stroke-linejoin="round" stroke-miterlimit="10" stroke-width="2" stroke-dasharray=""/><path fill="none" stroke="rgb(255,255,255)" paint-order="fill stroke markers" d=" M 407.8319657210222 692.0750000000007 L 433.0845595358631 717.3275938148416 L 382.5793719061812 666.8224061851598 L 407.8319657210222 692.0750000000007 L 433.0845595358631 717.3275938148416 L 382.5793719061812 666.8224061851597 L 407.8319657210222 692.0750000000007 L 407.8319657210222 692.0750000000007 L 407.8319657210222 692.0750000000007 Z" stroke-opacity="1" stroke-linecap="round" stroke-linejoin="round" stroke-miterlimit="10" stroke-width="2" stroke-dasharray=""/><path fill="none" stroke="rgb(255,255,255)" paint-order="fill stroke markers" d=" M 446.4999999999972 714.400000000001 L 471.7525938148381 739.6525938148419 L 421.24740618515625 689.1474061851601 L 446.4999999999972 714.400000000001 L 471.7525938148381 739.6525938148419 L 421.24740618515625 689.14740618516 L 446.4999999999972 714.400000000001 L 446.4999999999972 714.400000000001 L 446.4999999999972 714.400000000001 Z" stroke-opacity="1" stroke-linecap="round" stroke-linejoin="round" stroke-miterlimit="10" stroke-width="2" stroke-dasharray=""/><path fill="none" stroke="rgb(255,255,255)" paint-order="fill stroke markers" d=" M 485.1680342789726 692.0750000000013 L 510.4206280938135 717.3275938148422 L 459.9154404641316 666.8224061851604 L 485.1680342789726 692.0750000000013 L 510.4206280938135 717.3275938148422 L 459.9154404641316 666.8224061851603 L 485.1680342789726 692.0750000000013 L 485.1680342789726 692.0750000000013 L 485.1680342789726 692.0750000000013 Z" stroke-opacity="1" stroke-linecap="round" stroke-linejoin="round" stroke-miterlimit="10" stroke-width="2" stroke-dasharray=""/><path fill="none" stroke="rgb(255,255,255)" paint-order="fill stroke markers" d=" M 523.8360685579479 669.7500000000016 L 549.0886623727888 695.0025938148425 L 498.58347474310693 644.4974061851607 L 523.8360685579479 669.7500000000016 L 549.0886623727888 695.0025938148425 L 498.58347474310693 644.4974061851606 L 523.8360685579479 669.7500000000016 L 523.8360685579479 669.7500000000016 L 523.8360685579479 669.7500000000016 Z" stroke-opacity="1" stroke-linecap="round" stroke-linejoin="round" stroke-miterlimit="10" stroke-width="2" stroke-dasharray=""/><path fill="none" stroke="rgb(255,255,255)" paint-order="fill stroke markers" d=" M 562.5041028369233 647.4250000000019 L 587.7566966517642 672.6775938148428 L 537.2515090220824 622.172406185161 L 562.5041028369233 647.4250000000019 L 587.7566966517642 672.6775938148428 L 537.2515090220822 622.1724061851609 L 562.5041028369233 647.4250000000019 L 562.5041028369233 647.4250000000019 L 562.5041028369233 647.4250000000019 Z" stroke-opacity="1" stroke-linecap="round" stroke-linejoin="round" stroke-miterlimit="10" stroke-width="2" stroke-dasharray=""/><path fill="none" stroke="rgb(255,255,255)" paint-order="fill stroke markers" d=" M 601.1721371158986 625.1000000000022 L 626.4247309307395 650.3525938148431 L 575.9195433010577 599.8474061851613 L 601.1721371158986 625.1000000000022 L 626.4247309307395 650.3525938148431 L 575.9195433010576 599.8474061851612 L 601.1721371158986 625.1000000000022 L 601.1721371158986 625.1000000000022 L 601.1721371158986 625.1000000000022 Z" stroke-opacity="1" stroke-linecap="round" stroke-linejoin="round" stroke-miterlimit="10" stroke-width="2" stroke-dasharray=""/><path fill="none" stroke="rgb(255,255,255)" paint-order="fill stroke markers" d=" M 639.840171394874 602.7750000000025 L 665.0927652097149 628.0275938148434 L 614.5875775800331 577.5224061851616 L 639.840171394874 602.7750000000025 L 665.0927652097149 628.0275938148434 L 614.587577580033 577.5224061851615 L 639.840171394874 602.7750000000025 L 639.840171394874 602.7750000000025 L 639.840171394874 602.7750000000025 Z" stroke-opacity="1" stroke-linecap="round" stroke-linejoin="round" stroke-miterlimit="10" stroke-width="2" stroke-dasharray=""/><path fill="none" stroke="rgb(255,255,255)" paint-order="fill stroke markers" d=" M 678.5082056738494 580.4500000000028 L 703.7607994886903 605.7025938148437 L 653.2556118590085 555.1974061851619 L 678.5082056738494 580.4500000000028 L 703.7607994886903 605.7025938148437 L 653.2556118590084 555.1974061851618 L 678.5082056738494 580.4500000000028 L 678.5082056738494 580.4500000000028 L 678.5082056738494 580.4500000000028 Z" stroke-opacity="1" stroke-linecap="round" stroke-linejoin="round" stroke-miterlimit="10" stroke-width="2" stroke-dasharray=""/><path fill="none" stroke="rgb(255,255,255)" paint-order="fill stroke markers" d=" M 678.5082056738495 535.8000000000028 L 703.7607994886904 561.0525938148437 L 653.2556118590086 510.54740618516183 L 678.5082056738495 535.8000000000028 L 703.7607994886904 561.0525938148437 L 653.2556118590085 510.54740618516183 L 678.5082056738495 535.8000000000028 L 678.5082056738495 535.8000000000028 L 678.5082056738495 535.8000000000028 Z" stroke-opacity="1" stroke-linecap="round" stroke-linejoin="round" stroke-miterlimit="10" stroke-width="2" stroke-dasharray=""/><path fill="none" stroke="rgb(255,255,255)" paint-order="fill stroke markers" d=" M 678.5082056738496 491.1500000000028 L 703.7607994886905 516.4025938148437 L 653.2556118590087 465.89740618516186 L 678.5082056738496 491.1500000000028 L 703.7607994886905 516.4025938148437 L 653.2556118590086 465.89740618516186 L 678.5082056738496 491.1500000000028 L 678.5082056738496 491.1500000000028 L 678.5082056738496 491.1500000000028 Z" stroke-opacity="1" stroke-linecap="round" stroke-linejoin="round" stroke-miterlimit="10" stroke-width="2" stroke-dasharray=""/><path fill="none" stroke="rgb(255,255,255)" paint-order="fill stroke markers" d=" M 678.5082056738497 446.50000000000284 L 703.7607994886906 471.75259381484375 L 653.2556118590088 421.2474061851619 L 678.5082056738497 446.50000000000284 L 703.7607994886906 471.75259381484375 L 653.2556118590087 421.2474061851619 L 678.5082056738497 446.50000000000284 L 678.5082056738497 446.50000000000284 L 678.5082056738497 446.50000000000284 Z" stroke-opacity="1" stroke-linecap="round" stroke-linejoin="round" stroke-miterlimit="10" stroke-width="2" stroke-dasharray=""/><path fill="none" stroke="rgb(255,255,255)" paint-order="fill stroke markers" d=" M 678.5082056738498 401.85000000000286 L 703.7607994886907 427.1025938148438 L 653.2556118590089 376.5974061851619 L 678.5082056738498 401.85000000000286 L 703.7607994886907 427.1025938148438 L 653.2556118590088 376.5974061851619 L 678.5082056738498 401.85000000000286 L 678.5082056738498 401.85000000000286 L 678.5082056738498 401.85000000000286 Z" stroke-opacity="1" stroke-linecap="round" stroke-linejoin="round" stroke-miterlimit="10" stroke-width="2" stroke-dasharray=""/><path fill="none" stroke="rgb(255,255,255)" paint-order="fill stroke markers" d=" M 678.50820567385 357.2000000000029 L 703.7607994886909 382.4525938148438 L 653.255611859009 331.9474061851619 L 678.50820567385 357.2000000000029 L 703.7607994886909 382.4525938148438 L 653.2556118590089 331.9474061851619 L 678.50820567385 357.2000000000029 L 678.50820567385 357.2000000000029 L 678.50820567385 357.2000000000029 Z" stroke-opacity="1" stroke-linecap="round" stroke-linejoin="round" stroke-miterlimit="10" stroke-width="2" stroke-dasharray=""/><path fill="none" stroke="rgb(255,255,255)" paint-order="fill stroke markers" d=" M 678.5082056738501 312.5500000000029 L 703.760799488691 337.8025938148438 L 653.2556118590092 287.29740618516195 L 678.5082056738501 312.5500000000029 L 703.760799488691 337.8025938148438 L 653.255611859009 287.29740618516195 L 678.5082056738501 312.5500000000029 L 678.5082056738501 312.5500000000029 L 678.5082056738501 312.5500000000029 Z" stroke-opacity="1" stroke-linecap="round" stroke-linejoin="round" stroke-miterlimit="10" stroke-width="2" stroke-dasharray=""/><path fill="none" stroke="rgb(255,255,255)" paint-order="fill stroke markers" d=" M 678.5082056738502 267.90000000000293 L 703.7607994886911 293.15259381484384 L 653.2556118590093 242.64740618516197 L 678.5082056738502 267.90000000000293 L 703.7607994886911 293.15259381484384 L 653.2556118590092 242.64740618516194 L 678.5082056738502 267.90000000000293 L 678.5082056738502 267.90000000000293 L 678.5082056738502 267.90000000000293 Z" stroke-opacity="1" stroke-linecap="round" stroke-linejoin="round" stroke-miterlimit="10" stroke-width="2" stroke-dasharray=""/><path fill="none" stroke="rgb(255,255,255)" paint-order="fill stroke markers" d=" M 639.840171394875 245.57500000000283 L 665.0927652097159 270.82759381484374 L 614.5875775800341 220.32240618516187 L 639.840171394875 245.57500000000283 L 665.0927652097159 270.82759381484374 L 614.587577580034 220.32240618516184 L 639.840171394875 245.5750000000028 L 639.840171394875 245.57500000000283 L 639.840171394875 245.57500000000283 Z" stroke-opacity="1" stroke-linecap="round" stroke-linejoin="round" stroke-miterlimit="10" stroke-width="2" stroke-dasharray=""/><path fill="none" stroke="rgb(255,255,255)" paint-order="fill stroke markers" d=" M 601.1721371158999 223.25000000000273 L 626.4247309307408 248.50259381484366 L 575.919543301059 197.99740618516176 L 601.1721371158999 223.25000000000273 L 626.4247309307408 248.50259381484364 L 575.9195433010589 197.99740618516174 L 601.1721371158999 223.2500000000027 L 601.1721371158999 223.25000000000273 L 601.1721371158999 223.25000000000273 Z" stroke-opacity="1" stroke-linecap="round" stroke-linejoin="round" stroke-miterlimit="10" stroke-width="2" stroke-dasharray=""/><path fill="none" stroke="rgb(255,255,255)" paint-order="fill stroke markers" d=" M 562.5041028369247 200.92500000000263 L 587.7566966517657 226.17759381484356 L 537.2515090220838 175.67240618516166 L 562.5041028369247 200.92500000000263 L 587.7566966517657 226.17759381484353 L 537.2515090220837 175.67240618516163 L 562.5041028369247 200.9250000000026 L 562.5041028369247 200.92500000000263 L 562.5041028369247 200.92500000000263 Z" stroke-opacity="1" stroke-linecap="round" stroke-linejoin="round" stroke-miterlimit="10" stroke-width="2" stroke-dasharray=""/><path fill="none" stroke="rgb(255,255,255)" paint-order="fill stroke markers" d=" M 523.8360685579496 178.60000000000252 L 549.0886623727905 203.85259381484346 L 498.58347474310864 153.34740618516156 L 523.8360685579496 178.60000000000252 L 549.0886623727905 203.85259381484343 L 498.58347474310864 153.34740618516153 L 523.8360685579496 178.6000000000025 L 523.8360685579496 178.60000000000252 L 523.8360685579496 178.60000000000252 Z" stroke-opacity="1" stroke-linecap="round" stroke-linejoin="round" stroke-miterlimit="10" stroke-width="2" stroke-dasharray=""/><path fill="none" stroke="rgb(255,255,255)" paint-order="fill stroke markers" d=" M 485.16803427897446 156.27500000000242 L 510.42062809381537 181.52759381484336 L 459.9154404641335 131.02240618516146 L 485.16803427897446 156.27500000000242 L 510.42062809381537 181.52759381484333 L 459.9154404641335 131.02240618516143 L 485.16803427897446 156.2750000000024 L 485.16803427897446 156.27500000000242 L 485.16803427897446 156.27500000000242 Z" stroke-opacity="1" stroke-linecap="round" stroke-linejoin="round" stroke-miterlimit="10" stroke-width="2" stroke-dasharray=""/><path fill="none" stroke="rgb(255,255,255)" paint-order="fill stroke markers" d=" M 446.4999999999993 133.95000000000232 L 471.7525938148402 159.20259381484325 L 421.24740618515835 108.69740618516137 L 446.4999999999993 133.95000000000232 L 471.7525938148402 159.20259381484323 L 421.24740618515835 108.69740618516134 L 446.4999999999993 133.9500000000023 L 446.4999999999993 133.95000000000232 L 446.4999999999993 133.95000000000232 Z" stroke-opacity="1" stroke-linecap="round" stroke-linejoin="round" stroke-miterlimit="10" stroke-width="2" stroke-dasharray=""/><path fill="none" stroke="rgb(255,255,255)" paint-order="fill stroke markers" d=" M 407.83196572102406 156.27500000000217 L 433.08455953586497 181.5275938148431 L 382.5793719061831 131.02240618516123 L 407.83196572102406 156.27500000000217 L 433.08455953586497 181.52759381484307 L 382.5793719061831 131.02240618516117 L 407.83196572102406 156.27500000000214 L 407.83196572102406 156.27500000000217 L 407.83196572102406 156.27500000000217 Z" stroke-opacity="1" stroke-linecap="round" stroke-linejoin="round" stroke-miterlimit="10" stroke-width="2" stroke-dasharray=""/><path fill="none" stroke="rgb(255,255,255)" paint-order="fill stroke markers" d=" M 369.1639314420488 178.600000000002 L 394.4165252568897 203.85259381484295 L 343.91133762720784 153.34740618516105 L 369.1639314420488 178.600000000002 L 394.4165252568897 203.85259381484292 L 343.91133762720784 153.34740618516102 L 369.1639314420488 178.60000000000198 L 369.1639314420488 178.600000000002 L 369.1639314420488 178.600000000002 Z" stroke-opacity="1" stroke-linecap="round" stroke-linejoin="round" stroke-miterlimit="10" stroke-width="2" stroke-dasharray=""/><path fill="none" stroke="rgb(255,255,255)" paint-order="fill stroke markers" d=" M 330.49589716307355 200.92500000000186 L 355.74849097791446 226.1775938148428 L 305.2433033482326 175.67240618516092 L 330.49589716307355 200.92500000000186 L 355.74849097791446 226.17759381484277 L 305.2433033482326 175.67240618516087 L 330.49589716307355 200.92500000000183 L 330.49589716307355 200.92500000000186 L 330.49589716307355 200.92500000000186 Z" stroke-opacity="1" stroke-linecap="round" stroke-linejoin="round" stroke-miterlimit="10" stroke-width="2" stroke-dasharray=""/><path fill="none" stroke="rgb(255,255,255)" paint-order="fill stroke markers" d=" M 291.8278628840983 223.2500000000017 L 317.0804566989392 248.50259381484264 L 266.57526906925733 197.99740618516074 L 291.8278628840983 223.2500000000017 L 317.0804566989392 248.5025938148426 L 266.57526906925733 197.9974061851607 L 291.8278628840983 223.25000000000168 L 291.8278628840983 223.2500000000017 L 291.8278628840983 223.2500000000017 Z" stroke-opacity="1" stroke-linecap="round" stroke-linejoin="round" stroke-miterlimit="10" stroke-width="2" stroke-dasharray=""/><path fill="none" stroke="rgb(255,255,255)" paint-order="fill stroke markers" d=" M 253.15982860512304 245.57500000000155 L 278.41242241996395 270.8275938148425 L 227.90723479028208 220.32240618516062 L 253.15982860512304 245.57500000000155 L 278.41242241996395 270.82759381484243 L 227.90723479028205 220.32240618516056 L 253.159828605123 245.57500000000152 L 253.15982860512304 245.57500000000155 L 253.15982860512304 245.57500000000155 Z" stroke-opacity="1" stroke-linecap="round" stroke-linejoin="round" stroke-miterlimit="10" stroke-width="2" stroke-dasharray=""/><path fill="none" stroke="rgb(255,255,255)" paint-order="fill stroke markers" d=" M 214.49179432614778 267.9000000000014 L 239.74438814098872 293.1525938148423 L 189.23920051130682 242.64740618516043 L 214.49179432614778 267.9000000000014 L 239.7443881409887 293.1525938148423 L 189.2392005113068 242.6474061851604 L 214.49179432614775 267.9000000000014 L 214.49179432614778 267.9000000000014 L 214.49179432614778 267.9000000000014 Z" stroke-opacity="1" stroke-linecap="round" stroke-linejoin="round" stroke-miterlimit="10" stroke-width="2" stroke-dasharray=""/></g></svg>