<svg version="1.1" xmlns="http://www.w3.org/2000/svg" xmlns:xlink="http://www.w3.org/1999/xlink" width="893" height="893" viewBox="0 0 893 893"><defs/><g><rect fill="rgb(20,20,20)" stroke="none" x="0" y="0" width="893" height="893" transform="matrix(1 0 0 1 0 0)" fill-opacity="1"/><path fill="none" stroke="rgb(255,255,255)" paint-order="fill stroke markers" d=" M 446.5 446.5 L 455.33840783519435 455.33840783519435 L 437.66159216480565 437.66159216480565 L 446.5 446.5 L 455.3384078351943 455.3384078351943 L 437.66159216480565 437.66159216480565 L 446.5 446.5 L 446.5 446.5 L 446.5 446.5 Z" stroke-opacity="1" stroke-linecap="round" stroke-linejoin="round" stroke-miterlimit="10" stroke-width="2" stroke-dasharray=""/><path fill="none" stroke="rgb(255,255,255)" paint-order="fill stroke markers" d=" M 446.5 401.85 L 455.33840783519435 410.68840783519437 L 437.66159216480565 393.0115921648057 L 446.5 401.85 L 455.3384078351943 410.6884078351943 L 437.66159216480565 393.0115921648057 L 446.5 401.85 L 446.5 401.85 L 446.5 401.85 Z" stroke-opacity="1" stroke-linecap="round" stroke-linejoin="round" stroke-miterlimit="10" stroke-width="2" stroke-dasharray=""/><path fill="none" stroke="rgb(255,255,255)" paint-order="fill stroke markers" d=" M 407.8319657210248 424.175 L 416.67037355621915 433.01340783519436 L 398.99355788583046 415.33659216480567 L 407.8319657210248 424.175 L 416.67037355621915 433.01340783519436 L 398.99355788583046 415.33659216480567 L 407.8319657210248 424.175 L 407.8319657210248 424.175 L 407.8319657210248 424.175 Z" stroke-opacity="1" stroke-linecap="round" stroke-linejoin="round" stroke-miterlimit="10" stroke-width="2" stroke-dasharray=""/><path fill="none" stroke="rgb(255,255,255)" paint-order="fill stroke markers" d=" M 407.8319657210248 468.825 L 416.67037355621915 477.66340783519433 L 398.99355788583046 459.98659216480564 L 407.8319657210248 468.825 L 416.67037355621915 477.66340783519433 L 398.99355788583046 459.98659216480564 L 407.8319657210248 468.825 L 407.8319657210248 468.825 L 407.8319657210248 468.825 Z" stroke-opacity="1" stroke-linecap="round" stroke-linejoin="round" stroke-miterlimit="10" stroke-width="2" stroke-dasharray=""/><path fill="none" stroke="rgb(255,255,255)" paint-order="fill stroke markers" d=" M 446.5 491.15000000000003 L 455.33840783519435 499.9884078351944 L 437.66159216480565 482.3115921648057 L 446.5 491.15000000000003 L 455.3384078351943 499.9884078351944 L 437.66159216480565 482.3115921648057 L 446.5 491.15000000000003 L 446.5 491.15000000000003 L 446.5 491.15000000000003 Z" stroke-opacity="1" stroke-linecap="round" stroke-linejoin="round" stroke-miterlimit="10" stroke-width="2" stroke-dasharray=""/><path fill="none" stroke="rgb(255,255,255)" paint-order="fill stroke markers" d=" M 485.1680342789752 468.82500000000005 L 494.00644211416954 477.6634078351944 L 476.32962644378085 459.9865921648057 L 485.1680342789752 468.82500000000005 L 494.00644211416954 477.66340783519433 L 476.32962644378085 459.9865921648057 L 485.1680342789752 468.82500000000005 L 485.1680342789752 468.82500000000005 L 485.1680342789752 468.82500000000005 Z" stroke-opacity="1" stroke-linecap="round" stroke-linejoin="round" stroke-miterlimit="10" stroke-width="2" stroke-dasharray=""/><path fill="none" stroke="rgb(255,255,255)" paint-order="fill stroke markers" d=" M 485.1680342789752 424.17500000000007 L 494.00644211416954 433.0134078351944 L 476.32962644378085 415.3365921648057 L 485.1680342789752 424.17500000000007 L 494.00644211416954 433.01340783519436 L 476.32962644378085 415.3365921648057 L 485.1680342789752 424.17500000000007 L 485.1680342789752 424.17500000000007 L 485.1680342789752 424.17500000000007 Z" stroke-opacity="1" stroke-linecap="round" stroke-linejoin="round" stroke-miterlimit="10" stroke-width="2" stroke-dasharray=""/><path fill="none" stroke="rgb(255,255,255)" paint-order="fill stroke markers" d=" M 485.1680342789752 379.5250000000001 L 494.00644211416954 388.36340783519444 L 476.32962644378085 370.68659216480575 L 485.1680342789752 379.5250000000001 L 494.00644211416954 388.3634078351944 L 476.32962644378085 370.68659216480575 L 485.1680342789752 379.5250000000001 L 485.1680342789752 379.5250000000001 L 485.1680342789752 379.5250000000001 Z" stroke-opacity="1" stroke-linecap="round" stroke-linejoin="round" stroke-miterlimit="10" stroke-width="2" stroke-dasharray=""/><path fill="none" stroke="rgb(255,255,255)" paint-order="fill stroke markers" d=" M 446.5 357.20000000000005 L 455.33840783519435 366.0384078351944 L 437.66159216480565 348.3615921648057 L 446.5 357.20000000000005 L 455.3384078351943 366.03840783519433 L 437.66159216480565 348.3615921648057 L 446.5 357.20000000000005 L 446.5 357.20000000000005 L 446.5 357.20000000000005 Z" stroke-opacity="1" stroke-linecap="round" stroke-linejoin="round" stroke-miterlimit="10" stroke-width="2" stroke-dasharray=""/><path fill="none" stroke="rgb(255,255,255)" paint-order="fill stroke markers" d=" M 407.8319657210248 379.52500000000003 L 416.67037355621915 388.3634078351944 L 398.99355788583046 370.6865921648057 L 407.8319657210248 379.52500000000003 L 416.67037355621915 388.3634078351944 L 398.99355788583046 370.6865921648057 L 407.8319657210248 379.52500000000003 L 407.8319657210248 379.52500000000003 L 407.8319657210248 379.52500000000003 Z" stroke-opacity="1" stroke-linecap="round" stroke-linejoin="round" stroke-miterlimit="10" stroke-width="2" stroke-dasharray=""/><path fill="none" stroke="rgb(255,255,255)" paint-order="fill stroke markers" d=" M 369.1639314420496 401.85 L 378.00233927724395 410.68840783519437 L 360.32552360685526 393.0115921648057 L 369.1639314420496 401.85 L 378.0023392772439 410.6884078351943 L 360.32552360685526 393.0115921648057 L 369.1639314420496 401.85 L 369.1639314420496 401.85 L 369.1639314420496 401.85 Z" stroke-opacity="1" stroke-linecap="round" stroke-linejoin="round" stroke-miterlimit="10" stroke-width="2" stroke-dasharray=""/><path fill="none" stroke="rgb(255,255,255)" paint-order="fill stroke markers" d=" M 369.1639314420496 446.5 L 378.00233927724395 455.33840783519435 L 360.32552360685526 437.66159216480565 L 369.1639314420496 446.5 L 378.0023392772439 455.3384078351943 L 360.32552360685526 437.66159216480565 L 369.1639314420496 446.5 L 369.1639314420496 446.5 L 369.1639314420496 446.5 Z" stroke-opacity="1" stroke-linecap="round" stroke-linejoin="round" stroke-miterlimit="10" stroke-width="2" stroke-dasharray=""/><path fill="none" stroke="rgb(255,255,255)" paint-order="fill stroke markers" d=" M 369.1639314420496 491.15 L 378.00233927724395 499.9884078351943 L 360.32552360685526 482.31159216480563 L 369.1639314420496 491.15 L 378.0023392772439 499.98840783519427 L 360.32552360685526 482.31159216480563 L 369.1639314420496 491.15 L 369.1639314420496 491.15 L 369.1639314420496 491.15 Z" stroke-opacity="1" stroke-linecap="round" stroke-linejoin="round" stroke-miterlimit="10" stroke-width="2" stroke-dasharray=""/><path fill="none" stroke="rgb(255,255,255)" paint-order="fill stroke markers" d=" M 407.83196572102474 513.475 L 416.6703735562191 522.3134078351943 L 398.9935578858304 504.6365921648057 L 407.83196572102474 513.475 L 416.67037355621903 522.3134078351943 L 398.9935578858304 504.6365921648057 L 407.83196572102474 513.475 L 407.83196572102474 513.475 L 407.83196572102474 513.475 Z" stroke-opacity="1" stroke-linecap="round" stroke-linejoin="round" stroke-miterlimit="10" stroke-width="2" stroke-dasharray=""/><path fill="none" stroke="rgb(255,255,255)" paint-order="fill stroke markers" d=" M 446.4999999999999 535.8000000000001 L 455.33840783519423 544.6384078351944 L 437.66159216480554 526.9615921648058 L 446.4999999999999 535.8000000000001 L 455.3384078351942 544.6384078351944 L 437.66159216480554 526.9615921648058 L 446.4999999999999 535.8000000000001 L 446.4999999999999 535.8000000000001 L 446.4999999999999 535.8000000000001 Z" stroke-opacity="1" stroke-linecap="round" stroke-linejoin="round" stroke-miterlimit="10" stroke-width="2" stroke-dasharray=""/><path fill="none" stroke="rgb(255,255,255)" paint-order="fill stroke markers" d=" M 485.1680342789751 513.4750000000001 L 494.00644211416943 522.3134078351944 L 476.32962644378074 504.6365921648058 L 485.1680342789751 513.4750000000001 L 494.00644211416943 522.3134078351944 L 476.32962644378074 504.6365921648058 L 485.1680342789751 513.4750000000001 L 485.1680342789751 513.4750000000001 L 485.1680342789751 513.4750000000001 Z" stroke-opacity="1" stroke-linecap="round" stroke-linejoin="round" stroke-miterlimit="10" stroke-width="2" stroke-dasharray=""/><path fill="none" stroke="rgb(255,255,255)" paint-order="fill stroke markers" d=" M 523.8360685579503 491.1500000000002 L 532.6744763931446 499.98840783519455 L 514.997660722756 482.31159216480586 L 523.8360685579503 491.1500000000002 L 532.6744763931446 499.9884078351945 L 514.997660722756 482.31159216480586 L 523.8360685579503 491.1500000000002 L 523.8360685579503 491.1500000000002 L 523.8360685579503 491.1500000000002 Z" stroke-opacity="1" stroke-linecap="round" stroke-linejoin="round" stroke-miterlimit="10" stroke-width="2" stroke-dasharray=""/><path fill="none" stroke="rgb(255,255,255)" paint-order="fill stroke markers" d=" M 523.8360685579503 446.5000000000002 L 532.6744763931446 455.3384078351946 L 514.997660722756 437.6615921648059 L 523.8360685579503 446.5000000000002 L 532.6744763931446 455.3384078351945 L 514.997660722756 437.6615921648059 L 523.8360685579503 446.5000000000002 L 523.8360685579503 446.5000000000002 L 523.8360685579503 446.5000000000002 Z" stroke-opacity="1" stroke-linecap="round" stroke-linejoin="round" stroke-miterlimit="10" stroke-width="2" stroke-dasharray=""/><path fill="none" stroke="rgb(255,255,255)" paint-order="fill stroke markers" d=" M 523.8360685579503 401.85000000000025 L 532.6744763931446 410.6884078351946 L 514.997660722756 393.0115921648059 L 523.8360685579503 401.85000000000025 L 532.6744763931446 410.68840783519454 L 514.997660722756 393.0115921648059 L 523.8360685579503 401.85000000000025 L 523.8360685579503 401.85000000000025 L 523.8360685579503 401.85000000000025 Z" stroke-opacity="1" stroke-linecap="round" stroke-linejoin="round" stroke-miterlimit="10" stroke-width="2" stroke-dasharray=""/><path fill="none" stroke="rgb(255,255,255)" paint-order="fill stroke markers" d=" M 523.8360685579503 357.2000000000003 L 532.6744763931446 366.0384078351946 L 514.997660722756 348.3615921648059 L 523.8360685579503 357.2000000000003 L 532.6744763931446 366.03840783519456 L 514.997660722756 348.3615921648059 L 523.8360685579503 357.2000000000003 L 523.8360685579503 357.2000000000003 L 523.8360685579503 357.2000000000003 Z" stroke-opacity="1" stroke-linecap="round" stroke-linejoin="round" stroke-miterlimit="10" stroke-width="2" stroke-dasharray=""/><path fill="none" stroke="rgb(255,255,255)" paint-order="fill stroke markers" d=" M 485.16803427897514 334.8750000000002 L 494.0064421141695 343.7134078351946 L 476.3296264437808 326.0365921648059 L 485.16803427897514 334.8750000000002 L 494.00644211416943 343.7134078351945 L 476.3296264437808 326.0365921648059 L 485.16803427897514 334.8750000000002 L 485.16803427897514 334.8750000000002 L 485.16803427897514 334.8750000000002 Z" stroke-opacity="1" stroke-linecap="round" stroke-linejoin="round" stroke-miterlimit="10" stroke-width="2" stroke-dasharray=""/><path fill="none" stroke="rgb(255,255,255)" paint-order="fill stroke markers" d=" M 446.5 312.5500000000002 L 455.33840783519435 321.3884078351945 L 437.66159216480565 303.71159216480584 L 446.5 312.5500000000002 L 455.3384078351943 321.38840783519447 L 437.66159216480565 303.71159216480584 L 446.5 312.5500000000002 L 446.5 312.5500000000002 L 446.5 312.5500000000002 Z" stroke-opacity="1" stroke-linecap="round" stroke-linejoin="round" stroke-miterlimit="10" stroke-width="2" stroke-dasharray=""/><path fill="none" stroke="rgb(255,255,255)" paint-order="fill stroke markers" d=" M 407.8319657210248 334.8750000000001 L 416.67037355621915 343.71340783519446 L 398.99355788583046 326.03659216480577 L 407.8319657210248 334.8750000000001 L 416.67037355621915 343.7134078351944 L 398.99355788583046 326.03659216480577 L 407.8319657210248 334.8750000000001 L 407.8319657210248 334.8750000000001 L 407.8319657210248 334.8750000000001 Z" stroke-opacity="1" stroke-linecap="round" stroke-linejoin="round" stroke-miterlimit="10" stroke-width="2" stroke-dasharray=""/><path fill="none" stroke="rgb(255,255,255)" paint-order="fill stroke markers" d=" M 369.1639314420496 357.20000000000005 L 378.00233927724395 366.0384078351944 L 360.32552360685526 348.3615921648057 L 369.1639314420496 357.20000000000005 L 378.0023392772439 366.03840783519433 L 360.32552360685526 348.3615921648057 L 369.1639314420496 357.20000000000005 L 369.1639314420496 357.20000000000005 L 369.1639314420496 357.20000000000005 Z" stroke-opacity="1" stroke-linecap="round" stroke-linejoin="round" stroke-miterlimit="10" stroke-width="2" stroke-dasharray=""/><path fill="none" stroke="rgb(255,255,255)" paint-order="fill stroke markers" d=" M 330.4958971630744 379.525 L 339.33430499826875 388.3634078351943 L 321.65748932788006 370.68659216480563 L 330.4958971630744 379.525 L 339.33430499826875 388.36340783519427 L 321.65748932788006 370.68659216480563 L 330.4958971630744 379.525 L 330.4958971630744 379.525 L 330.4958971630744 379.525 Z" stroke-opacity="1" stroke-linecap="round" stroke-linejoin="round" stroke-miterlimit="10" stroke-width="2" stroke-dasharray=""/><path fill="none" stroke="rgb(255,255,255)" paint-order="fill stroke markers" d=" M 330.4958971630743 424.17499999999995 L 339.33430499826864 433.0134078351943 L 321.65748932787994 415.3365921648056 L 330.4958971630743 424.17499999999995 L 339.33430499826864 433.01340783519424 L 321.65748932787994 415.3365921648056 L 330.4958971630743 424.17499999999995 L 330.4958971630743 424.17499999999995 L 330.4958971630743 424.17499999999995 Z" stroke-opacity="1" stroke-linecap="round" stroke-linejoin="round" stroke-miterlimit="10" stroke-width="2" stroke-dasharray=""/><path fill="none" stroke="rgb(255,255,255)" paint-order="fill stroke markers" d=" M 330.4958971630742 468.82499999999993 L 339.3343049982685 477.6634078351943 L 321.65748932787983 459.9865921648056 L 330.4958971630742 468.82499999999993 L 339.3343049982685 477.6634078351942 L 321.65748932787983 459.9865921648056 L 330.4958971630742 468.82499999999993 L 330.4958971630742 468.82499999999993 L 330.4958971630742 468.82499999999993 Z" stroke-opacity="1" stroke-linecap="round" stroke-linejoin="round" stroke-miterlimit="10" stroke-width="2" stroke-dasharray=""/><path fill="none" stroke="rgb(255,255,255)" paint-order="fill stroke markers" d=" M 330.49589716307406 513.4749999999999 L 339.3343049982684 522.3134078351942 L 321.6574893278797 504.63659216480556 L 330.49589716307406 513.4749999999999 L 339.3343049982684 522.3134078351942 L 321.6574893278797 504.63659216480556 L 330.49589716307406 513.4749999999999 L 330.49589716307406 513.4749999999999 L 330.49589716307406 513.4749999999999 Z" stroke-opacity="1" stroke-linecap="round" stroke-linejoin="round" stroke-miterlimit="10" stroke-width="2" stroke-dasharray=""/><path fill="none" stroke="rgb(255,255,255)" paint-order="fill stroke markers" d=" M 369.1639314420492 535.8 L 378.00233927724355 544.6384078351942 L 360.32552360685486 526.9615921648057 L 369.1639314420492 535.8 L 378.00233927724355 544.6384078351942 L 360.32552360685486 526.9615921648057 L 369.1639314420492 535.8 L 369.1639314420492 535.8 L 369.1639314420492 535.8 Z" stroke-opacity="1" stroke-linecap="round" stroke-linejoin="round" stroke-miterlimit="10" stroke-width="2" stroke-dasharray=""/><path fill="none" stroke="rgb(255,255,255)" paint-order="fill stroke markers" d=" M 407.83196572102435 558.125 L 416.6703735562187 566.9634078351943 L 398.99355788583 549.2865921648057 L 407.83196572102435 558.125 L 416.6703735562187 566.9634078351943 L 398.99355788583 549.2865921648057 L 407.83196572102435 558.125 L 407.83196572102435 558.125 L 407.83196572102435 558.125 Z" stroke-opacity="1" stroke-linecap="round" stroke-linejoin="round" stroke-miterlimit="10" stroke-width="2" stroke-dasharray=""/><path fill="none" stroke="rgb(255,255,255)" paint-order="fill stroke markers" d=" M 446.4999999999995 580.45 L 455.33840783519383 589.2884078351943 L 437.66159216480514 571.6115921648058 L 446.4999999999995 580.45 L 455.33840783519383 589.2884078351943 L 437.66159216480514 571.6115921648058 L 446.4999999999995 580.45 L 446.4999999999995 580.45 L 446.4999999999995 580.45 Z" stroke-opacity="1" stroke-linecap="round" stroke-linejoin="round" stroke-miterlimit="10" stroke-width="2" stroke-dasharray=""/><path fill="none" stroke="rgb(255,255,255)" paint-order="fill stroke markers" d=" M 485.16803427897474 558.1250000000001 L 494.0064421141691 566.9634078351944 L 476.3296264437804 549.2865921648058 L 485.16803427897474 558.1250000000001 L 494.0064421141691 566.9634078351944 L 476.3296264437804 549.2865921648058 L 485.16803427897474 558.1250000000001 L 485.16803427897474 558.1250000000001 L 485.16803427897474 558.1250000000001 Z" stroke-opacity="1" stroke-linecap="round" stroke-linejoin="round" stroke-miterlimit="10" stroke-width="2" stroke-dasharray=""/><path fill="none" stroke="rgb(255,255,255)" paint-order="fill stroke markers" d=" M 523.83606855795 535.8000000000002 L 532.6744763931442 544.6384078351945 L 514.9976607227557 526.9615921648059 L 523.83606855795 535.8000000000002 L 532.6744763931442 544.6384078351945 L 514.9976607227557 526.9615921648059 L 523.83606855795 535.8000000000002 L 523.83606855795 535.8000000000002 L 523.83606855795 535.8000000000002 Z" stroke-opacity="1" stroke-linecap="round" stroke-linejoin="round" stroke-miterlimit="10" stroke-width="2" stroke-dasharray=""/><path fill="none" stroke="rgb(255,255,255)" paint-order="fill stroke markers" d=" M 562.5041028369252 513.4750000000003 L 571.3425106721195 522.3134078351945 L 553.6656950017309 504.6365921648059 L 562.5041028369252 513.4750000000003 L 571.3425106721195 522.3134078351945 L 553.6656950017309 504.6365921648059 L 562.5041028369252 513.4750000000003 L 562.5041028369252 513.4750000000003 L 562.5041028369252 513.4750000000003 Z" stroke-opacity="1" stroke-linecap="round" stroke-linejoin="round" stroke-miterlimit="10" stroke-width="2" stroke-dasharray=""/><path fill="none" stroke="rgb(255,255,255)" paint-order="fill stroke markers" d=" M 562.5041028369252 468.8250000000003 L 571.3425106721195 477.6634078351946 L 553.6656950017309 459.9865921648059 L 562.5041028369252 468.8250000000003 L 571.3425106721195 477.66340783519456 L 553.6656950017309 459.9865921648059 L 562.5041028369252 468.8250000000003 L 562.5041028369252 468.8250000000003 L 562.5041028369252 468.8250000000003 Z" stroke-opacity="1" stroke-linecap="round" stroke-linejoin="round" stroke-miterlimit="10" stroke-width="2" stroke-dasharray=""/><path fill="none" stroke="rgb(255,255,255)" paint-order="fill stroke markers" d=" M 562.5041028369252 424.1750000000003 L 571.3425106721195 433.01340783519464 L 553.6656950017309 415.33659216480595 L 562.5041028369252 424.1750000000003 L 571.3425106721195 433.0134078351946 L 553.6656950017309 415.33659216480595 L 562.5041028369252 424.1750000000003 L 562.5041028369252 424.1750000000003 L 562.5041028369252 424.1750000000003 Z" stroke-opacity="1" stroke-linecap="round" stroke-linejoin="round" stroke-miterlimit="10" stroke-width="2" stroke-dasharray=""/><path fill="none" stroke="rgb(255,255,255)" paint-order="fill stroke markers" d=" M 562.5041028369252 379.5250000000003 L 571.3425106721195 388.36340783519466 L 553.6656950017309 370.686592164806 L 562.5041028369252 379.5250000000003 L 571.3425106721195 388.3634078351946 L 553.6656950017309 370.686592164806 L 562.5041028369252 379.5250000000003 L 562.5041028369252 379.5250000000003 L 562.5041028369252 379.5250000000003 Z" stroke-opacity="1" stroke-linecap="round" stroke-linejoin="round" stroke-miterlimit="10" stroke-width="2" stroke-dasharray=""/><path fill="none" stroke="rgb(255,255,255)" paint-order="fill stroke markers" d=" M 562.5041028369252 334.87500000000034 L 571.3425106721195 343.7134078351947 L 553.6656950017309 326.036592164806 L 562.5041028369252 334.87500000000034 L 571.3425106721195 343.71340783519463 L 553.6656950017309 326.036592164806 L 562.5041028369252 334.87500000000034 L 562.5041028369252 334.87500000000034 L 562.5041028369252 334.87500000000034 Z" stroke-opacity="1" stroke-linecap="round" stroke-linejoin="round" stroke-miterlimit="10" stroke-width="2" stroke-dasharray=""/><path fill="none" stroke="rgb(255,255,255)" paint-order="fill stroke markers" d=" M 523.8360685579501 312.5500000000003 L 532.6744763931443 321.38840783519464 L 514.9976607227558 303.71159216480595 L 523.8360685579501 312.5500000000003 L 532.6744763931443 321.3884078351946 L 514.9976607227558 303.71159216480595 L 523.8360685579501 312.5500000000003 L 523.8360685579501 312.5500000000003 L 523.8360685579501 312.5500000000003 Z" stroke-opacity="1" stroke-linecap="round" stroke-linejoin="round" stroke-miterlimit="10" stroke-width="2" stroke-dasharray=""/><path fill="none" stroke="rgb(255,255,255)" paint-order="fill stroke markers" d=" M 485.1680342789749 290.22500000000025 L 494.00644211416926 299.0634078351946 L 476.32962644378057 281.3865921648059 L 485.1680342789749 290.22500000000025 L 494.0064421141692 299.06340783519454 L 476.32962644378057 281.3865921648059 L 485.1680342789749 290.22500000000025 L 485.1680342789749 290.22500000000025 L 485.1680342789749 290.22500000000025 Z" stroke-opacity="1" stroke-linecap="round" stroke-linejoin="round" stroke-miterlimit="10" stroke-width="2" stroke-dasharray=""/><path fill="none" stroke="rgb(255,255,255)" paint-order="fill stroke markers" d=" M 446.4999999999998 267.9000000000002 L 455.3384078351941 276.73840783519455 L 437.6615921648054 259.06159216480586 L 446.4999999999998 267.9000000000002 L 455.33840783519406 276.7384078351945 L 437.6615921648054 259.06159216480586 L 446.4999999999998 267.9000000000002 L 446.4999999999998 267.9000000000002 L 446.4999999999998 267.9000000000002 Z" stroke-opacity="1" stroke-linecap="round" stroke-linejoin="round" stroke-miterlimit="10" stroke-width="2" stroke-dasharray=""/><path fill="none" stroke="rgb(255,255,255)" paint-order="fill stroke markers" d=" M 407.8319657210245 290.2250000000001 L 416.67037355621886 299.0634078351944 L 398.99355788583017 281.38659216480573 L 407.8319657210245 290.2250000000001 L 416.6703735562188 299.0634078351944 L 398.99355788583017 281.38659216480573 L 407.8319657210245 290.2250000000001 L 407.8319657210245 290.2250000000001 L 407.8319657210245 290.2250000000001 Z" stroke-opacity="1" stroke-linecap="round" stroke-linejoin="round" stroke-miterlimit="10" stroke-width="2" stroke-dasharray=""/><path fill="none" stroke="rgb(255,255,255)" paint-order="fill stroke markers" d=" M 369.16393144204926 312.54999999999995 L 378.0023392772436 321.3884078351943 L 360.3255236068549 303.7115921648056 L 369.16393144204926 312.54999999999995 L 378.00233927724355 321.38840783519424 L 360.3255236068549 303.7115921648056 L 369.16393144204926 312.54999999999995 L 369.16393144204926 312.54999999999995 L 369.16393144204926 312.54999999999995 Z" stroke-opacity="1" stroke-linecap="round" stroke-linejoin="round" stroke-miterlimit="10" stroke-width="2" stroke-dasharray=""/><path fill="none" stroke="rgb(255,255,255)" paint-order="fill stroke markers" d=" M 330.495897163074 334.87499999999983 L 339.33430499826835 343.7134078351942 L 321.65748932787966 326.0365921648055 L 330.495897163074 334.87499999999983 L 339.3343049982683 343.7134078351942 L 321.65748932787966 326.0365921648055 L 330.495897163074 334.87499999999983 L 330.495897163074 334.87499999999983 L 330.495897163074 334.87499999999983 Z" stroke-opacity="1" stroke-linecap="round" stroke-linejoin="round" stroke-miterlimit="10" stroke-width="2" stroke-dasharray=""/><path fill="none" stroke="rgb(255,255,255)" paint-order="fill stroke markers" d=" M 291.82786288409875 357.1999999999997 L 300.6662707192931 366.03840783519405 L 282.9894550489044 348.36159216480536 L 291.82786288409875 357.1999999999997 L 300.66627071929304 366.038407835194 L 282.9894550489044 348.36159216480536 L 291.82786288409875 357.1999999999997 L 291.82786288409875 357.1999999999997 L 291.82786288409875 357.1999999999997 Z" stroke-opacity="1" stroke-linecap="round" stroke-linejoin="round" stroke-miterlimit="10" stroke-width="2" stroke-dasharray=""/><path fill="none" stroke="rgb(255,255,255)" paint-order="fill stroke markers" d=" M 291.8278628840987 401.8499999999997 L 300.66627071929304 410.688407835194 L 282.98945504890435 393.01159216480534 L 291.8278628840987 401.8499999999997 L 300.66627071929304 410.68840783519397 L 282.98945504890435 393.01159216480534 L 291.8278628840987 401.8499999999997 L 291.8278628840987 401.8499999999997 L 291.8278628840987 401.8499999999997 Z" stroke-opacity="1" stroke-linecap="round" stroke-linejoin="round" stroke-miterlimit="10" stroke-width="2" stroke-dasharray=""/><path fill="none" stroke="rgb(255,255,255)" paint-order="fill stroke markers" d=" M 291.82786288409864 446.49999999999966 L 300.666270719293 455.338407835194 L 282.9894550489043 437.6615921648053 L 291.82786288409864 446.49999999999966 L 300.6662707192929 455.33840783519395 L 282.9894550489043 437.6615921648053 L 291.82786288409864 446.49999999999966 L 291.82786288409864 446.49999999999966 L 291.82786288409864 446.49999999999966 Z" stroke-opacity="1" stroke-linecap="round" stroke-linejoin="round" stroke-miterlimit="10" stroke-width="2" stroke-dasharray=""/><path fill="none" stroke="rgb(255,255,255)" paint-order="fill stroke markers" d=" M 291.8278628840986 491.14999999999964 L 300.6662707192929 499.988407835194 L 282.98945504890423 482.3115921648053 L 291.8278628840986 491.14999999999964 L 300.6662707192929 499.9884078351939 L 282.98945504890423 482.3115921648053 L 291.8278628840986 491.14999999999964 L 291.8278628840986 491.14999999999964 L 291.8278628840986 491.14999999999964 Z" stroke-opacity="1" stroke-linecap="round" stroke-linejoin="round" stroke-miterlimit="10" stroke-width="2" stroke-dasharray=""/><path fill="none" stroke="rgb(255,255,255)" paint-order="fill stroke markers" d=" M 291.8278628840985 535.7999999999996 L 300.66627071929287 544.6384078351939 L 282.9894550489042 526.9615921648053 L 291.8278628840985 535.7999999999996 L 300.6662707192928 544.6384078351939 L 282.9894550489042 526.9615921648053 L 291.8278628840985 535.7999999999996 L 291.8278628840985 535.7999999999996 L 291.8278628840985 535.7999999999996 Z" stroke-opacity="1" stroke-linecap="round" stroke-linejoin="round" stroke-miterlimit="10" stroke-width="2" stroke-dasharray=""/><path fill="none" stroke="rgb(255,255,255)" paint-order="fill stroke markers" d=" M 330.49589716307366 558.1249999999997 L 339.334304998268 566.963407835194 L 321.6574893278793 549.2865921648054 L 330.49589716307366 558.1249999999997 L 339.33430499826795 566.963407835194 L 321.6574893278793 549.2865921648054 L 330.49589716307366 558.1249999999997 L 330.49589716307366 558.1249999999997 L 330.49589716307366 558.1249999999997 Z" stroke-opacity="1" stroke-linecap="round" stroke-linejoin="round" stroke-miterlimit="10" stroke-width="2" stroke-dasharray=""/><path fill="none" stroke="rgb(255,255,255)" paint-order="fill stroke markers" d=" M 369.1639314420488 580.4499999999997 L 378.00233927724315 589.288407835194 L 360.32552360685446 571.6115921648054 L 369.1639314420488 580.4499999999997 L 378.0023392772431 589.288407835194 L 360.32552360685446 571.6115921648054 L 369.1639314420488 580.4499999999997 L 369.1639314420488 580.4499999999997 L 369.1639314420488 580.4499999999997 Z" stroke-opacity="1" stroke-linecap="round" stroke-linejoin="round" stroke-miterlimit="10" stroke-width="2" stroke-dasharray=""/><path fill="none" stroke="rgb(255,255,255)" paint-order="fill stroke markers" d=" M 407.83196572102395 602.7749999999997 L 416.6703735562183 611.613407835194 L 398.9935578858296 593.9365921648055 L 407.83196572102395 602.7749999999997 L 416.67037355621824 611.613407835194 L 398.9935578858296 593.9365921648055 L 407.83196572102395 602.7749999999997 L 407.83196572102395 602.7749999999997 L 407.83196572102395 602.7749999999997 Z" stroke-opacity="1" stroke-linecap="round" stroke-linejoin="round" stroke-miterlimit="10" stroke-width="2" stroke-dasharray=""/><path fill="none" stroke="rgb(255,255,255)" paint-order="fill stroke markers" d=" M 446.4999999999991 625.0999999999998 L 455.33840783519344 633.9384078351941 L 437.66159216480474 616.2615921648055 L 446.4999999999991 625.0999999999998 L 455.3384078351934 633.9384078351941 L 437.66159216480474 616.2615921648055 L 446.4999999999991 625.0999999999998 L 446.4999999999991 625.0999999999998 L 446.4999999999991 625.0999999999998 Z" stroke-opacity="1" stroke-linecap="round" stroke-linejoin="round" stroke-miterlimit="10" stroke-width="2" stroke-dasharray=""/><path fill="none" stroke="rgb(255,255,255)" paint-order="fill stroke markers" d=" M 485.16803427897435 602.775 L 494.0064421141687 611.6134078351943 L 476.32962644378 593.9365921648057 L 485.16803427897435 602.775 L 494.00644211416864 611.6134078351943 L 476.32962644378 593.9365921648057 L 485.16803427897435 602.775 L 485.16803427897435 602.775 L 485.16803427897435 602.775 Z" stroke-opacity="1" stroke-linecap="round" stroke-linejoin="round" stroke-miterlimit="10" stroke-width="2" stroke-dasharray=""/><path fill="none" stroke="rgb(255,255,255)" paint-order="fill stroke markers" d=" M 523.8360685579496 580.4500000000002 L 532.6744763931439 589.2884078351944 L 514.9976607227553 571.6115921648059 L 523.8360685579496 580.4500000000002 L 532.6744763931439 589.2884078351944 L 514.9976607227553 571.6115921648059 L 523.8360685579496 580.4500000000002 L 523.8360685579496 580.4500000000002 L 523.8360685579496 580.4500000000002 Z" stroke-opacity="1" stroke-linecap="round" stroke-linejoin="round" stroke-miterlimit="10" stroke-width="2" stroke-dasharray=""/><path fill="none" stroke="rgb(255,255,255)" paint-order="fill stroke markers" d=" M 562.5041028369249 558.1250000000003 L 571.3425106721191 566.9634078351946 L 553.6656950017306 549.286592164806 L 562.5041028369249 558.1250000000003 L 571.3425106721191 566.9634078351946 L 553.6656950017306 549.286592164806 L 562.5041028369249 558.1250000000003 L 562.5041028369249 558.1250000000003 L 562.5041028369249 558.1250000000003 Z" stroke-opacity="1" stroke-linecap="round" stroke-linejoin="round" stroke-miterlimit="10" stroke-width="2" stroke-dasharray=""/><path fill="none" stroke="rgb(255,255,255)" paint-order="fill stroke markers" d=" M 601.1721371159001 535.8000000000005 L 610.0105449510944 544.6384078351948 L 592.3337292807058 526.9615921648062 L 601.1721371159001 535.8000000000005 L 610.0105449510944 544.6384078351948 L 592.3337292807058 526.9615921648062 L 601.1721371159001 535.8000000000005 L 601.1721371159001 535.8000000000005 L 601.1721371159001 535.8000000000005 Z" stroke-opacity="1" stroke-linecap="round" stroke-linejoin="round" stroke-miterlimit="10" stroke-width="2" stroke-dasharray=""/><path fill="none" stroke="rgb(255,255,255)" paint-order="fill stroke markers" d=" M 601.1721371159001 491.15000000000055 L 610.0105449510944 499.9884078351949 L 592.3337292807058 482.3115921648062 L 601.1721371159001 491.15000000000055 L 610.0105449510944 499.98840783519483 L 592.3337292807058 482.3115921648062 L 601.1721371159001 491.15000000000055 L 601.1721371159001 491.15000000000055 L 601.1721371159001 491.15000000000055 Z" stroke-opacity="1" stroke-linecap="round" stroke-linejoin="round" stroke-miterlimit="10" stroke-width="2" stroke-dasharray=""/><path fill="none" stroke="rgb(255,255,255)" paint-order="fill stroke markers" d=" M 601.1721371159001 446.50000000000057 L 610.0105449510944 455.3384078351949 L 592.3337292807058 437.6615921648062 L 601.1721371159001 446.50000000000057 L 610.0105449510944 455.33840783519486 L 592.3337292807058 437.6615921648062 L 601.1721371159001 446.50000000000057 L 601.1721371159001 446.50000000000057 L 601.1721371159001 446.50000000000057 Z" stroke-opacity="1" stroke-linecap="round" stroke-linejoin="round" stroke-miterlimit="10" stroke-width="2" stroke-dasharray=""/><path fill="none" stroke="rgb(255,255,255)" paint-order="fill stroke markers" d=" M 601.1721371159001 401.8500000000006 L 610.0105449510944 410.68840783519494 L 592.3337292807058 393.01159216480625 L 601.1721371159001 401.8500000000006 L 610.0105449510944 410.6884078351949 L 592.3337292807058 393.01159216480625 L 601.1721371159001 401.8500000000006 L 601.1721371159001 401.8500000000006 L 601.1721371159001 401.8500000000006 Z" stroke-opacity="1" stroke-linecap="round" stroke-linejoin="round" stroke-miterlimit="10" stroke-width="2" stroke-dasharray=""/><path fill="none" stroke="rgb(255,255,255)" paint-order="fill stroke markers" d=" M 601.1721371159001 357.2000000000006 L 610.0105449510944 366.03840783519496 L 592.3337292807058 348.36159216480627 L 601.1721371159001 357.2000000000006 L 610.0105449510944 366.0384078351949 L 592.3337292807058 348.36159216480627 L 601.1721371159001 357.2000000000006 L 601.1721371159001 357.2000000000006 L 601.1721371159001 357.2000000000006 Z" stroke-opacity="1" stroke-linecap="round" stroke-linejoin="round" stroke-miterlimit="10" stroke-width="2" stroke-dasharray=""/><path fill="none" stroke="rgb(255,255,255)" paint-order="fill stroke markers" d=" M 601.1721371159001 312.55000000000064 L 610.0105449510944 321.388407835195 L 592.3337292807058 303.7115921648063 L 601.1721371159001 312.55000000000064 L 610.0105449510944 321.3884078351949 L 592.3337292807058 303.7115921648063 L 601.1721371159001 312.55000000000064 L 601.1721371159001 312.55000000000064 L 601.1721371159001 312.55000000000064 Z" stroke-opacity="1" stroke-linecap="round" stroke-linejoin="round" stroke-miterlimit="10" stroke-width="2" stroke-dasharray=""/><path fill="none" stroke="rgb(255,255,255)" paint-order="fill stroke markers" d=" M 562.504102836925 290.22500000000053 L 571.3425106721193 299.0634078351949 L 553.6656950017307 281.3865921648062 L 562.504102836925 290.22500000000053 L 571.3425106721193 299.0634078351949 L 553.6656950017307 281.3865921648062 L 562.504102836925 290.22500000000053 L 562.504102836925 290.22500000000053 L 562.504102836925 290.22500000000053 Z" stroke-opacity="1" stroke-linecap="round" stroke-linejoin="round" stroke-miterlimit="10" stroke-width="2" stroke-dasharray=""/><path fill="none" stroke="rgb(255,255,255)" paint-order="fill stroke markers" d=" M 523.8360685579498 267.90000000000043 L 532.6744763931441 276.7384078351948 L 514.9976607227555 259.0615921648061 L 523.8360685579498 267.90000000000043 L 532.6744763931441 276.7384078351947 L 514.9976607227555 259.0615921648061 L 523.8360685579498 267.90000000000043 L 523.8360685579498 267.90000000000043 L 523.8360685579498 267.90000000000043 Z" stroke-opacity="1" stroke-linecap="round" stroke-linejoin="round" stroke-miterlimit="10" stroke-width="2" stroke-dasharray=""/><path fill="none" stroke="rgb(255,255,255)" paint-order="fill stroke markers" d=" M 485.1680342789747 245.57500000000036 L 494.00644211416903 254.41340783519468 L 476.32962644378034 236.73659216480604 L 485.1680342789747 245.57500000000036 L 494.006442114169 254.41340783519468 L 476.32962644378034 236.736592164806 L 485.1680342789747 245.57500000000036 L 485.1680342789747 245.57500000000036 L 485.1680342789747 245.57500000000036 Z" stroke-opacity="1" stroke-linecap="round" stroke-linejoin="round" stroke-miterlimit="10" stroke-width="2" stroke-dasharray=""/><path fill="none" stroke="rgb(255,255,255)" paint-order="fill stroke markers" d=" M 446.49999999999955 223.25000000000028 L 455.3384078351939 232.0884078351946 L 437.6615921648052 214.41159216480594 L 446.49999999999955 223.25000000000028 L 455.33840783519383 232.0884078351946 L 437.6615921648052 214.41159216480594 L 446.49999999999955 223.25000000000028 L 446.49999999999955 223.25000000000028 L 446.49999999999955 223.25000000000028 Z" stroke-opacity="1" stroke-linecap="round" stroke-linejoin="round" stroke-miterlimit="10" stroke-width="2" stroke-dasharray=""/><path fill="none" stroke="rgb(255,255,255)" paint-order="fill stroke markers" d=" M 407.8319657210243 245.57500000000016 L 416.67037355621864 254.41340783519448 L 398.99355788582994 236.7365921648058 L 407.8319657210243 245.57500000000016 L 416.6703735562186 254.41340783519448 L 398.99355788582994 236.7365921648058 L 407.8319657210243 245.57500000000016 L 407.8319657210243 245.57500000000016 L 407.8319657210243 245.57500000000016 Z" stroke-opacity="1" stroke-linecap="round" stroke-linejoin="round" stroke-miterlimit="10" stroke-width="2" stroke-dasharray=""/><path fill="none" stroke="rgb(255,255,255)" paint-order="fill stroke markers" d=" M 369.16393144204903 267.90000000000003 L 378.0023392772434 276.7384078351944 L 360.3255236068547 259.0615921648057 L 369.16393144204903 267.90000000000003 L 378.0023392772433 276.7384078351944 L 360.3255236068547 259.0615921648057 L 369.16393144204903 267.90000000000003 L 369.16393144204903 267.90000000000003 L 369.16393144204903 267.90000000000003 Z" stroke-opacity="1" stroke-linecap="round" stroke-linejoin="round" stroke-miterlimit="10" stroke-width="2" stroke-dasharray=""/><path fill="none" stroke="rgb(255,255,255)" paint-order="fill stroke markers" d=" M 330.4958971630738 290.2249999999999 L 339.3343049982681 299.06340783519425 L 321.65748932787943 281.38659216480556 L 330.4958971630738 290.2249999999999 L 339.33430499826807 299.0634078351942 L 321.65748932787943 281.38659216480556 L 330.4958971630738 290.2249999999999 L 330.4958971630738 290.2249999999999 L 330.4958971630738 290.2249999999999 Z" stroke-opacity="1" stroke-linecap="round" stroke-linejoin="round" stroke-miterlimit="10" stroke-width="2" stroke-dasharray=""/><path fill="none" stroke="rgb(255,255,255)" paint-order="fill stroke markers" d=" M 291.8278628840985 312.5499999999998 L 300.66627071929287 321.38840783519413 L 282.9894550489042 303.71159216480544 L 291.8278628840985 312.5499999999998 L 300.6662707192928 321.38840783519413 L 282.9894550489042 303.71159216480544 L 291.8278628840985 312.5499999999998 L 291.8278628840985 312.5499999999998 L 291.8278628840985 312.5499999999998 Z" stroke-opacity="1" stroke-linecap="round" stroke-linejoin="round" stroke-miterlimit="10" stroke-width="2" stroke-dasharray=""/><path fill="none" stroke="rgb(255,255,255)" paint-order="fill stroke markers" d=" M 253.15982860512327 334.87499999999966 L 261.9982364403176 343.713407835194 L 244.32142076992892 326.0365921648053 L 253.15982860512327 334.87499999999966 L 261.99823644031756 343.71340783519395 L 244.32142076992892 326.0365921648053 L 253.15982860512327 334.87499999999966 L 253.15982860512327 334.87499999999966 L 253.15982860512327 334.87499999999966 Z" stroke-opacity="1" stroke-linecap="round" stroke-linejoin="round" stroke-miterlimit="10" stroke-width="2" stroke-dasharray=""/><path fill="none" stroke="rgb(255,255,255)" paint-order="fill stroke markers" d=" M 253.15982860512307 379.52499999999964 L 261.9982364403174 388.363407835194 L 244.32142076992875 370.6865921648053 L 253.15982860512307 379.52499999999964 L 261.9982364403174 388.3634078351939 L 244.32142076992872 370.6865921648053 L 253.15982860512307 379.52499999999964 L 253.15982860512307 379.52499999999964 L 253.15982860512307 379.52499999999964 Z" stroke-opacity="1" stroke-linecap="round" stroke-linejoin="round" stroke-miterlimit="10" stroke-width="2" stroke-dasharray=""/><path fill="none" stroke="rgb(255,255,255)" paint-order="fill stroke markers" d=" M 253.15982860512287 424.1749999999996 L 261.9982364403172 433.01340783519396 L 244.32142076992852 415.33659216480527 L 253.15982860512287 424.1749999999996 L 261.9982364403172 433.0134078351939 L 244.32142076992852 415.33659216480527 L 253.15982860512287 424.1749999999996 L 253.15982860512287 424.1749999999996 L 253.15982860512287 424.1749999999996 Z" stroke-opacity="1" stroke-linecap="round" stroke-linejoin="round" stroke-miterlimit="10" stroke-width="2" stroke-dasharray=""/><path fill="none" stroke="rgb(255,255,255)" paint-order="fill stroke markers" d=" M 253.15982860512267 468.8249999999996 L 261.998236440317 477.66340783519394 L 244.32142076992835 459.98659216480524 L 253.15982860512267 468.8249999999996 L 261.998236440317 477.6634078351939 L 244.32142076992832 459.98659216480524 L 253.15982860512267 468.8249999999996 L 253.15982860512267 468.8249999999996 L 253.15982860512267 468.8249999999996 Z" stroke-opacity="1" stroke-linecap="round" stroke-linejoin="round" stroke-miterlimit="10" stroke-width="2" stroke-dasharray=""/><path fill="none" stroke="rgb(255,255,255)" paint-order="fill stroke markers" d=" M 253.15982860512247 513.4749999999996 L 261.9982364403168 522.3134078351939 L 244.32142076992812 504.6365921648052 L 253.15982860512247 513.4749999999996 L 261.99823644031676 522.3134078351939 L 244.32142076992812 504.6365921648052 L 253.15982860512247 513.4749999999996 L 253.15982860512247 513.4749999999996 L 253.15982860512247 513.4749999999996 Z" stroke-opacity="1" stroke-linecap="round" stroke-linejoin="round" stroke-miterlimit="10" stroke-width="2" stroke-dasharray=""/><path fill="none" stroke="rgb(255,255,255)" paint-order="fill stroke markers" d=" M 253.15982860512227 558.1249999999995 L 261.9982364403166 566.9634078351938 L 244.32142076992795 549.2865921648053 L 253.15982860512227 558.1249999999995 L 261.9982364403166 566.9634078351938 L 244.32142076992793 549.2865921648053 L 253.15982860512227 558.1249999999995 L 253.15982860512227 558.1249999999995 L 253.15982860512227 558.1249999999995 Z" stroke-opacity="1" stroke-linecap="round" stroke-linejoin="round" stroke-miterlimit="10" stroke-width="2" stroke-dasharray=""/><path fill="none" stroke="rgb(255,255,255)" paint-order="fill stroke markers" d=" M 291.8278628840974 580.4499999999996 L 300.66627071929173 589.2884078351939 L 282.98945504890304 571.6115921648053 L 291.8278628840974 580.4499999999996 L 300.6662707192917 589.2884078351939 L 282.98945504890304 571.6115921648053 L 291.8278628840974 580.4499999999996 L 291.8278628840974 580.4499999999996 L 291.8278628840974 580.4499999999996 Z" stroke-opacity="1" stroke-linecap="round" stroke-linejoin="round" stroke-miterlimit="10" stroke-width="2" stroke-dasharray=""/><path fill="none" stroke="rgb(255,255,255)" paint-order="fill stroke markers" d=" M 330.4958971630725 602.7749999999996 L 339.3343049982669 611.6134078351939 L 321.6574893278782 593.9365921648053 L 330.4958971630725 602.7749999999996 L 339.3343049982668 611.6134078351939 L 321.6574893278782 593.9365921648053 L 330.4958971630725 602.7749999999996 L 330.4958971630725 602.7749999999996 L 330.4958971630725 602.7749999999996 Z" stroke-opacity="1" stroke-linecap="round" stroke-linejoin="round" stroke-miterlimit="10" stroke-width="2" stroke-dasharray=""/><path fill="none" stroke="rgb(255,255,255)" paint-order="fill stroke markers" d=" M 369.16393144204767 625.0999999999997 L 378.002339277242 633.938407835194 L 360.3255236068533 616.2615921648054 L 369.16393144204767 625.0999999999997 L 378.00233927724196 633.938407835194 L 360.3255236068533 616.2615921648054 L 369.16393144204767 625.0999999999997 L 369.16393144204767 625.0999999999997 L 369.16393144204767 625.0999999999997 Z" stroke-opacity="1" stroke-linecap="round" stroke-linejoin="round" stroke-miterlimit="10" stroke-width="2" stroke-dasharray=""/><path fill="none" stroke="rgb(255,255,255)" paint-order="fill stroke markers" d=" M 407.8319657210228 647.4249999999997 L 416.67037355621716 656.263407835194 L 398.99355788582847 638.5865921648054 L 407.8319657210228 647.4249999999997 L 416.6703735562171 656.263407835194 L 398.99355788582847 638.5865921648054 L 407.8319657210228 647.4249999999997 L 407.8319657210228 647.4249999999997 L 407.8319657210228 647.4249999999997 Z" stroke-opacity="1" stroke-linecap="round" stroke-linejoin="round" stroke-miterlimit="10" stroke-width="2" stroke-dasharray=""/><path fill="none" stroke="rgb(255,255,255)" paint-order="fill stroke markers" d=" M 446.49999999999795 669.7499999999998 L 455.3384078351923 678.5884078351941 L 437.6615921648036 660.9115921648055 L 446.49999999999795 669.7499999999998 L 455.33840783519224 678.5884078351941 L 437.6615921648036 660.9115921648055 L 446.49999999999795 669.7499999999998 L 446.49999999999795 669.7499999999998 L 446.49999999999795 669.7499999999998 Z" stroke-opacity="1" stroke-linecap="round" stroke-linejoin="round" stroke-miterlimit="10" stroke-width="2" stroke-dasharray=""/><path fill="none" stroke="rgb(255,255,255)" paint-order="fill stroke markers" d=" M 485.1680342789732 647.425 L 494.00644211416756 656.2634078351942 L 476.32962644377886 638.5865921648057 L 485.1680342789732 647.425 L 494.0064421141675 656.2634078351942 L 476.32962644377886 638.5865921648057 L 485.1680342789732 647.425 L 485.1680342789732 647.425 L 485.1680342789732 647.425 Z" stroke-opacity="1" stroke-linecap="round" stroke-linejoin="round" stroke-miterlimit="10" stroke-width="2" stroke-dasharray=""/><path fill="none" stroke="rgb(255,255,255)" paint-order="fill stroke markers" d=" M 523.8360685579485 625.1000000000001 L 532.6744763931428 633.9384078351944 L 514.9976607227542 616.2615921648058 L 523.8360685579485 625.1000000000001 L 532.6744763931428 633.9384078351944 L 514.9976607227542 616.2615921648058 L 523.8360685579485 625.1000000000001 L 523.8360685579485 625.1000000000001 L 523.8360685579485 625.1000000000001 Z" stroke-opacity="1" stroke-linecap="round" stroke-linejoin="round" stroke-miterlimit="10" stroke-width="2" stroke-dasharray=""/><path fill="none" stroke="rgb(255,255,255)" paint-order="fill stroke markers" d=" M 562.5041028369237 602.7750000000003 L 571.342510672118 611.6134078351946 L 553.6656950017294 593.936592164806 L 562.5041028369237 602.7750000000003 L 571.342510672118 611.6134078351946 L 553.6656950017294 593.936592164806 L 562.5041028369237 602.7750000000003 L 562.5041028369237 602.7750000000003 L 562.5041028369237 602.7750000000003 Z" stroke-opacity="1" stroke-linecap="round" stroke-linejoin="round" stroke-miterlimit="10" stroke-width="2" stroke-dasharray=""/><path fill="none" stroke="rgb(255,255,255)" paint-order="fill stroke markers" d=" M 601.172137115899 580.4500000000005 L 610.0105449510933 589.2884078351948 L 592.3337292807047 571.6115921648062 L 601.172137115899 580.4500000000005 L 610.0105449510933 589.2884078351948 L 592.3337292807047 571.6115921648062 L 601.172137115899 580.4500000000005 L 601.172137115899 580.4500000000005 L 601.172137115899 580.4500000000005 Z" stroke-opacity="1" stroke-linecap="round" stroke-linejoin="round" stroke-miterlimit="10" stroke-width="2" stroke-dasharray=""/><path fill="none" stroke="rgb(255,255,255)" paint-order="fill stroke markers" d=" M 639.8401713948742 558.1250000000007 L 648.6785792300685 566.963407835195 L 631.00176355968 549.2865921648064 L 639.8401713948742 558.1250000000007 L 648.6785792300685 566.963407835195 L 631.00176355968 549.2865921648064 L 639.8401713948742 558.1250000000007 L 639.8401713948742 558.1250000000007 L 639.8401713948742 558.1250000000007 Z" stroke-opacity="1" stroke-linecap="round" stroke-linejoin="round" stroke-miterlimit="10" stroke-width="2" stroke-dasharray=""/><path fill="none" stroke="rgb(255,255,255)" paint-order="fill stroke markers" d=" M 639.8401713948745 513.4750000000007 L 648.6785792300687 522.313407835195 L 631.0017635596802 504.63659216480636 L 639.8401713948745 513.4750000000007 L 648.6785792300687 522.313407835195 L 631.0017635596802 504.63659216480636 L 639.8401713948745 513.4750000000007 L 639.8401713948745 513.4750000000007 L 639.8401713948745 513.4750000000007 Z" stroke-opacity="1" stroke-linecap="round" stroke-linejoin="round" stroke-miterlimit="10" stroke-width="2" stroke-dasharray=""/><path fill="none" stroke="rgb(255,255,255)" paint-order="fill stroke markers" d=" M 639.8401713948747 468.8250000000007 L 648.678579230069 477.6634078351951 L 631.0017635596804 459.9865921648064 L 639.8401713948747 468.8250000000007 L 648.678579230069 477.663407835195 L 631.0017635596804 459.9865921648064 L 639.8401713948747 468.8250000000007 L 639.8401713948747 468.8250000000007 L 639.8401713948747 468.8250000000007 Z" stroke-opacity="1" stroke-linecap="round" stroke-linejoin="round" stroke-miterlimit="10" stroke-width="2" stroke-dasharray=""/><path fill="none" stroke="rgb(255,255,255)" paint-order="fill stroke markers" d=" M 639.8401713948749 424.17500000000075 L 648.6785792300692 433.0134078351951 L 631.0017635596806 415.3365921648064 L 639.8401713948749 424.17500000000075 L 648.6785792300692 433.01340783519504 L 631.0017635596806 415.3365921648064 L 639.8401713948749 424.17500000000075 L 639.8401713948749 424.17500000000075 L 639.8401713948749 424.17500000000075 Z" stroke-opacity="1" stroke-linecap="round" stroke-linejoin="round" stroke-miterlimit="10" stroke-width="2" stroke-dasharray=""/><path fill="none" stroke="rgb(255,255,255)" paint-order="fill stroke markers" d=" M 639.8401713948751 379.5250000000008 L 648.6785792300694 388.3634078351951 L 631.0017635596809 370.6865921648064 L 639.8401713948751 379.5250000000008 L 648.6785792300694 388.36340783519506 L 631.0017635596809 370.6865921648064 L 639.8401713948751 379.5250000000008 L 639.8401713948751 379.5250000000008 L 639.8401713948751 379.5250000000008 Z" stroke-opacity="1" stroke-linecap="round" stroke-linejoin="round" stroke-miterlimit="10" stroke-width="2" stroke-dasharray=""/><path fill="none" stroke="rgb(255,255,255)" paint-order="fill stroke markers" d=" M 639.8401713948754 334.8750000000008 L 648.6785792300697 343.71340783519514 L 631.0017635596811 326.03659216480645 L 639.8401713948754 334.8750000000008 L 648.6785792300697 343.7134078351951 L 631.0017635596811 326.03659216480645 L 639.8401713948754 334.8750000000008 L 639.8401713948754 334.8750000000008 L 639.8401713948754 334.8750000000008 Z" stroke-opacity="1" stroke-linecap="round" stroke-linejoin="round" stroke-miterlimit="10" stroke-width="2" stroke-dasharray=""/><path fill="none" stroke="rgb(255,255,255)" paint-order="fill stroke markers" d=" M 639.8401713948756 290.2250000000008 L 648.6785792300699 299.06340783519516 L 631.0017635596813 281.3865921648065 L 639.8401713948756 290.2250000000008 L 648.6785792300699 299.0634078351951 L 631.0017635596813 281.3865921648065 L 639.8401713948756 290.2250000000008 L 639.8401713948756 290.2250000000008 L 639.8401713948756 290.2250000000008 Z" stroke-opacity="1" stroke-linecap="round" stroke-linejoin="round" stroke-miterlimit="10" stroke-width="2" stroke-dasharray=""/><path fill="none" stroke="rgb(255,255,255)" paint-order="fill stroke markers" d=" M 601.1721371159005 267.9000000000007 L 610.0105449510947 276.73840783519506 L 592.3337292807062 259.06159216480637 L 601.1721371159005 267.9000000000007 L 610.0105449510947 276.73840783519506 L 592.3337292807062 259.06159216480637 L 601.1721371159005 267.9000000000007 L 601.1721371159005 267.9000000000007 L 601.1721371159005 267.9000000000007 Z" stroke-opacity="1" stroke-linecap="round" stroke-linejoin="round" stroke-miterlimit="10" stroke-width="2" stroke-dasharray=""/><path fill="none" stroke="rgb(255,255,255)" paint-order="fill stroke markers" d=" M 562.5041028369253 245.5750000000006 L 571.3425106721196 254.41340783519493 L 553.665695001731 236.73659216480627 L 562.5041028369253 245.5750000000006 L 571.3425106721196 254.41340783519493 L 553.665695001731 236.73659216480627 L 562.5041028369253 245.5750000000006 L 562.5041028369253 245.5750000000006 L 562.5041028369253 245.5750000000006 Z" stroke-opacity="1" stroke-linecap="round" stroke-linejoin="round" stroke-miterlimit="10" stroke-width="2" stroke-dasharray=""/><path fill="none" stroke="rgb(255,255,255)" paint-order="fill stroke markers" d=" M 523.8360685579502 223.2500000000005 L 532.6744763931445 232.08840783519483 L 514.9976607227559 214.41159216480617 L 523.8360685579502 223.2500000000005 L 532.6744763931445 232.08840783519483 L 514.9976607227559 214.41159216480617 L 523.8360685579502 223.2500000000005 L 523.8360685579502 223.2500000000005 L 523.8360685579502 223.2500000000005 Z" stroke-opacity="1" stroke-linecap="round" stroke-linejoin="round" stroke-miterlimit="10" stroke-width="2" stroke-dasharray=""/><path fill="none" stroke="rgb(255,255,255)" paint-order="fill stroke markers" d=" M 485.16803427897503 200.9250000000004 L 494.0064421141694 209.76340783519473 L 476.3296264437807 192.08659216480606 L 485.16803427897503 200.9250000000004 L 494.0064421141693 209.76340783519473 L 476.3296264437807 192.08659216480606 L 485.16803427897503 200.9250000000004 L 485.16803427897503 200.9250000000004 L 485.16803427897503 200.9250000000004 Z" stroke-opacity="1" stroke-linecap="round" stroke-linejoin="round" stroke-miterlimit="10" stroke-width="2" stroke-dasharray=""/><path fill="none" stroke="rgb(255,255,255)" paint-order="fill stroke markers" d=" M 446.4999999999999 178.6000000000003 L 455.33840783519423 187.43840783519462 L 437.66159216480554 169.76159216480596 L 446.4999999999999 178.6000000000003 L 455.3384078351942 187.43840783519462 L 437.66159216480554 169.76159216480596 L 446.4999999999999 178.6000000000003 L 446.4999999999999 178.6000000000003 L 446.4999999999999 178.6000000000003 Z" stroke-opacity="1" stroke-linecap="round" stroke-linejoin="round" stroke-miterlimit="10" stroke-width="2" stroke-dasharray=""/><path fill="none" stroke="rgb(255,255,255)" paint-order="fill stroke markers" d=" M 407.83196572102463 200.92500000000015 L 416.670373556219 209.76340783519447 L 398.9935578858303 192.08659216480584 L 407.83196572102463 200.92500000000015 L 416.6703735562189 209.76340783519447 L 398.9935578858303 192.0865921648058 L 407.83196572102463 200.92500000000015 L 407.83196572102463 200.92500000000015 L 407.83196572102463 200.92500000000015 Z" stroke-opacity="1" stroke-linecap="round" stroke-linejoin="round" stroke-miterlimit="10" stroke-width="2" stroke-dasharray=""/><path fill="none" stroke="rgb(255,255,255)" paint-order="fill stroke markers" d=" M 369.1639314420494 223.25 L 378.0023392772437 232.08840783519432 L 360.32552360685503 214.41159216480565 L 369.1639314420494 223.25 L 378.00233927724366 232.08840783519432 L 360.32552360685503 214.41159216480565 L 369.1639314420494 223.25 L 369.1639314420494 223.25 L 369.1639314420494 223.25 Z" stroke-opacity="1" stroke-linecap="round" stroke-linejoin="round" stroke-miterlimit="10" stroke-width="2" stroke-dasharray=""/><path fill="none" stroke="rgb(255,255,255)" paint-order="fill stroke markers" d=" M 330.4958971630741 245.57499999999985 L 339.33430499826846 254.41340783519416 L 321.6574893278798 236.73659216480553 L 330.4958971630741 245.57499999999985 L 339.3343049982684 254.41340783519416 L 321.6574893278798 236.7365921648055 L 330.4958971630741 245.57499999999985 L 330.4958971630741 245.57499999999985 L 330.4958971630741 245.57499999999985 Z" stroke-opacity="1" stroke-linecap="round" stroke-linejoin="round" stroke-miterlimit="10" stroke-width="2" stroke-dasharray=""/><path fill="none" stroke="rgb(255,255,255)" paint-order="fill stroke markers" d=" M 291.82786288409886 267.8999999999997 L 300.6662707192932 276.73840783519404 L 282.9894550489045 259.06159216480535 L 291.82786288409886 267.8999999999997 L 300.66627071929315 276.73840783519404 L 282.9894550489045 259.06159216480535 L 291.82786288409886 267.8999999999997 L 291.82786288409886 267.8999999999997 L 291.82786288409886 267.8999999999997 Z" stroke-opacity="1" stroke-linecap="round" stroke-linejoin="round" stroke-miterlimit="10" stroke-width="2" stroke-dasharray=""/><path fill="none" stroke="rgb(255,255,255)" paint-order="fill stroke markers" d=" M 253.1598286051236 290.22499999999957 L 261.99823644031795 299.0634078351939 L 244.32142076992926 281.3865921648052 L 253.1598286051236 290.22499999999957 L 261.9982364403179 299.06340783519386 L 244.32142076992926 281.3865921648052 L 253.1598286051236 290.22499999999957 L 253.1598286051236 290.22499999999957 L 253.1598286051236 290.22499999999957 Z" stroke-opacity="1" stroke-linecap="round" stroke-linejoin="round" stroke-miterlimit="10" stroke-width="2" stroke-dasharray=""/><path fill="none" stroke="rgb(255,255,255)" paint-order="fill stroke markers" d=" M 214.49179432614835 312.54999999999944 L 223.33020216134267 321.3884078351938 L 205.653386490954 303.7115921648051 L 214.49179432614835 312.54999999999944 L 223.33020216134267 321.3884078351938 L 205.653386490954 303.7115921648051 L 214.49179432614835 312.54999999999944 L 214.49179432614835 312.54999999999944 L 214.49179432614835 312.54999999999944 Z" stroke-opacity="1" stroke-linecap="round" stroke-linejoin="round" stroke-miterlimit="10" stroke-width="2" stroke-dasharray=""/><path fill="none" stroke="rgb(255,255,255)" paint-order="fill stroke markers" d=" M 214.49179432614812 357.1999999999994 L 223.33020216134244 366.03840783519377 L 205.65338649095378 348.3615921648051 L 214.49179432614812 357.1999999999994 L 223.33020216134244 366.03840783519377 L 205.65338649095378 348.3615921648051 L 214.49179432614812 357.1999999999994 L 214.49179432614812 357.1999999999994 L 214.49179432614812 357.1999999999994 Z" stroke-opacity="1" stroke-linecap="round" stroke-linejoin="round" stroke-miterlimit="10" stroke-width="2" stroke-dasharray=""/><path fill="none" stroke="rgb(255,255,255)" paint-order="fill stroke markers" d=" M 214.4917943261479 401.8499999999994 L 223.3302021613422 410.68840783519374 L 205.65338649095355 393.01159216480505 L 214.4917943261479 401.8499999999994 L 223.3302021613422 410.68840783519374 L 205.65338649095355 393.01159216480505 L 214.4917943261479 401.8499999999994 L 214.4917943261479 401.8499999999994 L 214.4917943261479 401.8499999999994 Z" stroke-opacity="1" stroke-linecap="round" stroke-linejoin="round" stroke-miterlimit="10" stroke-width="2" stroke-dasharray=""/><path fill="none" stroke="rgb(255,255,255)" paint-order="fill stroke markers" d=" M 214.49179432614767 446.4999999999994 L 223.330202161342 455.3384078351937 L 205.65338649095332 437.66159216480503 L 214.49179432614767 446.4999999999994 L 223.330202161342 455.3384078351937 L 205.65338649095332 437.66159216480503 L 214.49179432614767 446.4999999999994 L 214.49179432614767 446.4999999999994 L 214.49179432614767 446.4999999999994 Z" stroke-opacity="1" stroke-linecap="round" stroke-linejoin="round" stroke-miterlimit="10" stroke-width="2" stroke-dasharray=""/><path fill="none" stroke="rgb(255,255,255)" paint-order="fill stroke markers" d=" M 214.49179432614744 491.14999999999935 L 223.33020216134176 499.9884078351937 L 205.6533864909531 482.311592164805 L 214.49179432614744 491.14999999999935 L 223.33020216134176 499.9884078351937 L 205.6533864909531 482.311592164805 L 214.49179432614744 491.14999999999935 L 214.49179432614744 491.14999999999935 L 214.49179432614744 491.14999999999935 Z" stroke-opacity="1" stroke-linecap="round" stroke-linejoin="round" stroke-miterlimit="10" stroke-width="2" stroke-dasharray=""/><path fill="none" stroke="rgb(255,255,255)" paint-order="fill stroke markers" d=" M 214.49179432614721 535.7999999999994 L 223.33020216134153 544.6384078351937 L 205.65338649095287 526.9615921648051 L 214.49179432614721 535.7999999999994 L 223.33020216134153 544.6384078351937 L 205.65338649095287 526.9615921648051 L 214.49179432614721 535.7999999999994 L 214.49179432614721 535.7999999999994 L 214.49179432614721 535.7999999999994 Z" stroke-opacity="1" stroke-linecap="round" stroke-linejoin="round" stroke-miterlimit="10" stroke-width="2" stroke-dasharray=""/><path fill="none" stroke="rgb(255,255,255)" paint-order="fill stroke markers" d=" M 214.491794326147 580.4499999999994 L 223.3302021613413 589.2884078351937 L 205.65338649095264 571.6115921648051 L 214.491794326147 580.4499999999994 L 223.3302021613413 589.2884078351937 L 205.65338649095264 571.6115921648051 L 214.491794326147 580.4499999999994 L 214.491794326147 580.4499999999994 L 214.491794326147 580.4499999999994 Z" stroke-opacity="1" stroke-linecap="round" stroke-linejoin="round" stroke-miterlimit="10" stroke-width="2" stroke-dasharray=""/><path fill="none" stroke="rgb(255,255,255)" paint-order="fill stroke markers" d=" M 253.15982860512204 602.7749999999996 L 261.99823644031636 611.6134078351939 L 244.32142076992773 593.9365921648053 L 253.15982860512204 602.7749999999996 L 261.99823644031636 611.6134078351939 L 244.3214207699277 593.9365921648053 L 253.15982860512204 602.7749999999996 L 253.15982860512204 602.7749999999996 L 253.15982860512204 602.7749999999996 Z" stroke-opacity="1" stroke-linecap="round" stroke-linejoin="round" stroke-miterlimit="10" stroke-width="2" stroke-dasharray=""/><path fill="none" stroke="rgb(255,255,255)" paint-order="fill stroke markers" d=" M 291.8278628840971 625.0999999999999 L 300.66627071929145 633.9384078351942 L 282.98945504890276 616.2615921648056 L 291.8278628840971 625.0999999999999 L 300.66627071929145 633.9384078351942 L 282.98945504890276 616.2615921648056 L 291.8278628840971 625.0999999999999 L 291.8278628840971 625.0999999999999 L 291.8278628840971 625.0999999999999 Z" stroke-opacity="1" stroke-linecap="round" stroke-linejoin="round" stroke-miterlimit="10" stroke-width="2" stroke-dasharray=""/><path fill="none" stroke="rgb(255,255,255)" paint-order="fill stroke markers" d=" M 330.49589716307213 647.4250000000002 L 339.3343049982665 656.2634078351945 L 321.6574893278778 638.5865921648059 L 330.49589716307213 647.4250000000002 L 339.3343049982665 656.2634078351945 L 321.6574893278778 638.5865921648059 L 330.49589716307213 647.4250000000002 L 330.49589716307213 647.4250000000002 L 330.49589716307213 647.4250000000002 Z" stroke-opacity="1" stroke-linecap="round" stroke-linejoin="round" stroke-miterlimit="10" stroke-width="2" stroke-dasharray=""/><path fill="none" stroke="rgb(255,255,255)" paint-order="fill stroke markers" d=" M 369.16393144204716 669.7500000000005 L 378.0023392772415 678.5884078351947 L 360.3255236068528 660.9115921648062 L 369.16393144204716 669.7500000000005 L 378.0023392772415 678.5884078351947 L 360.3255236068528 660.9115921648062 L 369.16393144204716 669.7500000000005 L 369.16393144204716 669.7500000000005 L 369.16393144204716 669.7500000000005 Z" stroke-opacity="1" stroke-linecap="round" stroke-linejoin="round" stroke-miterlimit="10" stroke-width="2" stroke-dasharray=""/><path fill="none" stroke="rgb(255,255,255)" paint-order="fill stroke markers" d=" M 407.8319657210222 692.0750000000007 L 416.67037355621653 700.913407835195 L 398.99355788582784 683.2365921648064 L 407.8319657210222 692.0750000000007 L 416.67037355621653 700.913407835195 L 398.99355788582784 683.2365921648064 L 407.8319657210222 692.0750000000007 L 407.8319657210222 692.0750000000007 L 407.8319657210222 692.0750000000007 Z" stroke-opacity="1" stroke-linecap="round" stroke-linejoin="round" stroke-miterlimit="10" stroke-width="2" stroke-dasharray=""/><path fill="none" stroke="rgb(255,255,255)" paint-order="fill stroke markers" d=" M 446.4999999999972 714.400000000001 L 455.33840783519156 723.2384078351953 L 437.66159216480287 705.5615921648067 L 446.4999999999972 714.400000000001 L 455.33840783519156 723.2384078351953 L 437.66159216480287 705.5615921648067 L 446.4999999999972 714.400000000001 L 446.4999999999972 714.400000000001 L 446.4999999999972 714.400000000001 Z" stroke-opacity="1" stroke-linecap="round" stroke-linejoin="round" stroke-miterlimit="10" stroke-width="2" stroke-dasharray=""/><path fill="none" stroke="rgb(255,255,255)" paint-order="fill stroke markers" d=" M 485.1680342789726 692.0750000000013 L 494.00644211416693 700.9134078351956 L 476.32962644377824 683.236592164807 L 485.1680342789726 692.0750000000013 L 494.00644211416693 700.9134078351956 L 476.32962644377824 683.236592164807 L 485.1680342789726 692.0750000000013 L 485.1680342789726 692.0750000000013 L 485.1680342789726 692.0750000000013 Z" stroke-opacity="1" stroke-linecap="round" stroke-linejoin="round" stroke-miterlimit="10" stroke-width="2" stroke-dasharray=""/><path fill="none" stroke="rgb(255,255,255)" paint-order="fill stroke markers" d=" M 523.8360685579479 669.7500000000016 L 532.6744763931422 678.5884078351959 L 514.9976607227536 660.9115921648073 L 523.8360685579479 669.7500000000016 L 532.6744763931422 678.5884078351959 L 514.9976607227536 660.9115921648073 L 523.8360685579479 669.7500000000016 L 523.8360685579479 669.7500000000016 L 523.8360685579479 669.7500000000016 Z" stroke-opacity="1" stroke-linecap="round" stroke-linejoin="round" stroke-miterlimit="10" stroke-width="2" stroke-dasharray=""/><path fill="none" stroke="rgb(255,255,255)" paint-order="fill stroke markers" d=" M 562.5041028369233 647.4250000000019 L 571.3425106721176 656.2634078351962 L 553.665695001729 638.5865921648076 L 562.5041028369233 647.4250000000019 L 571.3425106721176 656.2634078351962 L 553.665695001729 638.5865921648076 L 562.5041028369233 647.4250000000019 L 562.5041028369233 647.4250000000019 L 562.5041028369233 647.4250000000019 Z" stroke-opacity="1" stroke-linecap="round" stroke-linejoin="round" stroke-miterlimit="10" stroke-width="2" stroke-dasharray=""/><path fill="none" stroke="rgb(255,255,255)" paint-order="fill stroke markers" d=" M 601.1721371158986 625.1000000000022 L 610.0105449510929 633.9384078351965 L 592.3337292807043 616.2615921648079 L 601.1721371158986 625.1000000000022 L 610.0105449510929 633.9384078351965 L 592.3337292807043 616.2615921648079 L 601.1721371158986 625.1000000000022 L 601.1721371158986 625.1000000000022 L 601.1721371158986 625.1000000000022 Z" stroke-opacity="1" stroke-linecap="round" stroke-linejoin="round" stroke-miterlimit="10" stroke-width="2" stroke-dasharray=""/><path fill="none" stroke="rgb(255,255,255)" paint-order="fill stroke markers" d=" M 639.840171394874 602.7750000000025 L 648.6785792300683 611.6134078351968 L 631.0017635596797 593.9365921648082 L 639.840171394874 602.7750000000025 L 648.6785792300683 611.6134078351968 L 631.0017635596797 593.9365921648082 L 639.840171394874 602.7750000000025 L 639.840171394874 602.7750000000025 L 639.840171394874 602.7750000000025 Z" stroke-opacity="1" stroke-linecap="round" stroke-linejoin="round" stroke-miterlimit="10" stroke-width="2" stroke-dasharray=""/><path fill="none" stroke="rgb(255,255,255)" paint-order="fill stroke markers" d=" M 678.5082056738494 580.4500000000028 L 687.3466135090437 589.2884078351971 L 669.6697978386551 571.6115921648085 L 678.5082056738494 580.4500000000028 L 687.3466135090437 589.2884078351971 L 669.6697978386551 571.6115921648085 L 678.5082056738494 580.4500000000028 L 678.5082056738494 580.4500000000028 L 678.5082056738494 580.4500000000028 Z" stroke-opacity="1" stroke-linecap="round" stroke-linejoin="round" stroke-miterlimit="10" stroke-width="2" stroke-dasharray=""/><path fill="none" stroke="rgb(255,255,255)" paint-order="fill stroke markers" d=" M 678.5082056738495 535.8000000000028 L 687.3466135090438 544.6384078351971 L 669.6697978386552 526.9615921648085 L 678.5082056738495 535.8000000000028 L 687.3466135090438 544.6384078351971 L 669.6697978386552 526.9615921648085 L 678.5082056738495 535.8000000000028 L 678.5082056738495 535.8000000000028 L 678.5082056738495 535.8000000000028 Z" stroke-opacity="1" stroke-linecap="round" stroke-linejoin="round" stroke-miterlimit="10" stroke-width="2" stroke-dasharray=""/><path fill="none" stroke="rgb(255,255,255)" paint-order="fill stroke markers" d=" M 678.5082056738496 491.1500000000028 L 687.3466135090439 499.98840783519717 L 669.6697978386553 482.3115921648085 L 678.5082056738496 491.1500000000028 L 687.3466135090439 499.9884078351971 L 669.6697978386553 482.3115921648085 L 678.5082056738496 491.1500000000028 L 678.5082056738496 491.1500000000028 L 678.5082056738496 491.1500000000028 Z" stroke-opacity="1" stroke-linecap="round" stroke-linejoin="round" stroke-miterlimit="10" stroke-width="2" stroke-dasharray=""/><path fill="none" stroke="rgb(255,255,255)" paint-order="fill stroke markers" d=" M 678.5082056738497 446.50000000000284 L 687.346613509044 455.3384078351972 L 669.6697978386554 437.6615921648085 L 678.5082056738497 446.50000000000284 L 687.346613509044 455.33840783519713 L 669.6697978386554 437.6615921648085 L 678.5082056738497 446.50000000000284 L 678.5082056738497 446.50000000000284 L 678.5082056738497 446.50000000000284 Z" stroke-opacity="1" stroke-linecap="round" stroke-linejoin="round" stroke-miterlimit="10" stroke-width="2" stroke-dasharray=""/><path fill="none" stroke="rgb(255,255,255)" paint-order="fill stroke markers" d=" M 678.5082056738498 401.85000000000286 L 687.3466135090441 410.6884078351972 L 669.6697978386555 393.0115921648085 L 678.5082056738498 401.85000000000286 L 687.3466135090441 410.68840783519715 L 669.6697978386555 393.0115921648085 L 678.5082056738498 401.85000000000286 L 678.5082056738498 401.85000000000286 L 678.5082056738498 401.85000000000286 Z" stroke-opacity="1" stroke-linecap="round" stroke-linejoin="round" stroke-miterlimit="10" stroke-width="2" stroke-dasharray=""/><path fill="none" stroke="rgb(255,255,255)" paint-order="fill stroke markers" d=" M 678.50820567385 357.2000000000029 L 687.3466135090442 366.03840783519723 L 669.6697978386557 348.36159216480854 L 678.50820567385 357.2000000000029 L 687.3466135090442 366.0384078351972 L 669.6697978386557 348.36159216480854 L 678.50820567385 357.2000000000029 L 678.50820567385 357.2000000000029 L 678.50820567385 357.2000000000029 Z" stroke-opacity="1" stroke-linecap="round" stroke-linejoin="round" stroke-miterlimit="10" stroke-width="2" stroke-dasharray=""/><path fill="none" stroke="rgb(255,255,255)" paint-order="fill stroke markers" d=" M 678.5082056738501 312.5500000000029 L 687.3466135090443 321.38840783519726 L 669.6697978386558 303.71159216480856 L 678.5082056738501 312.5500000000029 L 687.3466135090443 321.3884078351972 L 669.6697978386558 303.71159216480856 L 678.5082056738501 312.5500000000029 L 678.5082056738501 312.5500000000029 L 678.5082056738501 312.5500000000029 Z" stroke-opacity="1" stroke-linecap="round" stroke-linejoin="round" stroke-miterlimit="10" stroke-width="2" stroke-dasharray=""/><path fill="none" stroke="rgb(255,255,255)" paint-order="fill stroke markers" d=" M 678.5082056738502 267.90000000000293 L 687.3466135090445 276.7384078351973 L 669.6697978386559 259.0615921648086 L 678.5082056738502 267.90000000000293 L 687.3466135090445 276.7384078351972 L 669.6697978386559 259.0615921648086 L 678.5082056738502 267.90000000000293 L 678.5082056738502 267.90000000000293 L 678.5082056738502 267.90000000000293 Z" stroke-opacity="1" stroke-linecap="round" stroke-linejoin="round" stroke-miterlimit="10" stroke-width="2" stroke-dasharray=""/><path fill="none" stroke="rgb(255,255,255)" paint-order="fill stroke markers" d=" M 639.840171394875 245.57500000000283 L 648.6785792300693 254.41340783519715 L 631.0017635596807 236.73659216480848 L 639.840171394875 245.57500000000283 L 648.6785792300693 254.41340783519715 L 631.0017635596807 236.73659216480848 L 639.840171394875 245.57500000000283 L 639.840171394875 245.57500000000283 L 639.840171394875 245.57500000000283 Z" stroke-opacity="1" stroke-linecap="round" stroke-linejoin="round" stroke-miterlimit="10" stroke-width="2" stroke-dasharray=""/><path fill="none" stroke="rgb(255,255,255)" paint-order="fill stroke markers" d=" M 601.1721371158999 223.25000000000273 L 610.0105449510942 232.08840783519705 L 592.3337292807056 214.41159216480838 L 601.1721371158999 223.25000000000273 L 610.0105449510942 232.08840783519705 L 592.3337292807056 214.41159216480838 L 601.1721371158999 223.25000000000273 L 601.1721371158999 223.25000000000273 L 601.1721371158999 223.25000000000273 Z" stroke-opacity="1" stroke-linecap="round" stroke-linejoin="round" stroke-miterlimit="10" stroke-width="2" stroke-dasharray=""/><path fill="none" stroke="rgb(255,255,255)" paint-order="fill stroke markers" d=" M 562.5041028369247 200.92500000000263 L 571.342510672119 209.76340783519694 L 553.6656950017305 192.08659216480828 L 562.5041028369247 200.92500000000263 L 571.342510672119 209.76340783519694 L 553.6656950017305 192.08659216480828 L 562.5041028369247 200.92500000000263 L 562.5041028369247 200.92500000000263 L 562.5041028369247 200.92500000000263 Z" stroke-opacity="1" stroke-linecap="round" stroke-linejoin="round" stroke-miterlimit="10" stroke-width="2" stroke-dasharray=""/><path fill="none" stroke="rgb(255,255,255)" paint-order="fill stroke markers" d=" M 523.8360685579496 178.60000000000252 L 532.6744763931439 187.43840783519684 L 514.9976607227553 169.76159216480818 L 523.8360685579496 178.60000000000252 L 532.6744763931439 187.43840783519684 L 514.9976607227553 169.76159216480818 L 523.8360685579496 178.60000000000252 L 523.8360685579496 178.60000000000252 L 523.8360685579496 178.60000000000252 Z" stroke-opacity="1" stroke-linecap="round" stroke-linejoin="round" stroke-miterlimit="10" stroke-width="2" stroke-dasharray=""/><path fill="none" stroke="rgb(255,255,255)" paint-order="fill stroke markers" d=" M 485.16803427897446 156.27500000000242 L 494.0064421141688 165.11340783519674 L 476.3296264437801 147.43659216480808 L 485.16803427897446 156.27500000000242 L 494.00644211416875 165.11340783519674 L 476.3296264437801 147.43659216480808 L 485.16803427897446 156.27500000000242 L 485.16803427897446 156.27500000000242 L 485.16803427897446 156.27500000000242 Z" stroke-opacity="1" stroke-linecap="round" stroke-linejoin="round" stroke-miterlimit="10" stroke-width="2" stroke-dasharray=""/><path fill="none" stroke="rgb(255,255,255)" paint-order="fill stroke markers" d=" M 446.4999999999993 133.95000000000232 L 455.33840783519366 142.78840783519664 L 437.661592164805 125.11159216480799 L 446.4999999999993 133.95000000000232 L 455.3384078351936 142.78840783519664 L 437.661592164805 125.11159216480797 L 446.4999999999993 133.95000000000232 L 446.4999999999993 133.95000000000232 L 446.4999999999993 133.95000000000232 Z" stroke-opacity="1" stroke-linecap="round" stroke-linejoin="round" stroke-miterlimit="10" stroke-width="2" stroke-dasharray=""/><path fill="none" stroke="rgb(255,255,255)" paint-order="fill stroke markers" d=" M 407.83196572102406 156.27500000000217 L 416.6703735562184 165.11340783519648 L 398.9935578858297 147.43659216480785 L 407.83196572102406 156.27500000000217 L 416.67037355621835 165.11340783519648 L 398.9935578858297 147.43659216480782 L 407.83196572102406 156.27500000000217 L 407.83196572102406 156.27500000000217 L 407.83196572102406 156.27500000000217 Z" stroke-opacity="1" stroke-linecap="round" stroke-linejoin="round" stroke-miterlimit="10" stroke-width="2" stroke-dasharray=""/><path fill="none" stroke="rgb(255,255,255)" paint-order="fill stroke markers" d=" M 369.1639314420488 178.600000000002 L 378.00233927724315 187.43840783519633 L 360.32552360685446 169.76159216480767 L 369.1639314420488 178.600000000002 L 378.0023392772431 187.43840783519633 L 360.32552360685446 169.76159216480767 L 369.1639314420488 178.600000000002 L 369.1639314420488 178.600000000002 L 369.1639314420488 178.600000000002 Z" stroke-opacity="1" stroke-linecap="round" stroke-linejoin="round" stroke-miterlimit="10" stroke-width="2" stroke-dasharray=""/><path fill="none" stroke="rgb(255,255,255)" paint-order="fill stroke markers" d=" M 330.49589716307355 200.92500000000186 L 339.3343049982679 209.76340783519618 L 321.6574893278792 192.08659216480754 L 330.49589716307355 200.92500000000186 L 339.33430499826784 209.76340783519618 L 321.6574893278792 192.0865921648075 L 330.49589716307355 200.92500000000186 L 330.49589716307355 200.92500000000186 L 330.49589716307355 200.92500000000186 Z" stroke-opacity="1" stroke-linecap="round" stroke-linejoin="round" stroke-miterlimit="10" stroke-width="2" stroke-dasharray=""/><path fill="none" stroke="rgb(255,255,255)" paint-order="fill stroke markers" d=" M 291.8278628840983 223.2500000000017 L 300.66627071929264 232.08840783519602 L 282.98945504890395 214.41159216480736 L 291.8278628840983 223.2500000000017 L 300.6662707192926 232.08840783519602 L 282.98945504890395 214.41159216480736 L 291.8278628840983 223.2500000000017 L 291.8278628840983 223.2500000000017 L 291.8278628840983 223.2500000000017 Z" stroke-opacity="1" stroke-linecap="round" stroke-linejoin="round" stroke-miterlimit="10" stroke-width="2" stroke-dasharray=""/><path fill="none" stroke="rgb(255,255,255)" paint-order="fill stroke markers" d=" M 253.15982860512304 245.57500000000155 L 261.9982364403174 254.41340783519587 L 244.3214207699287 236.73659216480723 L 253.15982860512304 245.57500000000155 L 261.9982364403173 254.41340783519587 L 244.3214207699287 236.7365921648072 L 253.15982860512304 245.57500000000155 L 253.15982860512304 245.57500000000155 L 253.15982860512304 245.57500000000155 Z" stroke-opacity="1" stroke-linecap="round" stroke-linejoin="round" stroke-miterlimit="10" stroke-width="2" stroke-dasharray=""/><path fill="none" stroke="rgb(255,255,255)" paint-order="fill stroke markers" d=" M 214.49179432614778 267.9000000000014 L 223.3302021613421 276.73840783519574 L 205.65338649095344 259.06159216480705 L 214.49179432614778 267.9000000000014 L 223.3302021613421 276.73840783519574 L 205.65338649095344 259.06159216480705 L 214.49179432614778 267.9000000000014 L 214.49179432614778 267.9000000000014 L 214.49179432614778 267.9000000000014 Z" stroke-opacity="1" stroke-linecap="round" stroke-linejoin="round" stroke-miterlimit="10" stroke-width="2" stroke-dasharray=""/></g></svg>